<?xml version="1.0" standalone="no"?>
<!DOCTYPE svg PUBLIC "-//W3C//DTD SVG 1.1//EN" "http://www.w3.org/Graphics/SVG/1.1/DTD/svg11.dtd" >
<svg xmlns="http://www.w3.org/2000/svg" xmlns:xlink="http://www.w3.org/1999/xlink" version="1.1">
<metadata>
Created by FontForge 20141024 at Mon May 18 11:03:24 2015
 By System Administrator
Copyright (c) 2011-14 by vernon adams. All rights reserved.
</metadata>
<defs>
<font id="Pacifico-Regular" horiz-adv-x="205" >
  <font-face 
    font-family="Pacifico"
    font-weight="400"
    font-stretch="normal"
    units-per-em="1000"
    panose-1="2 0 5 3 0 0 0 0 0 0"
    ascent="800"
    descent="-200"
    x-height="316"
    cap-height="664"
    bbox="-104 -566 1390 1127"
    underline-thickness="0"
    underline-position="0"
    unicode-range="U+0020-FB04"
  />
<missing-glyph horiz-adv-x="364" 
d="M33 0v666h265v-666h-265zM66 33h199v600h-199v-600z" />
    <glyph glyph-name=".notdef" horiz-adv-x="364" 
d="M33 0v666h265v-666h-265zM66 33h199v600h-199v-600z" />
    <glyph glyph-name=".null" horiz-adv-x="0" 
 />
    <glyph glyph-name="nonmarkingreturn" horiz-adv-x="333" 
 />
    <glyph glyph-name="space" unicode=" " 
 />
    <glyph glyph-name="exclam" unicode="!" horiz-adv-x="319" 
d="M389 610q0 -19 -25 -84l-130 -334q-8 -24 -24 -24q-7 0 -12 5t-5 11l1 4l95 413q12 47 56 47t44 -38zM181 0q-56 0 -56 55q0 30 16.5 48t45.5 18q55 0 55 -56q0 -29 -16 -47t-45 -18z" />
    <glyph glyph-name="quotedbl" unicode="&#x22;" horiz-adv-x="404" 
d="M197 591q0 20 15.5 31.5t32.5 11.5t26.5 -8t9.5 -24v-5q-13 -126 -19 -158t-14.5 -41.5t-20.5 -9.5q-27 0 -27 33zM106 388q-24 0 -27 33q-14 121 -14 170q0 20 13.5 31.5t30.5 11.5q37 0 37 -37q0 -79 -12 -177q-6 -32 -28 -32z" />
    <glyph glyph-name="numbersign" unicode="#" horiz-adv-x="426" 
d="M113 154q-21 0 -38.5 9.5t-17.5 30.5t20 28t65 7l45 99q-38 0 -53 8t-15 25.5t7 26.5q14 17 94 17l47 104q8 20 27 34.5t43 14.5q20 0 20 -30q0 -11 -51 -123h91q4 11 11 37t13 42.5t17 36t27 29t37.5 9.5t21.5 -29q0 -15 -18 -59t-23 -66h43q28 0 28 -21
q0 -32 -23.5 -44t-72.5 -12q-18 -54 -34 -98h30q28 -2 28 -22q0 -55 -84 -55h-1q-34 -90 -53 -134q-12 -30 -45 -30t-33 32q0 11 4.5 26t37.5 106q-37 -1 -111 -1q-37 -78 -65 -134q-13 -30 -44 -30q-3 2 -12 4q-20 7 -20 22q0 37 57 140zM231 229h104q7 19 35 99h-97z" />
    <glyph glyph-name="dollar" unicode="$" horiz-adv-x="593" 
d="M283 -77q-25 0 -25 38q0 10 5 40q-77 7 -126 40.5t-49 95.5t33 95.5t90 33.5q17 0 28 -9t11 -25q0 -27 -29 -27q-52 0 -52 -61q0 -64 107 -72l39 220q-39 20 -55 29l-26 16q-19 12 -26.5 21t-23 27t-15.5 57q0 70 60 110.5t142 43.5l7 44q2 17 15.5 27.5t34.5 10.5
t21 -34q0 -8 -2 -22l-5 -31q54 -11 93 -41t45 -80v-7q0 -18 -10 -27.5t-26 -9.5t-29.5 11.5t-16.5 32.5q-5 39 -68 51l-33 -191q50 -28 83 -58q45 -38 45 -99q0 -79 -51.5 -121.5t-134.5 -50.5l-10 -55q-7 -23 -46 -23zM275 415.5q13 -17.5 23.5 -25t31.5 -20.5
q3 17 12 67.5t15 85.5q-39 -3 -67 -20.5t-28 -43.5t13 -43.5zM443 173q0 19 -10.5 35.5t-20.5 24.5t-28 20l-31 -176q90 22 90 96z" />
    <glyph glyph-name="percent" unicode="%" horiz-adv-x="772" 
d="M155 229q-59 0 -91 44t-32 121t45.5 137t125.5 60q60 0 91 -39t31 -107.5t-34 -126t-87 -79.5q-23 -10 -49 -10zM162 295q25 0 44 28q35 52 35 126q0 76 -47 76q-26 0 -44 -23q-30 -39 -30 -112q0 -95 42 -95zM576 569q0 -18 -11 -37l-279 -497q-20 -35 -46 -35
q-12 0 -19.5 9t-7.5 24.5t11 34.5l295 503q16 26 35 26q22 0 22 -28zM590 60q34 0 53.5 45.5t19.5 91.5q0 93 -40 93q-27 0 -45 -26q-28 -41 -28 -122q0 -82 40 -82zM584 -5q-59 0 -90.5 39.5t-31.5 102.5q0 92 44.5 155t125.5 63q58 0 86.5 -42.5t28.5 -119.5t-46.5 -137.5
t-116.5 -60.5z" />
    <glyph glyph-name="ampersand" unicode="&#x26;" horiz-adv-x="521" 
d="M468 -82q-44 0 -65 21q-75 76 -75 88q-59 -27 -134.5 -27t-123.5 29t-48 89q0 101 139 175q-40 76 -40 133t43 97.5t98 40.5t87 -27.5t32 -73.5q0 -94 -122 -168q41 -82 103 -170q37 17 54.5 37.5t17.5 54.5q0 11 18 11t36 -10.5t18 -25.5q0 -68 -105 -125q42 -39 65 -59
q9 -6 30.5 -16t36 -19t14.5 -19t-23 -23t-56 -13zM193 69q47 0 94 17q-56 70 -104 165q-73 -55 -73 -121q0 -31 23 -46t60 -15zM215 429q0 -41 28 -90q1 1 12 10.5t13 12t11.5 12t12.5 14t14 20.5t11 47q0 37 -46 37q-56 0 -56 -63z" />
    <glyph glyph-name="quotesingle" unicode="'" horiz-adv-x="179" 
d="M60 379q-4 0 -11 10t-7 17.5t4 16.5t23 69q45 144 79 144q49 0 49 -38q0 -26 -16 -58q-8 -17 -16 -31.5t-18.5 -30.5t-17.5 -26t-15.5 -22t-15.5 -23t-10 -15q-10 -13 -28 -13z" />
    <glyph glyph-name="parenleft" unicode="(" horiz-adv-x="398" 
d="M355 -129q-108 0 -167.5 74t-59.5 195q0 158 81.5 302t220.5 207q15 6 26 6q24 0 24 -21q0 -26 -50 -62q-101 -74 -158 -191t-57 -234q0 -189 139 -212q10 -2 27.5 -3.5t26 -3t16 -7.5t7.5 -17q0 -33 -76 -33z" />
    <glyph glyph-name="parenright" unicode=")" horiz-adv-x="425" 
d="M72 -129q-69 0 -69 27q0 13 8.5 20.5t18.5 9.5t30 4q117 9 172 105q50 87 50 213q0 94 -34 179.5t-101 142.5q-38 33 -38 56q0 12 8.5 19.5t20 7.5t26.5 -6q100 -51 153.5 -155.5t53.5 -230.5q0 -168 -82 -280t-217 -112z" />
    <glyph glyph-name="asterisk" unicode="*" horiz-adv-x="350" 
d="M200 488q11 6 85 47q3 2 14 2t25.5 -12.5t14.5 -28.5q0 -21 -33 -29q-17 -4 -30 -6.5t-32.5 -4.5t-24.5 -3l88 -40q11 -5 11 -18.5t-13.5 -28.5t-25 -15t-17.5 6l-73 70q-1 -32 -1 -100q0 -14 -13 -23t-30 -9q-32 0 -32 27.5t23 76.5q12 24 14 30q-38 -22 -85 -46
q-6 -3 -16.5 -3t-24 13.5t-13.5 28.5q0 20 33 29q16 4 30 6.5t32 4.5t24 3q-85 39 -86 40q-18 8 -18 22.5t15 27t28 12.5t17 -3.5t76 -72.5q0 16 1 50t1 50t12.5 24.5t27.5 8.5t24 -9t9 -22t-37 -105z" />
    <glyph glyph-name="plus" unicode="+" horiz-adv-x="514" 
d="M263 21q-33 0 -33 43v78h-77q-44 0 -44 33q0 16 13.5 24.5t32.5 8.5h75v78q0 17 10.5 28.5t25 11.5t22.5 -9.5t8 -24.5v-84h85q34 0 34 -30q0 -15 -11.5 -25.5t-28.5 -10.5h-79v-76q0 -19 -8.5 -32t-24.5 -13z" />
    <glyph glyph-name="comma" unicode="," horiz-adv-x="290" 
d="M167.5 -26q-38.5 -39 -80.5 -50q-3 -1 -8 -1q-16 0 -16 13q0 6 4 12t15 23q35 58 41 104q4 35 46 35q37 0 37 -48.5t-38.5 -87.5z" />
    <glyph glyph-name="hyphen" unicode="-" horiz-adv-x="367" 
d="M293 365q32 0 32 -26q0 -22 -29 -26q-60 -8 -102 -19t-54.5 -16.5t-30 -14t-27 -8.5t-17.5 10t-8 24q0 62 236 76z" />
    <glyph glyph-name="period" unicode="." horiz-adv-x="202" 
d="M101 0q-58 0 -58 57q0 30 17 48t47 18q59 0 59 -56q0 -30 -17.5 -48.5t-47.5 -18.5z" />
    <glyph glyph-name="slash" unicode="/" horiz-adv-x="426" 
d="M398 573q0 -7 -3 -15q-41 -98 -132 -309.5t-97 -226.5q-11 -26 -39 -26q-14 0 -23.5 9.5t-9.5 24.5t12 43.5t95.5 220t122.5 282.5q14 32 40 32q14 0 24 -10t10 -25z" />
    <glyph glyph-name="zero" unicode="0" horiz-adv-x="417" 
d="M326 295q0 61 -17 94t-61 33q-56 0 -86 -63.5t-30 -167.5q0 -64 19 -96.5t62 -32.5t69 36q44 61 44 197zM44 188q0 173 93 260q50 47 125 47t112.5 -57.5t37.5 -146.5q0 -127 -54.5 -213t-142.5 -86t-129.5 54.5t-41.5 141.5z" />
    <glyph glyph-name="one" unicode="1" horiz-adv-x="333" 
d="M212 411q-35 -13 -78 -23h-3q-8 0 -13 10.5t-5 24.5q0 31 16 35q35 11 149 34h5q16 0 16 -25q0 -5 -2 -19q-71 -367 -86 -437q-5 -22 -43 -22t-38 27q8 48 82 395z" />
    <glyph glyph-name="two" unicode="2" horiz-adv-x="417" 
d="M140 371q0 -13 5.5 -35.5t5.5 -28.5q0 -21 -30 -21q-55 0 -55 70t45.5 106.5t113 36.5t115.5 -43t48 -135q0 -118 -98 -227q26 -16 58 -16q9 0 19 9.5t15 9.5q12 0 12 -26t-14.5 -48.5t-45.5 -22.5q-12 0 -24 4q-6 2 -11 3.5t-11 5t-9.5 5.5t-10 7t-14.5 11t-11 9
q-53 -45 -97.5 -45t-74.5 26.5t-30 66t22.5 62.5t66.5 23t107 -43q71 70 71 177q0 122 -81 122q-32 0 -59.5 -17.5t-27.5 -45.5zM133 62q33 0 62 31q-31 21 -71 21q-24 0 -24 -22q0 -12 9 -21t24 -9z" />
    <glyph glyph-name="three" unicode="3" horiz-adv-x="417" 
d="M374 387q0 -39 -24.5 -73t-70.5 -43q51 -13 77 -47t26 -81q0 -82 -49 -122t-119 -40q-112 0 -163 80q-6 9 -6 21.5t12.5 23.5t29.5 11t30 -19.5t42.5 -34t63 -14.5t57 23t23.5 69t-39.5 69t-98.5 23q-27 0 -27 30q0 28 44.5 28t76 21t31.5 53t-18 46.5t-44 14.5
q-45 0 -74 -32q-13 -14 -25 -14t-21.5 11t-9.5 21t4 15q52 63 141 63q57 0 94 -26.5t37 -76.5z" />
    <glyph glyph-name="four" unicode="4" horiz-adv-x="417" 
d="M311 135h62q18 0 18 -25q0 -15 -8.5 -27t-23.5 -13l-63 -1l-11 -48q-6 -26 -15.5 -33.5t-25.5 -7.5q-34 0 -34 27q0 3 2 15l10 46h-130q-32 0 -32 27q0 32 116 364q7 23 35 23q14 0 25 -7t11 -16.5t-100 -322.5h90q15 61 40 152q9 33 41.5 33t32.5 -19z" />
    <glyph glyph-name="five" unicode="5" horiz-adv-x="417" 
d="M122 115q0 -6 1 -10q12 -49 86 -49q38 0 65.5 24t27.5 69t-32.5 67.5t-88.5 22.5l-51 -4q-27 0 -27 30q0 14 12.5 42.5t20 70t8 59t12 28.5t45 11t77.5 -11t57 -11q29 0 51 26q3 3 8 3q19 0 19 -37t-14.5 -51t-36.5 -14t-68.5 5.5t-76.5 5.5h-7l-32 -99q21 4 47 4
q69 0 114 -36.5t45 -113t-49.5 -116.5t-121 -40t-114.5 30t-43 84q0 30 14 45t34 15q21 -2 21 -23z" />
    <glyph glyph-name="six" unicode="6" horiz-adv-x="398" 
d="M57 163q0 220 244 338q18 9 30 9q34 0 34 -27t-24 -38q-146 -67 -193 -173q36 39 92.5 39t100.5 -42t44 -112.5t-45 -119.5t-119 -49t-119 45.5t-45 129.5zM224 58q39 0 60.5 28.5t21.5 65.5t-19.5 64t-60.5 27t-66.5 -24.5t-25.5 -65.5t24 -68t66 -27z" />
    <glyph glyph-name="seven" unicode="7" horiz-adv-x="417" 
d="M349 462l54 4q23 0 23 -31q0 -18 -23 -43q-9 -9 -10 -12q-118 -185 -169 -359q-10 -33 -41 -33q-16 0 -28 10.5t-12 21t1 14.5q18 66 70.5 172.5t112.5 197.5l-72 -1q-29 -1 -65 -11.5t-51 -10.5t-24 11t-9 27.5t10.5 30.5t26.5 14z" />
    <glyph glyph-name="eight" unicode="8" horiz-adv-x="417" 
d="M395 407q0 -60 -30 -95t-85 -61q40 -30 64 -62.5t24 -83.5t-42 -84.5t-107.5 -33.5t-103.5 28.5t-38 86.5t28.5 95t79.5 68q-72 48 -72 106.5t42 95.5t101.5 37t99 -24.5t39.5 -72.5zM214 54q32 0 51 20t19 50.5t-55 92.5q-31 -16 -54.5 -44t-23.5 -57.5t17 -45.5t46 -16
zM241 298q26 14 49.5 40t23.5 49.5t-15.5 37t-42.5 13.5t-47 -16t-20 -45.5t52 -78.5z" />
    <glyph glyph-name="nine" unicode="9" horiz-adv-x="417" 
d="M390 204q0 -221 -244 -338q-18 -9 -30 -9q-33 0 -33 27t23 38q146 67 193 173q-36 -39 -92.5 -39t-100 42t-43.5 113t44.5 119.5t118.5 48.5t119 -45.5t45 -129.5zM223 309q-39 0 -60.5 -28.5t-21.5 -65.5t19.5 -64t60.5 -27t66.5 25t25.5 65.5t-24 67.5t-66 27z" />
    <glyph glyph-name="colon" unicode=":" horiz-adv-x="240" 
d="M166 0q-57 0 -57 55q0 30 16.5 48t46.5 18q57 0 57 -56q0 -30 -16.5 -47.5t-46.5 -17.5zM186 229q-56 0 -56 56q0 30 16.5 48t45.5 18q58 0 58 -56q0 -30 -17 -48t-47 -18z" />
    <glyph glyph-name="semicolon" unicode=";" horiz-adv-x="262" 
d="M126 -65q-28 0 -28 37q0 22 19 73q9 24 12 36q8 29 47 29q22 0 37.5 -10.5t15.5 -29.5q0 -59 -25.5 -97t-77.5 -38zM186 229q-56 0 -56 56q0 30 16.5 48t45.5 18q58 0 58 -56q0 -30 -17 -48t-47 -18z" />
    <glyph glyph-name="less" unicode="&#x3c;" horiz-adv-x="404" 
d="M320 43q-43 0 -108 31q-29 15 -39.5 18.5t-32.5 10.5t-30.5 10.5t-26.5 11t-26 15t-22.5 22.5t-14.5 52q0 33 30 51q14 9 26.5 14t31.5 11.5t27 10.5q192 83 213 83q18 0 29 -16.5t11 -39.5t-27 -30l-274 -89l224 -82q17 -6 30.5 -21.5t13.5 -31.5t-10 -23.5t-25 -7.5z
" />
    <glyph glyph-name="equal" unicode="=" horiz-adv-x="583" 
d="M413 175h113q28 0 28 -21q0 -32 -25.5 -44t-80.5 -12h-271q-58 0 -58 44q0 33 69 33l101 -2zM566 285q0 -45 -84 -45l-305 -5h-2q-18 0 -31 11.5t-13 29.5q0 42 75 42h8l89 -2h24q43 0 99 4.5t77.5 4.5t42 -4.5t20.5 -35.5z" />
    <glyph glyph-name="greater" unicode="&#x3e;" horiz-adv-x="404" 
d="M91 36q-35 0 -35 27q0 19 8.5 36t21.5 22l235 88l-247 75q-27 9 -27 31q0 56 45 56q26 0 59 -11.5t81.5 -36.5t55.5 -28.5t29.5 -12t35 -14t24 -20t11.5 -34.5q0 -56 -46 -84q-23 -14 -42.5 -22.5t-51.5 -19t-54 -21t-56 -23.5q-21 -8 -47 -8z" />
    <glyph glyph-name="question" unicode="?" horiz-adv-x="384" 
d="M263 563q-72 0 -110 -78q-5 -8 -15.5 -8t-22 10t-11.5 18.5t1 10.5q20 61 63.5 92t102 31t105.5 -39.5t47 -100.5q0 -41 -18 -75.5t-44.5 -57.5t-53.5 -42.5t-47.5 -39.5t-23.5 -40.5t-22 -22.5q-19 0 -19 18q2 64 53 111q21 20 41.5 39.5t35 45t14.5 58.5t-21.5 51.5
t-54.5 18.5zM201 0q-56 0 -56 55q0 30 16.5 48t46.5 18q57 0 57 -56q0 -30 -17 -47.5t-47 -17.5z" />
    <glyph glyph-name="at" unicode="@" horiz-adv-x="766" 
d="M470 96v6q-54 -93 -142 -93q-55 0 -88.5 31.5t-33.5 85.5q0 122 96.5 209t206.5 87q14 0 16 -17h23q35 0 35 -31q0 -7 -4 -25l-56 -221q-3 -14 -3 -22q0 -25 29 -25t58 37t43.5 84t14.5 85q0 195 -203 195q-150 0 -251.5 -109.5t-101.5 -251.5q0 -87 55 -142.5t186 -55.5
t237 62q7 5 18.5 5t19.5 -9t8 -25.5t-18 -26.5q-121 -70 -276.5 -70t-228.5 75t-73 189q0 86 36.5 165t96 134.5t136.5 88t156 32.5q126 0 195.5 -65t69.5 -181t-55.5 -193.5t-128.5 -77.5t-73 70zM331 68q51 0 85 39.5t48 87.5l47 161q-8 1 -23 1q-85 0 -150 -66.5
t-65 -161.5q0 -61 58 -61z" />
    <glyph glyph-name="A" unicode="A" horiz-adv-x="684" 
d="M583 14q31 0 73 37q4 4 13.5 4t19.5 -10.5t10 -23t-7 -20.5q-20 -24 -56.5 -41t-70.5 -17q-83 0 -83 100q0 22 3 43q-21 -55 -78 -100.5t-119 -45.5q-112 0 -170.5 65t-58.5 182.5t40.5 214t106 160t147.5 99.5t167 36q142 0 239 -93q13 -11 13 -27t-9.5 -26t-23 -10
t-23.5 9q-91 66 -195 66q-143 0 -250.5 -116t-114.5 -302v-15q0 -80 37.5 -123t109 -43t124.5 57.5t72 142.5l64 282q4 23 27 23t38 -10.5t15 -21t-1 -12.5l-70 -317q-15 -77 -15 -104t6 -35t20 -8z" />
    <glyph glyph-name="B" unicode="B" horiz-adv-x="616" 
d="M362 609q-70 0 -143 -25t-123 -68q-18 -15 -35.5 -15t-30 13t-12.5 27.5t10 23.5q67 61 159 93.5t196.5 32.5t181.5 -50.5t77 -136t-60 -140.5q-50 -48 -145 -56q58 -10 101 -46t43 -93t-56 -116.5t-143 -95.5t-162.5 -36t-112.5 16t-37 44q0 222 40.5 377.5t108.5 155.5
q25 0 41 -25q-45 -59 -70.5 -201t-25.5 -266q0 -14 1 -19q3 -13 34 -13q110 0 193.5 56.5t83.5 123.5q0 37 -21 60t-51.5 32.5t-61 15t-51.5 13.5t-21 22q0 26 43 26l32 -1h5q52 0 91 14t59 36q37 44 37 89q0 65 -49 98.5t-126 33.5z" />
    <glyph glyph-name="C" unicode="C" horiz-adv-x="593" 
d="M58 206q0 100 33.5 188t88 148t125 94.5t145 34.5t119 -39.5t44.5 -113t-56.5 -129.5t-145.5 -73q-16 -2 -21 -2q-37 0 -37 29q0 11 10.5 20t47.5 19q57 16 91.5 50t34.5 78.5t-25.5 64.5t-70.5 20q-109 0 -198.5 -112.5t-89.5 -264.5q0 -114 46 -175.5t133 -61.5
t157.5 45.5t116.5 117.5q4 7 15.5 7t23.5 -9t12 -16t-2 -11q-44 -95 -139 -152.5t-203.5 -57.5t-181.5 76t-73 225z" />
    <glyph glyph-name="D" unicode="D" horiz-adv-x="607" 
d="M159 51q0 -19 6 -26.5t25 -7.5q136 0 233 107t97 244q0 98 -66 163.5t-177.5 65.5t-170.5 -60q-6 -6 -19 -25.5t-25 -32.5t-23 -13t-17.5 10.5t-6.5 27t12 44t20 36.5q78 91 219 91q162 0 250 -80.5t88 -216.5q0 -98 -35 -180t-92.5 -134.5t-129 -81.5t-137.5 -29
t-128 28q-14 6 -13 24q2 136 37 292t86 229q25 17 47 17t39 -28q-44 -57 -81.5 -209.5t-37.5 -254.5z" />
    <glyph glyph-name="E" unicode="E" horiz-adv-x="553" 
d="M253 -104q-108 0 -160 45t-52 137.5t79.5 165.5t181.5 75q-97 13 -137 52t-40 111.5t45 123.5t110.5 74.5t144 23.5t141 -38.5t62.5 -105.5q0 -33 -13 -53t-26.5 -24.5t-28.5 -4.5h-4q-14 0 -28 8q-25 14 -25 48q0 43 47 62q-47 43 -129.5 43t-140 -39t-57.5 -102
t37.5 -95.5t124.5 -51.5q32 -8 32 -39q0 -19 -15 -33t-41 -14q-87 0 -152.5 -52.5t-65.5 -121.5q0 -112 113 -112q86 0 190.5 44t151.5 101q13 16 27.5 16t24 -13t9.5 -28.5t-10 -26.5q-55 -69 -175.5 -122.5t-220.5 -53.5z" />
    <glyph glyph-name="F" unicode="F" horiz-adv-x="518" 
d="M562 691q212 0 212 -49q0 -17 -7.5 -29t-21.5 -12h-3q-183 16 -216 16t-68 -4q-29 -166 -60 -285h110q21 0 21 -32.5t-21 -32.5l-124 -7q0 -1 -5 -18q-45 -155 -77 -210q-57 -96 -164 -96q-39 0 -78.5 17t-53.5 42q-2 3 -2 15.5t13.5 30t28.5 17.5q4 0 7.5 -2t14.5 -8
l26 -12q15 -8 42 -8q59 0 97 56q33 50 63 176h-15q-43 0 -43 28.5t74 37.5q8 32 25 97.5t30 116.5t18 70q-125 -14 -195.5 -75t-70.5 -141q0 -60 40 -113q3 -5 3 -8q0 -14 -40 -14t-56 24q-36 51 -36 115q0 111 111 200q54 44 145 70t204 26z" />
    <glyph glyph-name="G" unicode="G" horiz-adv-x="712" 
d="M59 200q0 88 29 166q50 141 181 230q116 80 240 80q82 0 134 -42t52 -121q0 -51 -49 -51q-22 0 -34.5 11t-12.5 46t-27.5 55t-72.5 20q-90 0 -177 -63q-45 -33 -81.5 -77.5t-59.5 -110.5t-23 -141q0 -95 51.5 -140t137.5 -45q114 0 256 70l6 29q1 4 1 12t-10 11t-40 3
t-44 7.5t-14 28.5q0 41 61 41q76 0 104 -12.5t28 -48.5q0 -14 -5 -39q-42 -230 -113 -340.5t-180 -110.5q-49 0 -106 21q-37 14 -37 44q0 19 14.5 34.5t32.5 15.5q3 0 11 -2q52 -19 90 -19q61 0 105 59t85 206q-22 -30 -101.5 -57t-163.5 -27q-110 0 -185 55q-83 60 -83 202
z" />
    <glyph glyph-name="H" unicode="H" horiz-adv-x="767" 
d="M746 566q-42 0 -85.5 -45.5t-63.5 -130.5l-22 -89q105 31 164 89.5t59 120.5q0 26 -14.5 40.5t-37.5 14.5zM143 664q48 0 90 -18q99 -40 99 -147q0 -56 -24 -131l-31 -97q17 -1 79.5 -1t134.5 12l32 120q31 119 93.5 177t124 58t99.5 -34.5t38 -87.5v-9
q-6 -84 -85.5 -162.5t-234.5 -115.5l-24 -98q-15 -64 -15 -104q0 -85 64 -85q32 0 75 17q16 7 41 17.5t30.5 13t14 2.5t18 -12.5t9.5 -27.5t-11 -22q-98 -68 -190 -68q-62 0 -99.5 37t-37.5 114q0 50 15 106l25 95q-77 -10 -136.5 -10t-81.5 1l-79 -246q-11 -33 -21.5 -48
t-32.5 -15q-48 0 -48 41q0 19 10 48l82 227q-18 2 -56 6q-27 3 -27 26q0 15 11.5 27.5t27.5 12.5h4q24 -3 63 -7l26 71q36 99 36 154.5t-43 79.5q-30 16 -66 16q-59 0 -108 -40.5t-64 -119.5q-8 -45 -40 -45q-14 0 -24 10.5t-10 27.5q14 114 86 174t161 60z" />
    <glyph glyph-name="I" unicode="I" horiz-adv-x="342" 
d="M0 4q0 10 2 15q5 17 49.5 26t82.5 10q19 129 59.5 276t84.5 246q-7 0 -33 -1t-41 -1h-2q-34 0 -46 5t-12 25t6.5 34.5t18 15.5t150.5 5t154 4q22 0 22 -28q0 -14 -7 -33q-7 -17 -89 -21q-42 -3 -45 -3q-7 -1 -40 -105.5t-65.5 -232.5t-37.5 -183q5 1 51.5 1t60.5 -5.5
t14 -21t-10.5 -27t-30.5 -12.5q-50 -2 -150.5 -12.5t-116.5 -10.5q-29 0 -29 34z" />
    <glyph glyph-name="J" unicode="J" horiz-adv-x="507" 
d="M208 -194h-2q-143 0 -143 207q0 21 9 32.5t21 11.5t21.5 -9.5t10.5 -26.5q5 -69 18.5 -99.5t51.5 -30.5t84.5 78t87.5 195q77 221 122 415q-17 0 -98 3.5t-120 3.5q-162 0 -213 -55q-24 -25 -44 -74q-8 -17 -28 -17q-27 0 -27 27q0 7 1 11q27 114 107.5 157.5t214.5 43.5
q40 0 230 -12q9 12 33.5 12t32.5 -15q51 -3 106 -3q42 0 42 -37q0 -31 -43 -38.5t-118 -7.5q-46 -182 -105 -373q-39 -130 -110 -269q-67 -130 -142 -130z" />
    <glyph glyph-name="K" unicode="K" horiz-adv-x="646" 
d="M3 304q-14 0 -28.5 16t-14.5 72q0 108 81 187t258 103h7q36 0 36 -33q0 -86 -22 -317q109 59 205.5 142t144.5 152q7 11 10.5 15.5t15 17.5t28.5 13q28 0 28 -27q0 -17 -10 -40q-26 -55 -129 -152t-226 -159q58 -203 109.5 -286t131.5 -83q18 0 44.5 5.5t37.5 5.5t17 -8
t6 -30q0 -23 -47 -33.5t-76 -10.5q-111 0 -180 108t-116 332q-38 -214 -103 -317.5t-173 -103.5t-108 34q0 17 14 35.5t29 18.5l50 -9q114 0 173 167.5t59 492.5q-211 -43 -211 -219l4 -57q0 -24 -45 -32z" />
    <glyph glyph-name="L" unicode="L" horiz-adv-x="622" 
d="M652 634q-25 0 -55 -9q-56 -17 -82.5 -64t-31.5 -147h21q124 0 187.5 41t63.5 94q0 35 -28.5 60t-74.5 25zM396 421q2 143 67 210q75 77 185 77q85 0 137 -47.5t52 -112.5q0 -81 -83 -140t-244 -59h-28q1 -14 1 -43q0 -186 -67 -291q26 -16 98 -61q16 -10 46 -27
t49 -25.5t53.5 -22.5t75.5 -14q64 0 106 51q13 14 25 14t18.5 -6.5t6.5 -16t-6 -19.5q-52 -93 -148 -93q-50 0 -102 21q-29 11 -50.5 20.5t-56.5 29t-52 29.5t-56.5 34.5t-51.5 31.5q-70 -65 -182 -65q-64 0 -99.5 35t-35.5 80t29.5 76t81.5 31q72 0 188 -65q27 52 35 124.5
t8 178.5q-63 8 -134 24q-18 4 -18 21.5t9.5 29.5t23.5 12zM189 -41q74 0 120 38q-90 49 -141 49h-1q-17 0 -27 -11t-10 -28.5t15.5 -32.5t43.5 -15z" />
    <glyph glyph-name="M" unicode="M" horiz-adv-x="863" 
d="M761 641q54 0 76.5 -32t22.5 -76l-1 -14q-5 -80 -60.5 -251t-55.5 -224q0 -17 14.5 -30.5t37.5 -13.5q55 0 92 45q13 16 30 16q25 0 25 -25q0 -20 -19 -40q-56 -65 -125 -65t-101 29t-32 78v9q4 74 57 236.5t53 231.5q0 17 -13 29t-34 12q-69 0 -141 -168
q-35 -82 -63.5 -166.5t-45 -143t-19 -66.5t-3.5 -12t-4 -11.5t-6.5 -12t-10 -11.5t-21.5 -7q-28 0 -53 25l108 361q23 78 23 132q0 76 -49 76q-70 0 -135.5 -127.5t-152.5 -412.5q0 -10 -9 -32q-13 -32 -41 -32q-31 0 -59 25l101 325q43 140 43 207t-33 67q-31 0 -58.5 -40
t-41.5 -94q-1 -3 -11.5 -3t-29.5 15t-19 35q0 65 55.5 112t111.5 47q99 0 99 -102q0 -54 -31 -162q60 149 111.5 205.5t126.5 56.5q90 0 90 -123q0 -48 -17 -118q34 108 92 171.5t112 67.5z" />
    <glyph glyph-name="N" unicode="N" horiz-adv-x="606" 
d="M621 543q0 -56 -66 -239t-66 -226q0 -16 14 -28t37 -12q53 0 93 45q14 15 27.5 15t21.5 -7.5t8 -23.5t-24 -39.5t-62 -41t-69 -17.5q-61 0 -93 26.5t-32 70.5q0 64 68 260q53 151 53 185q0 44 -39 44q-42 0 -78 -31q-20 -16 -37 -33.5t-36.5 -47.5t-35 -54.5t-34.5 -64.5
t-33 -69t-33.5 -76t-32 -77t-23 -56t-16.5 -41.5t-8.5 -19t-10.5 -15.5t-33 -12q-32 0 -56 25q156 387 156 527q0 61 -25 61h-1q-55 0 -104 -133q-2 -2 -11 -2t-28.5 14.5t-19.5 30t4 24.5q28 62 75 99.5t91.5 37.5t69.5 -24t26 -65q0 -69 -39 -221q41 108 79 170
q27 44 55.5 73t68.5 48.5t89.5 19.5t79.5 -27t30 -73z" />
    <glyph glyph-name="O" unicode="O" horiz-adv-x="661" 
d="M334 -24q79 0 138.5 58.5t87 142t27.5 183t-40.5 165.5t-120 66t-143 -60.5t-93.5 -144t-30 -178t44.5 -163.5t129.5 -69zM70 206q0 119 39.5 222.5t122 172t191.5 68.5q124 0 189 -92t65 -248.5t-89 -289.5q-42 -64 -110 -103.5t-151 -39.5q-123 0 -190 90t-67 220z" />
    <glyph glyph-name="P" unicode="P" horiz-adv-x="583" 
d="M239 -53q36 0 49 61q7 33 10.5 64.5t8.5 88t10 95.5q-5 2 -23.5 9t-25 10.5t-17.5 11t-15 17.5t-4 30t9 20q12 0 44 -15.5t41 -15.5q6 21 16 67t24 81q17 40 55 40q37 0 39 -21q-4 -14 -31 -77t-26 -93q98 10 156 56.5t58 114t-50 105t-137 37.5t-142 -45
q-49 -41 -76 -105q-52 -127 -52 -272q0 -264 79 -264zM227 -125q-52 0 -87 47q-63 86 -63 289q0 288 147 427q75 71 179 75h19q129 0 205 -60.5t76 -154t-81 -157.5t-221 -80q-5 -2 -9 -33l-4 -34t-5 -45.5t-8.5 -74.5t-19 -91.5t-46 -76.5t-82.5 -31z" />
    <glyph glyph-name="Q" unicode="Q" horiz-adv-x="701" 
d="M1042 -208q0 -4 -1.5 -6.5t-10 -20.5t-29.5 -41q-57 -61 -121 -61q-67 0 -173 65q-64 39 -264 190q-55 -22 -116 -22q-123 0 -190 90t-67 214.5t39.5 228t122 172t191.5 68.5q124 0 189 -92t65 -238q0 -115 -45 -221t-127 -165q276 -204 386 -204q10 0 27 3q5 1 10.5 4
t9.5 5t9.5 6.5t10.5 9.5l13 13q2 2 7 8.5t7 8.5q3 14 19 14t27 -8t11 -21zM334 -24q36 0 68 12q16 18 30 18q3 0 4 -1q72 44 111.5 141.5t39.5 205t-40.5 173.5t-120 66t-143 -60.5t-93.5 -144t-30 -178t44.5 -163.5t129.5 -69z" />
    <glyph glyph-name="R" unicode="R" horiz-adv-x="730" 
d="M412 368q103 2 149 23q57 26 57 104q0 55 -42 90t-134 35q-131 0 -205.5 -115.5t-74.5 -299.5q1 -120 20.5 -190t55.5 -70h1q21 0 35 49q7 25 19 75.5t32 238.5q-54 10 -54 40t20 30q12 0 44 -5q34 134 91 134q37 0 37 -29q-1 -13 -23 -46t-28 -64zM75 198
q6 238 106.5 372.5t256.5 134.5q127 0 203 -62.5t76 -146.5q0 -66 -37 -110q-30 -34 -66.5 -49t-90.5 -24q43 -176 118 -296.5t136 -128.5q5 -1 16 -1q43 0 84 44q6 6 15.5 6t20.5 -10.5t11 -22.5q0 -5 -3 -10q-21 -34 -60.5 -63.5t-90.5 -29.5q-69 0 -139 81t-117 196
t-62 227q-32 -2 -49 -2q-4 -28 -9.5 -75t-9 -73.5t-9 -66.5t-12 -63t-15.5 -52.5t-20.5 -46t-26.5 -32.5q-29 -29 -78 -29q-69 0 -109 78t-40 218z" />
    <glyph glyph-name="S" unicode="S" horiz-adv-x="636" 
d="M403 632q97 0 159 -40.5t62.5 -108t-41.5 -113.5q-24 -25 -44.5 -25t-31.5 10t-11 24t10 25q32 34 32 73.5t-40.5 62.5t-100.5 23t-114 -30.5t-54 -73.5t24 -65t80.5 -53t68.5 -37.5t36.5 -20t32.5 -18t28 -17t26.5 -18t21.5 -17.5t20 -20t14 -21q21 -30 21 -85
q0 -93 -81 -147t-201 -54t-199.5 51t-79.5 146q0 38 22.5 66.5t55 28.5t32.5 -27q0 -11 -7 -32.5t-7 -35.5q0 -60 48 -92t136.5 -32t134 33t45.5 85.5t-44 86.5q-23 17 -43.5 28.5t-55.5 29.5t-47.5 25.5t-37.5 22t-30.5 18.5t-26 17t-26 19t-20 19t-19 22.5t-14 28
t-9.5 57.5q0 83 82.5 132t192.5 49z" />
    <glyph glyph-name="T" unicode="T" horiz-adv-x="484" 
d="M304 -87q-39 0 -51 46q-3 11 -3 47q0 88 32.5 226.5t118.5 317.5q-39 3 -73 3q-143 0 -202 -39q-30 -20 -45.5 -39t-26.5 -45q-6 -14 -32 -14t-26 23q0 5 1 8q28 113 112 155.5t229 42.5q60 0 205 -9t226 -9q37 0 39 -26q0 -39 -40 -50q-35 -10 -125 -10t-173 5
q-110 -309 -110 -534v-22q0 -77 -56 -77z" />
    <glyph glyph-name="U" unicode="U" horiz-adv-x="632" 
d="M792 482q-59 -48 -120 -71q-23 -172 -122 -317q-48 -70 -117.5 -113.5t-147.5 -43.5q-104 0 -153 64.5t-49 172.5q0 145 76 309l-79 -52q-9 -6 -16 -6q-21 0 -21 30q0 15 15 25l168 108q14 7 30 7q31 0 31 -23q0 -8 -6 -19q-48 -79 -80 -183t-32 -184.5t28.5 -125.5
t88 -45t111.5 34.5t89 90.5q76 114 103 255q-77 0 -124.5 53t-47.5 112.5t34 95.5t97.5 36t96 -56.5t32.5 -148.5v-13q43 18 86 50q9 6 17.5 6t15.5 -7.5t7 -20t-11 -20.5zM482 566q0 -41 30.5 -75t84.5 -35q2 28 2 39q0 59 -16.5 94t-45.5 35t-42 -16.5t-13 -41.5z" />
    <glyph glyph-name="V" unicode="V" horiz-adv-x="569" 
d="M495 501.5q20 -28.5 55 -39.5q11 45 11 83.5t-10.5 58.5t-22.5 20q-25 0 -39 -18t-14 -47t20 -57.5zM637 554q0 -42 -12 -93q60 13 129 63q9 6 17.5 6t15 -7.5t6.5 -19t-12 -21.5q-94 -73 -174 -84q-26 -71 -62 -139q-69 -122 -135 -201q-77 -91 -162 -95h-2
q-128 0 -128 196q0 142 66 287l-147 -92q-8 -5 -16 -5q-22 0 -22 22.5t16 32.5l229 139q15 12 29 12t24.5 -9.5t10.5 -16t-5.5 -12.5t-28.5 -50.5t-50.5 -136t-27.5 -179.5q0 -122 54 -122t124 89q104 133 157 283q-56 14 -88 61t-32 101t34 91.5t98 37.5q43 0 68.5 -37
t25.5 -101z" />
    <glyph glyph-name="W" unicode="W" horiz-adv-x="965" 
d="M867 505q18 -28 51 -39q16 55 16 100q0 68 -38 68q-19 0 -33 -20t-14 -50.5t18 -58.5zM105 159q0 133 58 269l-129 -80q-10 -7 -21 -7t-19 10.5t-8 29.5t19 29l229 138q16 13 32.5 13t29 -11t12.5 -23q0 -5 -3 -9q-42 -54 -84 -189q-28 -91 -28 -177q0 -115 54 -115h6
q51 6 120.5 85t140.5 246q15 62 35.5 99t49.5 37h2q15 0 24.5 -11t9.5 -27.5t-3 -30t-28.5 -73t-30.5 -99.5t-5 -74q0 -152 53 -152h5q37 5 82 51q113 117 190 318q-60 15 -94 61.5t-34 101.5t36.5 93t104.5 38q46 -1 73 -39t27 -105q0 -37 -11 -89q50 14 116 59
q11 8 22.5 8t19.5 -9t8 -21q0 -15 -15 -27q-92 -63 -169 -74q-24 -72 -65 -147q-71 -126 -137 -204q-79 -92 -166 -96h-1q-60 0 -89 62.5t-31 158.5q-124 -216 -252 -221h-2q-134 0 -134 203z" />
    <glyph glyph-name="X" unicode="X" horiz-adv-x="597" 
d="M125 507q-34 0 -121 -80q-7 -5 -15.5 -5t-17.5 9t-9 20t9 20q105 108 188 108t117 -90l69 -181q118 147 211 277q18 22 37.5 22t29.5 -8.5t10 -23.5q0 -27 -32 -59q-88 -90 -233 -270l70 -184q27 -68 56 -68q18 0 41 22l110 103q2 2 8 2t17 -10t11 -18.5t-5 -13.5
l-110 -107q-63 -63 -110 -63q-57 0 -98 97l-62 150q-48 -57 -78 -97q-79 -98 -128.5 -126.5t-110.5 -28.5q-19 0 -29.5 13.5t-10.5 31.5t9 31t23 13q63 0 110.5 26.5t106.5 96.5q12 15 40 48.5t43 52.5l-98 235q-12 29 -22 42t-26 13z" />
    <glyph glyph-name="Y" unicode="Y" horiz-adv-x="564" 
d="M248 -269q10 0 28 25q44 61 93 203q-140 -145 -140 -200q0 -28 19 -28zM598 562q0 -12 -5 -34l-94 -377q88 73 150 115q5 3 12 3t14 -10t7 -21t-7 -17q-101 -71 -199 -160q-58 -217 -111 -309t-140 -92q-30 0 -47.5 19t-17.5 47q0 116 242 341q8 27 15 57
q-103 -103 -197 -103q-68 0 -109 57t-41 155q0 154 103 343q18 30 47.5 30t29.5 -17q0 -3 -2 -9q-94 -233 -94 -362q0 -67 24 -99t66 -32t94 33.5t95 88.5l83 340q10 46 40 46q42 0 42 -33z" />
    <glyph glyph-name="Z" unicode="Z" horiz-adv-x="585" 
d="M715 33q0 -24 -23 -38q-96 -60 -189 -60q-65 0 -133 27q-35 15 -57 25.5t-63.5 33t-56.5 30.5l-86 -51q-4 -1 -11 -1q-21 0 -35 17q-2 2 -2 7q0 26 80 106q3 3 63.5 67t108.5 112.5t126 118t144 116.5q3 3 4 3q-158 5 -205 5q-158 0 -222 -37q-31 -19 -47 -38t-27 -46
q-6 -14 -31 -14t-25 23q0 5 1 8q21 93 83 141q27 21 66 34t79.5 18t98 5t186 -8.5t185 -10t56.5 -36.5q0 -27 -26.5 -36t-72.5 -10q-96 -80 -242 -231q-46 -47 -117 -123t-76 -81l4 -8q33 -18 71 -36q8 -4 29.5 -15t30 -14.5t26 -11t27.5 -10t27.5 -7.5t45.5 -5q69 0 154 58
q12 7 23 7t19.5 -9.5t8.5 -24.5z" />
    <glyph glyph-name="bracketleft" unicode="[" horiz-adv-x="316" 
d="M183 2h88q15 0 26 -8t11 -22.5t-13 -25.5t-30 -11h-112q-49 0 -49 29q0 13 1 18l15 106q45 328 61 423q6 36 19 47.5t42 11.5h119q16 0 25 -9t9 -24t-11.5 -25t-26.5 -10h-101z" />
    <glyph glyph-name="backslash" unicode="\" horiz-adv-x="426" 
d="M360 -13q-46 0 -64 35q-50 100 -129.5 289.5t-103.5 242.5q-10 26 -10 43t10 28.5t33 11.5t38 -21q8 -12 12.5 -21t11 -26t80 -178.5t134.5 -298.5q24 -55 24 -73q0 -32 -36 -32z" />
    <glyph glyph-name="bracketright" unicode="]" horiz-adv-x="316" 
d="M220 502h-89q-14 0 -25 8t-11 22.5t13 26t30 11.5h112q49 0 49 -29q0 -14 -1 -19l-15 -105q-49 -358 -57.5 -409t-22 -62t-42.5 -11h-119q-33 0 -33 33q0 15 11 24.5t26 9.5h101z" />
    <glyph glyph-name="asciicircum" unicode="^" horiz-adv-x="372" 
d="M67 172q-5 0 -20 14.5t-15 29.5t19 48q9 15 35 64t43 80q28 51 65 51q48 0 75 -53q81 -164 81 -196q0 -14 -9 -25t-22 -11q-31 0 -51 45l-70 165l-89 -178q-7 -13 -22 -23.5t-20 -10.5z" />
    <glyph glyph-name="underscore" unicode="_" horiz-adv-x="426" 
d="M44 0q-20 0 -33 9.5t-13 25.5t7 25q14 17 76 17h324q28 0 28 -21q0 -56 -84 -56h-305z" />
    <glyph glyph-name="grave" unicode="`" horiz-adv-x="208" 
d="M124 407q-11 0 -20 9l-119 113q-14 13 -14 29t14 29t32 13t30 -19l86 -141q7 -10 7 -18q0 -15 -16 -15z" />
    <glyph glyph-name="a" unicode="a" horiz-adv-x="350" 
d="M21 104q0 90 64.5 160.5t137.5 70.5q41 0 41 -21v-6h23q28 0 28 -26v-6l-28 -172q-1 -4 -1 -11q0 -24 17 -24q38 0 90 67q7 9 14 9q10 0 17 -15.5t7 -27t-2 -17.5q-23 -32 -60 -58.5t-70.5 -26.5t-52 17.5t-22.5 47.5v-2q-17 -32 -45 -50q-29 -18 -69 -18t-64.5 30.5
t-24.5 78.5zM134 65q27 0 51.5 30t33.5 66l27 112q-58 0 -104 -55t-46 -104t38 -49z" />
    <glyph glyph-name="b" unicode="b" horiz-adv-x="383" 
d="M187 60q51 0 76 72q-28 12 -28 45q0 14 11.5 27t27.5 17v3q0 21 -9 31t-36 10q-42 0 -72 -38.5t-30 -85.5q0 -81 60 -81zM356 567q-5 -60 -54 -146t-99 -125l11 7q29 20 72 20q23 0 44 -26t21 -67q0 -27 -3 -51q28 4 61.5 25.5t36.5 21.5q22 0 22 -26q0 -16 -12 -27
q-41 -40 -119 -48q-40 -130 -159 -130q-62 0 -101 38t-39 100v7q4 113 36 230t91 201.5t128 84.5q33 0 48.5 -21.5t15.5 -53.5zM266 574q-29 0 -62 -61.5t-53.5 -131t-26.5 -117.5q26 33 43 56q6 9 22 30.5t23 33t20 31.5q46 75 50 128v8q0 23 -16 23z" />
    <glyph glyph-name="c" unicode="c" horiz-adv-x="274" 
d="M22 132q0 73 48 135.5t121 62.5q42 0 67.5 -23.5t25.5 -54.5t-19 -57t-33 -26t-21 8.5t-7 16.5t6.5 20.5t6.5 25.5t-9 19.5t-21 6.5q-32 0 -61.5 -35t-29.5 -100q0 -37 21 -58t55 -21q71 0 153 90q6 6 13 6t13.5 -8.5t6.5 -18t-4 -16.5q-29 -45 -79.5 -78t-118 -33
t-109.5 55q-25 33 -25 83z" />
    <glyph glyph-name="d" unicode="d" horiz-adv-x="385" 
d="M22 114q0 82 52 149.5t119 67.5q17 0 35 -6q46 332 186 332q30 0 50.5 -20t22.5 -47q1 -7 1 -21q0 -88 -51 -181q-28 -52 -44.5 -79t-57.5 -86t-47 -68v-9q0 -86 46 -86q52 0 108 73q5 5 16 5t21 -9t10 -21t-8 -23q-69 -88 -155 -88q-67 0 -98 69q-29 -71 -105 -71
q-43 0 -72 33t-29 86zM139 65q28 0 45.5 26.5t27.5 96.5l12 76q-53 0 -88 -44t-35 -98v-11q3 -46 38 -46zM399 574q-33 0 -53 -54q-11 -27 -22.5 -66.5t-33.5 -201.5q4 6 8 14q2 2 24 36.5t39 64.5t37 81t20 88.5t-19 37.5z" />
    <glyph glyph-name="e" unicode="e" horiz-adv-x="288" 
d="M22 129q0 74 48.5 137.5t117.5 63.5q41 0 68 -23t27 -62q0 -55 -45 -89t-136 -53q14 -43 72 -43q80 0 151 68q4 4 12.5 4t16 -7t7.5 -17t-7 -20q-25 -35 -79 -64.5t-112.5 -29.5t-99.5 34.5t-41 100.5zM127 227.5q-30 -37.5 -30 -80.5q125 43 125 90q0 28 -32.5 28
t-62.5 -37.5z" />
    <glyph glyph-name="f" unicode="f" horiz-adv-x="253" 
d="M222.5 -80.5q-0.5 -12.5 -3 -41.5t-19.5 -63q-25 -50 -101 -56h-5q-76 0 -76 180q0 149 36 327q19 98 47.5 179t73.5 135t99 54q32 0 50 -21.5t18 -62.5t-18 -91q-35 -100 -165 -253q15 -5 35 -5t41 3q7 1 16.5 4t14 4.5t15 6.5t13.5 7t15.5 9t16.5 9.5t7 2.5
q12 0 12 -24t-15 -40q-30 -33 -148 -37q16 -34 28.5 -90t12.5 -90t-0.5 -46.5zM110 -177q50 0 50 114q0 64 -17 134t-40 108q0 -5 -5.5 -101t-5.5 -137q0 -118 18 -118zM261 558q-22 0 -43.5 -29.5t-38 -77t-28.5 -89t-21.5 -84t-10.5 -44.5q25 29 54.5 67.5t67 107.5
t37.5 109t-17 40z" />
    <glyph glyph-name="g" unicode="g" horiz-adv-x="344" 
d="M332 271l-56 -237q103 84 144 84q9 0 19.5 -9.5t10.5 -25.5t-22 -27q-116 -63 -161 -93q-36 -163 -80 -215q-56 -65 -124 -65q-83 0 -83 68q0 18 6 31q3 8 5.5 14.5t8 14.5t8.5 12.5t10 13.5t9.5 12t10.5 11.5t22.5 25.5t59.5 50q16 13 42.5 32.5t39.5 29.5l10 48
q-13 -19 -40 -32.5t-52 -13.5q-42 0 -67.5 27.5t-25.5 68.5q0 92 64 161.5t145 69.5h4q17 0 26 -7.5t9 -16.5q9 4 23 4t24.5 -8.5t10.5 -21.5zM142 65q60 0 87 97l27 102q-60 0 -104.5 -51t-44.5 -99.5t35 -48.5zM58 -263q51 0 89 67.5t51 131.5q-10 -9 -31.5 -27
t-32.5 -27.5t-28.5 -25t-26.5 -26t-23 -29.5t-14 -43q0 -21 16 -21z" />
    <glyph glyph-name="h" unicode="h" horiz-adv-x="379" 
d="M31 71q0 21 2 43q9 171 67 353q30 91 80.5 150.5t111.5 59.5q36 0 57 -22t21 -58v-7q-8 -66 -61.5 -147t-181.5 -196l-18 -100q49 86 111.5 134.5t89.5 48.5t42 -11.5t15 -24.5t-5 -27.5t-36 -86.5t-31 -104q0 -10 11.5 -10t50.5 23t72 50q5 3 12.5 3t15 -12t7.5 -30.5
t-20 -32.5q-101 -68 -178 -68q-18 0 -33.5 15t-15.5 49t24 95t24 65t-3 4q-5 0 -16 -8q-37 -27 -78 -79.5t-53 -87t-20 -44t-28 -9.5t-28 18.5t-8 53.5zM269 596q-46 0 -95 -133q-26 -71 -38 -140q60 63 107 135.5t47 116.5q0 21 -21 21z" />
    <glyph glyph-name="i" unicode="i" 
d="M39 96q0 44 16 103.5t32 88.5t27.5 34.5t26 5.5t25 -7t10.5 -15t-11.5 -28t-29.5 -78t-18 -93q0 -47 35 -47q42 0 101 68q8 10 19.5 10t21 -8.5t9.5 -20t-11 -25.5q-74 -87 -154 -87q-45 0 -72 27.5t-27 71.5zM186 394q-54 0 -54 47q0 25 17.5 39.5t44.5 14.5
q50 0 50 -45q0 -26 -16 -41t-42 -15z" />
    <glyph glyph-name="j" unicode="j" horiz-adv-x="221" 
d="M80 -208q-73 0 -73 130q0 168 80 358q12 28 26.5 38t47.5 10q20 0 20 -20t-22 -67l-24 -55q80 12 117 22q30 9 46.5 16t21.5 7q12 0 12 -20q0 -78 -143 -80q19 -63 19 -115t-12 -101t-42.5 -86t-73.5 -37zM81 -85q0 -46 17 -46q22 0 33.5 46t11.5 97q0 41 -20 141
q-33 -126 -41 -218zM186 394q-54 0 -54 47q0 25 17.5 39.5t44.5 14.5q50 0 50 -45q0 -26 -16 -41t-42 -15z" />
    <glyph glyph-name="k" unicode="k" horiz-adv-x="432" 
d="M240 72q0 26 17.5 50t38 39t39 31t19 30t-11.5 14q-33 0 -70 -37.5t-64 -82.5t-61.5 -82.5t-63.5 -37.5q-37 0 -37 83q0 124 33 267q19 83 46.5 150.5t73.5 113.5t103 46q33 0 51.5 -21t18.5 -61t-31 -101.5t-75 -116.5q-89 -108 -137 -149q-15 -87 -15 -130
q137 245 256 245q32 0 49.5 -18t17.5 -49.5t-19 -58.5t-42 -42q-63 -38 -70 -77v-5q0 -19 30 -19t68 30q33 25 58 60q5 8 14.5 8t17.5 -11t8 -21.5t-5 -18.5q-25 -39 -76 -73t-89 -34t-65 19t-27 60zM278 574q-40 0 -81 -94t-55 -184q64 74 101 126q28 39 40.5 71t12.5 56.5
t-18 24.5z" />
    <glyph glyph-name="l" unicode="l" horiz-adv-x="249" 
d="M155 -3q-50 0 -77 40.5t-27 110.5q0 21 1 32q13 145 76 302q31 75 77 124.5t97 49.5q30 0 48 -19.5t18 -48.5v-8q-10 -101 -82 -211t-159 -178q-4 -32 -4 -49q0 -81 48 -81q50 0 111 70q7 7 17.5 7t20 -8.5t9.5 -21t-12 -25.5q-76 -86 -162 -86zM277 574
q-42 0 -84.5 -107t-57.5 -203q59 66 108.5 150t50.5 140q0 20 -17 20z" />
    <glyph glyph-name="m" unicode="m" horiz-adv-x="527" 
d="M209 52q0 50 37 192q-59 -85 -109 -186q-13 -27 -24.5 -40.5t-17.5 -15.5t-17 -2q-39 0 -39 63q0 116 39 233q11 34 38 34q10 0 18 -6t8 -14t-1 -11q-25 -81 -37 -185q44 110 88 162t76 52q14 0 25 -8t11 -22q0 -46 -32 -172q77 203 161 203q45 0 45 -45
q0 -29 -24.5 -98.5t-24.5 -106.5q0 -26 24 -26q7 0 10 1q26 6 92 70q4 4 12 4t18.5 -9.5t10.5 -14t-2 -8.5q-32 -44 -78.5 -71t-80.5 -27h-2q-32 0 -50 19.5t-18 49.5v9q5 46 45 173q-44 -37 -125 -216q-16 -33 -37 -33q-39 0 -39 52z" />
    <glyph glyph-name="n" unicode="n" horiz-adv-x="366" 
d="M309 67q38 8 92 59q4 4 11.5 4t16 -13.5t8.5 -21t-2 -11.5q-32 -41 -80 -63t-80 -22q-58 0 -58 63q0 33 20 95t20 66.5t-2 4.5h-1q-17 -7 -71.5 -79.5t-66.5 -102.5t-20.5 -38.5t-27.5 -8.5q-37 1 -37 76q2 106 44 219q13 36 44 36q12 0 20 -8t8 -16.5t-1 -11.5
q-23 -66 -37 -148q52 90 102 137.5t89 47.5q20 0 35 -12.5t15 -26.5q0 -22 -25.5 -99.5t-27.5 -91.5t-2 -24.5t6.5 -10t7.5 0.5z" />
    <glyph glyph-name="o" unicode="o" horiz-adv-x="315" 
d="M128 -5q-50 0 -82 36t-32 90q0 82 53.5 145.5t125.5 63.5q42 0 70.5 -30t28.5 -76q0 -10 -4 -32q65 12 129 84q4 4 10.5 4t13.5 -9.5t7 -19t-4 -13.5q-67 -83 -166 -110q-33 -133 -150 -133zM143 59q26 0 48.5 29t25.5 58q-37 16 -37 41t26 50q-1 13 -6.5 19t-15.5 6
q-38 0 -65 -44.5t-27 -92.5q0 -66 51 -66z" />
    <glyph glyph-name="p" unicode="p" horiz-adv-x="348" 
d="M-19 -197q3 33 26 149.5t26.5 128t17.5 57t35 88.5q17 34 36 54.5t50 35t73.5 14.5t65.5 -29.5t23 -75.5q0 -11 -2 -31q50 11 132 88q6 3 12 3t11.5 -8t5.5 -21t-11 -21q-25 -30 -75 -63t-92 -43q-22 -58 -64 -96t-94 -38q-31 0 -59 26q-3 -12 -21.5 -111t-23.5 -113
t-24 -25.5t-34 -11.5l-7 10q-8 11 -8 21zM160 62q26 0 49.5 20t38.5 52q-25 12 -25 42q0 17 5.5 27.5t24.5 25.5q2 4 4 5q-12 31 -35 31t-40.5 -13t-29.5 -38t-18.5 -45t-14 -50t-9.5 -37q24 -20 50 -20z" />
    <glyph glyph-name="q" unicode="q" horiz-adv-x="372" 
d="M467 243q0 -6 -3 -12q-22 -43 -76.5 -97t-92.5 -63l-92 -327q-7 -23 -27 -23t-35.5 10.5t-15.5 22.5q0 3 27.5 86.5t45.5 151.5q-15 -3 -30 -3q-61 0 -95 44.5t-34 113.5t46.5 126.5t129.5 60.5q49 0 89.5 -20.5t40.5 -41.5q0 -36 -25 -121q53 39 102 110q7 10 18 10
t19 -8.5t8 -19.5zM189 49q5 0 21 2q1 3 2.5 8t2.5 7q-9 12 -9 28t8.5 30t24.5 18q30 101 30 124q0 4 -16.5 8t-31.5 4q-47 0 -77 -43.5t-30 -89t19 -71t56 -25.5z" />
    <glyph glyph-name="r" unicode="r" horiz-adv-x="317" 
d="M103 126q18 57 67.5 130t80.5 73q44 0 44 -34q0 -22 -10.5 -50.5t-10.5 -34.5q0 -15 21.5 -15t70.5 29q2 1 8 1t15.5 -11t9.5 -19.5t-4 -12.5q-60 -54 -117 -54q-68 0 -68 58q0 2 16 65q-1 0 -16 -24q-47 -78 -92 -201q-13 -26 -43 -26q-41 0 -41 66v8q0 108 31 211
q15 45 48 45q13 0 21 -8t8 -20z" />
    <glyph glyph-name="s" unicode="s" horiz-adv-x="292" 
d="M176 -5q-62 0 -108.5 24.5t-64.5 61.5q44 76 117 226q16 31 46 31q15 0 25.5 -9.5t10.5 -24.5q0 -14 -6 -24t-6 -20t22 -37t43.5 -60t21.5 -57.5t-11 -42.5q46 15 98 80q6 6 14.5 6t19 -13.5t10.5 -23t-4 -17.5q-29 -45 -87 -72.5t-141 -27.5zM151 52h4q50 0 50 45
t-48 116l-66 -134q35 -27 60 -27z" />
    <glyph glyph-name="t" unicode="t" horiz-adv-x="260" 
d="M49 162v11q-13 -9 -22.5 -9t-16 8.5t-6.5 21t12 19t38 18.5q17 133 70 253q27 61 67 100.5t78 39.5t54.5 -19t16.5 -46v-7q-6 -74 -55.5 -147t-116.5 -128q83 28 106 28q8 0 15.5 -8.5t7.5 -22.5t-17 -17q-51 -8 -156 -51q-2 -32 -2 -50q0 -95 41 -95q48 0 111 70
q7 7 17.5 7t20 -8.5t9.5 -21t-12 -25.5q-77 -86 -155 -86q-58 0 -81.5 43.5t-23.5 121.5zM263 541q-28 0 -56 -42q-52 -77 -71 -196q2 2 24.5 27t28 31t24 28.5t24.5 34.5t16.5 32t14 38t3.5 32t-8 15z" />
    <glyph glyph-name="u" unicode="u" horiz-adv-x="347" 
d="M332 297q-35 -105 -45 -199l-1 -12q0 -23 14 -23q32 2 83 58q13 10 21.5 10t20.5 -11.5t12 -21.5q0 -23 -61.5 -62.5t-98.5 -39.5q-59 0 -60 59l3 31q-11 -31 -42 -61t-74 -30t-64.5 29t-21.5 75q0 60 20.5 125t32.5 85.5t31.5 20.5t29.5 -7.5t10 -14t-24 -73.5t-28 -118
v-7q0 -49 34 -49q27 0 55.5 31.5t44.5 86.5l27 100q10 33 19.5 42t25 9t26.5 -9t11 -20z" />
    <glyph glyph-name="v" unicode="v" horiz-adv-x="330" 
d="M129 115.5q5 -27.5 9.5 -39t5.5 -11.5l13 10q13 10 34.5 39t38.5 67v16q0 64 24.5 98.5t52.5 34.5q12 0 20.5 -7.5t8.5 -24.5t-28 -89q79 14 126 79q6 9 16.5 9t19.5 -10.5t9 -20.5t-3 -16q-22 -39 -81 -71t-112 -32h-3q-58 -111 -133 -150q-11 -6 -21 -6q-33 0 -59 47
t-26 118t23 147q8 26 35 26q15 0 27 -9t12 -22q-14 -70 -14 -112.5t5 -70z" />
    <glyph glyph-name="w" unicode="w" horiz-adv-x="576" 
d="M479 290q0 -36 37 -56q12 34 12 55q0 36 -23 36q-11 0 -18.5 -10.5t-7.5 -24.5zM560 170q-39 -90 -102 -142q-50 -41 -102 -41q-69 0 -85 82q-51 -80 -117 -80q-49 0 -78.5 33.5t-29.5 90t25 106.5q12 24 21 40t21 33.5t13 18.5q17 25 35 25t29.5 -10.5t11.5 -17
t-2 -10.5q-11 -13 -16.5 -21t-13.5 -19q-48 -70 -48 -138q0 -64 39 -64q50 0 109 135l16 36q24 89 52 89h3q35 0 35 -22q0 -16 -24 -66q-31 -65 -31 -115q0 -60 41 -60q33 0 67 33.5t56 82.5q4 6 10 18q-36 18 -56.5 49t-20.5 64.5t23.5 57t66.5 23.5q36 -2 57.5 -28.5
t21.5 -64.5t-8 -66q42 2 97 20q8 5 16.5 5t15.5 -8.5t7 -22.5t-15 -19q-66 -28 -124 -28z" />
    <glyph glyph-name="x" unicode="x" horiz-adv-x="326" 
d="M155 80q-16 -22 -52 -77q-11 -17 -26.5 -17t-27 13t-11.5 29.5t21 31t67 68.5q-12 20 -40.5 71t-47.5 83q-4 10 -4 18t12.5 17.5t24 9.5t14.5 -6q19 -31 46 -78.5t36 -62.5l96 122q26 32 64 32q23 0 38.5 -12.5t15.5 -38t-17 -25.5q-5 0 -21.5 5t-30.5 5t-27 -17
l-89 -118q49 -80 84 -80q17 0 32 10.5t23.5 21.5t21.5 30t20 28t17 9t15.5 -8t5.5 -19.5t-3.5 -17t-14.5 -27t-29 -45.5q-34 -45 -83 -45q-69 0 -130 90z" />
    <glyph glyph-name="y" unicode="y" horiz-adv-x="346" 
d="M61 -317q-83 0 -83 68q0 18 6 31q3 8 5.5 14.5t8 14.5t8.5 12.5t10 13.5t9.5 12t10.5 11.5t9 10.5q33 38 103 85q37 24 50 34l30 87q-17 -33 -50 -55t-65.5 -22t-57 27.5t-24.5 68.5q0 97 48 188q7 13 21 22.5t26 9.5t21 -6.5t9 -20t-12 -35.5q-6 -12 -8 -18
q-25 -84 -25 -129.5t35 -45.5q53 0 83 101l29 104q12 45 46 45q30 0 30 -19q0 -27 -18.5 -105.5t-30.5 -151.5q99 72 165 106q6 3 14 3t17 -9.5t9 -25.5t-21 -29q-166 -98 -195 -117q-15 -84 -42 -149q-17 -42 -38 -68t-55.5 -44.5t-77.5 -18.5zM73 -259q22 0 43 19
q42 41 70 159q-44 -26 -89.5 -79.5t-45.5 -76t22 -22.5z" />
    <glyph glyph-name="z" unicode="z" horiz-adv-x="235" 
d="M220 317q15 0 25 -8.5t10 -19.5q0 -36 -13.5 -50.5t-169.5 -154.5q0 -12 12.5 -20t36.5 -8q65 0 168 61q1 1 5.5 1t9 -8.5t4.5 -22.5t-11 -22q-94 -70 -188 -70q-48 0 -77.5 20t-29.5 54.5t38 67.5l149 126q-100 -8 -146 -8q-6 0 -12 11.5t-6 24.5q0 25 25 25z" />
    <glyph glyph-name="braceleft" unicode="{" horiz-adv-x="394" 
d="M122 322q37 0 52 17t17 54q8 143 36 200t106 57q55 0 103 -27q10 -6 10 -19t-6 -21.5t-13 -8.5t-31.5 9t-52.5 9q-47 0 -61 -48q-12 -42 -19 -172q-4 -72 -75 -91q56 -26 56 -81q0 -27 -7.5 -80.5t-7.5 -78.5t1 -35.5t8 -22.5t21.5 -15.5t41.5 -3.5l31 1q23 0 23 -26.5
t-17 -28.5q-26 -3 -48 -3q-73 0 -104 31.5t-31 95.5q0 24 7.5 76.5t7.5 82t-14.5 42t-64.5 16.5q-25 3 -25 37.5t34 34.5z" />
    <glyph glyph-name="bar" unicode="|" horiz-adv-x="426" 
d="M176 -28l159 683q10 39 40 39q13 0 22 -9.5t9 -19.5t-2 -20l-157 -669q-11 -49 -42 -49q-12 0 -21 9.5t-9 20.5t1 15z" />
    <glyph glyph-name="braceright" unicode="}" horiz-adv-x="426" 
d="M373 217q-38 0 -53 -17t-17 -54q-8 -144 -36 -200.5t-107 -56.5q-58 0 -102 27q-10 6 -10 18.5t6 21t13 8.5t37 -8.5t50 -8.5h11q32 5 43.5 47.5t18.5 172.5q4 71 78 90q-59 26 -59 81q0 28 7.5 81t7.5 87.5t-14 51.5t-61 17l-24 -1q-11 0 -17.5 9t-6.5 20q0 23 18 25
q27 3 50 3q71 0 101.5 -31.5t30.5 -95.5q0 -24 -7 -76t-7 -81.5t14.5 -42t64.5 -16.5q24 -3 24 -37.5t-32 -34.5z" />
    <glyph glyph-name="asciitilde" unicode="~" horiz-adv-x="295" 
d="M249 442q-25 0 -43 16q-6 6 -17 18.5t-14 15.5l-35 35l-14 -20q-13 -20 -23.5 -28t-23.5 -8t-21 6.5t-8 18.5q0 30 27 59.5t54.5 29.5t44.5 -16q6 -5 18 -18t14 -15l35 -35q3 3 14 21t22 26.5t24.5 8.5t21.5 -6.5t8 -18.5q0 -30 -27 -60t-57 -30z" />
    <glyph glyph-name="uni00A0" unicode="&#xa0;" 
 />
    <glyph glyph-name="exclamdown" unicode="&#xa1;" horiz-adv-x="376" 
d="M109 -167q0 19 25 84l130 334q8 24 24 24q7 0 12 -5t5 -11l-1 -4l-95 -413q-12 -47 -56 -47t-44 38zM317 443q56 0 56 -55q0 -30 -16.5 -48t-45.5 -18q-55 0 -55 56q0 29 16 47t45 18z" />
    <glyph glyph-name="cent" unicode="&#xa2;" horiz-adv-x="306" 
d="M146 0q-58 1 -91 40t-33 106.5t43.5 120t108.5 60.5l2 23q1 15 9 26.5t18 11.5t14 -9t4 -17.5t-3 -35.5q36 -5 60.5 -24.5t24.5 -48t-10 -48t-26.5 -19.5t-23 10.5t-6.5 23.5q0 36 -24 42q-11 -173 -13 -193q27 8 50 24t30.5 16t14.5 -11.5t7 -23t-10 -19.5
q-53 -43 -98 -53l-6 -46q-4 -24 -28 -24q-14 0 -16 23zM109 142q0 -66 43 -76q2 31 8 95t8 95q-59 -24 -59 -114z" />
    <glyph glyph-name="sterling" unicode="&#xa3;" horiz-adv-x="514" 
d="M279 74q0 -7 70 6t95 13t41.5 -9t16.5 -26q0 -33 -34 -44q-18 -5 -30.5 -7t-38.5 -4t-65.5 -7.5t-86.5 -5.5q-71 0 -71 56q0 21 11 54q2 25 13.5 80t14.5 83h-40q-17 0 -26.5 10.5t-9.5 26.5q0 39 44 39h39q0 111 49 179t147 68q126 0 126 -108q0 -20 -9.5 -32.5
t-26.5 -12.5q-36 0 -36 35q0 19 -13 26.5t-41 7.5q-109 0 -109 -163h82q54 0 54 -42q0 -34 -54 -34h-86z" />
    <glyph glyph-name="currency" unicode="&#xa4;" horiz-adv-x="503" 
d="M50 130q-12 0 -20 10t-8 24.5t26 32.5l53 36q-16 31 -16 79q0 86 51 147l-33 29q-20 18 -20 31.5t11 24.5t23.5 11t30.5 -15l41 -37q38 23 92.5 23t90.5 -26q4 2 21 15.5t30 20.5t25.5 7t21 -10t8.5 -24.5t-27 -31.5l-39 -28q12 -29 12 -65q0 -100 -62 -169l34 -30
q20 -18 20 -30.5t-11 -24t-23 -11.5q-20 0 -42 20q-7 7 -18.5 19t-14.5 15q-38 -19 -83.5 -19t-83.5 29q-69 -53 -90 -53zM238 221q53 0 81 49.5t28 114.5q0 34 -17 55t-48 21q-59 0 -90 -43t-31 -110q0 -40 20 -63.5t57 -23.5z" />
    <glyph glyph-name="yen" unicode="&#xa5;" horiz-adv-x="528" 
d="M407 132h-84l-37 -115q-5 -15 -20 -24t-31 -9t-26 8t-10 20.5t11.5 41t22.5 78.5h-45q-48 0 -48 30q0 25 48 25h60l8 32h-53q-50 0 -50 31q0 24 50 24h51l-77 252q-2 5 -2 20t12.5 27t29.5 12q30 0 40 -34q9 -29 35.5 -135.5t31.5 -132.5q31 45 87 137.5t79 127.5
q16 23 35.5 23t31.5 -10.5t12 -25.5t-18.5 -38.5t-83 -115.5t-74.5 -107h40q48 0 48 -22q0 -33 -65 -33h-60l-12 -32h79q47 0 47 -22q0 -33 -63 -33z" />
    <glyph glyph-name="brokenbar" unicode="&#xa6;" horiz-adv-x="350" 
d="M142 -55q-37 0 -37 68q0 36 19 130q9 41 13 65q6 48 45 48q20 0 31 -16.5t11 -45t-31 -216.5q-5 -33 -51 -33zM210 322q-20 0 -32.5 16.5t-12.5 31.5t8.5 87t22.5 134q10 43 40 43q40 0 40 -64q0 -40 -12 -114.5t-13 -83.5q-6 -50 -41 -50z" />
    <glyph glyph-name="section" unicode="&#xa7;" horiz-adv-x="492" 
d="M148 77q0 -29 25.5 -42.5t57.5 -13.5t53 13.5t21 39t-21 45.5t-63 39.5t-47 22.5q-61 36 -61 84t52 81q-30 28 -30 63q0 50 47.5 75.5t106.5 25.5t99.5 -33t40.5 -83q0 -23 -10 -38t-25 -15t-23.5 8t-8.5 20l3 24q0 27 -24.5 41t-53.5 14t-47.5 -11t-18.5 -29.5t17 -32
t49.5 -28.5t48 -23t32 -19t34.5 -36t18 -55q0 -50 -46 -86q17 -26 17 -60q0 -53 -47 -80.5t-111 -27.5q-66 0 -111 29.5t-45 86.5q0 25 13.5 44.5t39 19.5t25.5 -18zM207.5 238q18.5 -14 53 -28.5t35.5 -15.5l30 -18q18 18 18 38.5t-23 37.5q-12 8 -19.5 12.5t-24.5 12.5
t-24 11t-42 23q-22 -20 -22 -39.5t18.5 -33.5z" />
    <glyph glyph-name="dieresis" unicode="&#xa8;" horiz-adv-x="350" 
d="M45 428q-47 0 -47 44q0 25 15.5 38t34.5 13q49 0 49 -44q0 -25 -16.5 -38t-35.5 -13zM241 428q-48 0 -48 48q0 22 15 34.5t34 12.5q50 0 50 -48q0 -23 -15.5 -35t-35.5 -12z" />
    <glyph glyph-name="copyright" unicode="&#xa9;" horiz-adv-x="612" 
d="M321 323q0 14 -8 14q-31 0 -46 -32t-15 -74q0 -62 47 -62q27 0 75 30q2 1 8.5 1t12 -10t5.5 -22t-8 -18q-57 -40 -108 -40q-54 0 -80.5 33t-26.5 92.5t33 110t97 50.5q34 0 56 -18.5t22 -46t-11.5 -45.5t-33 -18t-21.5 25zM287 65q92 0 149 62.5t57 157.5q0 74 -44.5 113
t-122.5 39q-99 0 -162.5 -60t-63.5 -156q0 -75 51.5 -115.5t135.5 -40.5zM285 11q-110 0 -179 56.5t-69 157.5q0 122 85.5 194.5t215.5 72.5q101 0 159.5 -54t58.5 -151q0 -125 -77 -200.5t-194 -75.5z" />
    <glyph glyph-name="ordfeminine" unicode="&#xaa;" horiz-adv-x="317" 
d="M243 273q-21 0 -33 12.5t-22 36.5q-41 -48 -92 -48q-34 0 -54 24t-20 60q0 64 34.5 116.5t84.5 74.5q19 9 34.5 9t25 -11t26 -11t24 -4.5t7.5 -26t-9 -65.5t-9 -71.5t12 -27.5q26 0 49 23q6 6 20 26.5t15 22.5l14 -66q-54 -74 -107 -74zM121 331q36 0 50 84l18 86
q-38 0 -64.5 -43t-26.5 -85t23 -42z" />
    <glyph glyph-name="guillemotleft" unicode="&#xab;" horiz-adv-x="492" 
d="M92 132q-27 25 -27 48t14.5 43.5t29 31.5t41.5 27t32 19.5t15 12.5t16 13.5t16.5 9t23.5 4.5t24.5 -10t11.5 -22t-5 -19q-2 -3 -3.5 -5.5t-6 -6t-6 -5t-7 -5t-6.5 -4.5l-111 -78l91 -79l15 -11q16 -12 22 -20.5t6 -21.5t-11 -21.5t-25 -8.5q-39 0 -150 108zM289 132
q-26 23 -26 47t14.5 44.5t28.5 31t41 27.5t32 20t15 12t16 13.5t16.5 9t23.5 4.5t24.5 -10t11.5 -22t-4 -19q-3 -3 -4.5 -5.5t-6 -6t-6 -5t-7 -5t-6.5 -4.5l-112 -78l93 -79q2 -1 16 -11.5t20 -19.5t6 -22t-11 -21.5t-25 -8.5q-39 0 -150 108z" />
    <glyph glyph-name="logicalnot" unicode="&#xac;" horiz-adv-x="416" 
d="M312 75q-31 0 -31 40q0 3 5 82h-186q-18 0 -30 8t-12 23.5t14 25t33 9.5h216q33 0 33 -27l-7 -115q-4 -46 -35 -46z" />
    <glyph glyph-name="uni00AD" unicode="&#xad;" 
d="M293 365q32 0 32 -26q0 -22 -29 -26q-60 -8 -102 -19t-54.5 -16.5t-30 -14t-27 -8.5t-17.5 10t-8 24q0 62 236 76z" />
    <glyph glyph-name="registered" unicode="&#xae;" horiz-adv-x="623" 
d="M234 313l36 114l85 4q95 0 95 -70q0 -63 -74 -86l18 -133v-5q0 -13 -8.5 -20.5t-20.5 -7.5t-22 7t-11 20l-9 71q-7 55 -8 60h-34l-30 -116q-7 -28 -29 -28q-12 0 -21 9t-9 18t1 12l32 117q-19 11 -19 23.5t10 12.5zM356 477q-122 0 -185.5 -65t-63.5 -158t56.5 -139
t152.5 -46t155 72t59 177q0 78 -45 118.5t-129 40.5zM597 315q0 -72 -25.5 -131.5t-66.5 -95.5q-85 -75 -191 -75q-119 0 -193.5 63t-74.5 172q0 129 85 206.5t208.5 77.5t190.5 -55.5t67 -161.5zM335 385h-20l-21 -77q2 0 6 -0.5t6 -0.5q31 0 59.5 13t28.5 34q0 31 -59 31z
" />
    <glyph glyph-name="macron" unicode="&#xaf;" 
d="M90 425q-52 0 -89 -8t-41 -8q-25 0 -25 31q0 46 104 46q62 0 143 -12q27 -8 27 -26q0 -26 -30 -26z" />
    <glyph glyph-name="degree" unicode="&#xb0;" horiz-adv-x="251" 
d="M111 411q27 0 45 18.5t18 45.5q0 34 -40 34q-22 0 -41.5 -16.5t-19.5 -38.5t10 -32.5t28 -10.5zM111 360q-40 0 -64.5 24.5t-24.5 69t38.5 74.5t81.5 30t65 -21.5t22 -65.5t-33 -77.5t-85 -33.5z" />
    <glyph glyph-name="plusminus" unicode="&#xb1;" horiz-adv-x="514" 
d="M263 87q-33 0 -33 45v77h-77q-44 0 -44 33q0 16 13.5 24.5t32.5 8.5h75v78q0 17 10.5 29t25 12t22.5 -10t8 -25v-84h85q34 0 34 -30q0 -15 -11.5 -25.5t-28.5 -10.5h-79v-76q0 -19 -8.5 -32.5t-24.5 -13.5zM168 -38q-14 0 -21.5 9.5t-7.5 23.5t8 23.5t24 9.5h174
q35 0 35 -26q0 -14 -9.5 -24.5t-26.5 -11.5q-174 -4 -176 -4z" />
    <glyph glyph-name="uni00B2" unicode="&#xb2;" horiz-adv-x="417" 
d="M140 576q0 -13 5.5 -35.5t5.5 -28.5q0 -21 -30 -21q-55 0 -55 70t45.5 106.5t113 36.5t115.5 -43t48 -135q0 -118 -98 -227q26 -16 58 -16q9 0 19 9.5t15 9.5q12 0 12 -26t-14.5 -48.5t-45.5 -22.5q-12 0 -24 4q-6 2 -11 3.5t-11 5t-9.5 5.5t-10 7t-14.5 11t-11 9
q-53 -45 -97.5 -45t-74.5 26.5t-30 66t22.5 62.5t66.5 23t107 -43q71 70 71 177q0 122 -81 122q-32 0 -59.5 -17.5t-27.5 -45.5zM133 267q33 0 62 31q-31 21 -71 21q-24 0 -24 -22q0 -12 9 -21t24 -9z" />
    <glyph glyph-name="uni00B3" unicode="&#xb3;" horiz-adv-x="417" 
d="M374 592q0 -39 -24.5 -73t-70.5 -43q51 -13 77 -47t26 -81q0 -82 -49 -122t-119 -40q-112 0 -163 80q-6 9 -6 21.5t12.5 23.5t29.5 11t30 -19.5t42.5 -34t63 -14.5t57 23t23.5 69t-39.5 69t-98.5 23q-27 0 -27 30q0 28 44.5 28t76 21t31.5 53t-18 46.5t-44 14.5
q-45 0 -74 -32q-13 -14 -25 -14t-21.5 11t-9.5 21t4 15q52 63 141 63q57 0 94 -26.5t37 -76.5z" />
    <glyph glyph-name="acute" unicode="&#xb4;" horiz-adv-x="208" 
d="M260 569q0 -16 -14 -29l-120 -114q-10 -9 -20 -9q-15 0 -15 16q0 7 6 18l87 140q11 19 29.5 19t32.5 -12.5t14 -28.5z" />
    <glyph glyph-name="mu" unicode="&#xb5;" horiz-adv-x="347" 
d="M332 297q-35 -105 -45 -199l-1 -12q0 -23 14 -23q32 2 83 58q13 10 21.5 10t20.5 -11.5t12 -21.5q0 -23 -61.5 -62.5t-98.5 -39.5q-59 0 -60 59l3 31q-11 -31 -42 -61t-66 -30t-57 15l-24 -92q-12 -47 -42 -47q-12 0 -21 9t-9 20t1 15l71 279q19 82 42 119q10 17 29.5 17
t29.5 -7.5t10 -14t-24 -73.5t-28 -118v-7q0 -49 34 -49q27 0 55.5 31.5t44.5 86.5l27 100q10 33 19.5 42t25 9t26.5 -9t11 -20z" />
    <glyph glyph-name="paragraph" unicode="&#xb6;" horiz-adv-x="447" 
d="M147 -16l60 332q-57 0 -103.5 33t-46.5 88.5t42.5 92.5t94.5 51.5t113 14.5t109 -10q34 -6 50 -23t16 -43t-10 -70q-6 -23 -8 -33l-81 -442q-6 -30 -43 -30q-17 0 -29.5 9t-12.5 20.5t1 14.5l91 509q-20 4 -62 4l-99 -527q-6 -34 -39 -34q-17 0 -30.5 10.5t-13.5 26.5z
" />
    <glyph glyph-name="periodcentered" unicode="&#xb7;" horiz-adv-x="240" 
d="M210 0q-56 0 -56 55q0 30 16.5 48t45.5 18q58 0 58 -56q0 -30 -17 -47.5t-47 -17.5z" />
    <glyph glyph-name="cedilla" unicode="&#xb8;" horiz-adv-x="404" 
d="M229 11q0 -3 -1 -5l-45 -130q-11 -31 -38 -31q-13 0 -23 8.5t-10 20t8 22.5l86 118q8 9 13 9q10 0 10 -12z" />
    <glyph glyph-name="uni00B9" unicode="&#xb9;" horiz-adv-x="333" 
d="M212 616q-35 -13 -78 -23h-3q-8 0 -13 10.5t-5 24.5q0 31 16 35q35 11 149 34h5q16 0 16 -25q0 -5 -2 -19q-71 -367 -86 -437q-5 -22 -43 -22t-38 27q8 48 82 395z" />
    <glyph glyph-name="ordmasculine" unicode="&#xba;" horiz-adv-x="273" 
d="M131 331q24 0 38 35.5t14 70.5q0 64 -35 64q-27 0 -43.5 -36.5t-16.5 -73.5q0 -60 43 -60zM121 274q-48 0 -72.5 37t-24.5 96.5t40 105t101 45.5q82 0 82 -122q0 -59 -33.5 -110.5t-92.5 -51.5z" />
    <glyph glyph-name="guillemotright" unicode="&#xbb;" horiz-adv-x="492" 
d="M114 25q-14 0 -26 8.5t-12 20.5q0 23 27 42q15 10 16 11l92 79l-111 78q-14 9 -17.5 12t-10.5 12t-7 21t11.5 22t29 10t36.5 -14q6 -5 31 -25t51 -36q65 -39 65 -84q0 -23 -17 -42q-6 -6 -18 -17t-15 -14q-48 -48 -103 -79q-9 -5 -22 -5zM312 25q-15 0 -27 8.5t-12 24
t16 30.5q7 6 27 19l92 79l-112 78q-1 0 -5.5 4t-6 4.5t-5.5 4t-5.5 5t-4 5t-3.5 6t-2 6t-1 13t11 19.5t28.5 10t35.5 -14q7 -5 32 -25t51 -36q65 -39 65 -84q0 -23 -18 -42q-5 -6 -17 -17t-15 -14q-48 -48 -103 -79q-9 -5 -21 -5z" />
    <glyph glyph-name="onequarter" unicode="&#xbc;" horiz-adv-x="998" 
d="M891 135h62q19 0 19 -25q0 -15 -9 -27t-24 -13l-62 -1l-12 -48q-6 -26 -15 -33.5t-26 -7.5q-34 0 -34 28q0 4 2 14l10 46h-129q-32 0 -32 28q0 34 115 363q9 23 36 23q14 0 25 -7t11 -19t-100 -320h90q6 37 39 152q11 33 42.5 33t31.5 -19zM659 586q0 -8 -3 -15
l-254 -587q-9 -20 -27 -20t-30 10.5t-12 23.5t4 22l254 573q13 28 35 28q13 0 23 -10.5t10 -24.5zM212 616q-35 -13 -78 -23h-3q-8 0 -13 10.5t-5 24.5q0 30 16 36q37 11 149 33h5q16 0 16 -25q0 -5 -2 -19q-71 -367 -86 -437q-5 -21 -43 -21t-38 27q7 44 82 394z" />
    <glyph glyph-name="onehalf" unicode="&#xbd;" horiz-adv-x="998" 
d="M720 370q0 -13 5.5 -35t5.5 -28q0 -21 -30 -21q-55 0 -55 70t45.5 106.5t113.5 36.5t115.5 -43t47.5 -135q0 -60 -27.5 -120t-70.5 -107q27 -16 58 -16q8 0 18 9.5t16 9.5q12 0 12 -26t-14.5 -48.5t-48 -22.5t-87.5 45q-53 -45 -98 -45t-75 26.5t-30 66t22.5 62.5t67 23
t107.5 -43q70 69 70 181q0 56 -20.5 87t-56.5 31t-63.5 -18t-27.5 -46zM714 62q31 0 62 31q-32 21 -72 21q-24 0 -24 -22q0 -12 9 -21t25 -9zM631 586q0 -8 -3 -15l-253 -587q-9 -20 -27 -20t-30 10.5t-12 23.5t4 22l253 573q13 28 35 28q13 0 23 -10.5t10 -24.5zM212 616
q-35 -13 -78 -23h-3q-8 0 -13 10.5t-5 24.5q0 30 16 36q37 11 149 33h5q16 0 16 -25q0 -5 -2 -19q-71 -367 -86 -437q-5 -21 -43 -21t-38 27q7 44 82 394z" />
    <glyph glyph-name="threequarters" unicode="&#xbe;" horiz-adv-x="1083" 
d="M884 135h62q19 0 19 -25q0 -15 -8.5 -27t-23.5 -13l-63 -1l-12 -48q-6 -26 -15 -33.5t-26 -7.5q-33 0 -33 26q0 4 2 16l9 46h-129q-32 0 -32 27q0 31 116 364q7 23 35 23q14 0 25 -7t11 -19t-100 -320h90q5 29 40 152q9 33 41 33t32 -19q-8 -40 -40 -167zM663 586
q0 -8 -3 -15l-254 -587q-9 -20 -27 -20t-30 10.5t-12 23.5t4 22l254 573q13 28 35 28q13 0 23 -10.5t10 -24.5zM351 592q0 -39 -25 -73t-70 -43q50 -13 76 -47t26 -81q0 -81 -47.5 -121t-116.5 -40h-3q-112 0 -164 79q-6 9 -6 21t13 23.5t30 11.5t30 -19.5t42.5 -34
t63 -14.5t57 23t23.5 69t-39.5 69t-99.5 23q-26 0 -26 30q0 28 44 28t76 21t32 53t-18 46.5t-44 14.5q-45 0 -74 -32q-12 -13 -25 -13t-22 10.5t-9 20.5t4 15q52 63 140 63q57 0 94.5 -26.5t37.5 -76.5z" />
    <glyph glyph-name="questiondown" unicode="&#xbf;" horiz-adv-x="441" 
d="M264 0q-56 0 -92.5 31.5t-36.5 89.5t34 103q19 25 60 59q49 40 60 65q12 33 38.5 33t26.5 -22q0 -38 -16.5 -67t-37 -45.5t-43.5 -40.5t-31.5 -46t-8.5 -42t12 -36.5t35 -16.5q39 0 71 41q9 13 23.5 13t24 -12t9.5 -28q0 -34 -43 -56.5t-85 -22.5zM334 427q-58 0 -58 55
q0 30 17.5 47.5t47.5 17.5q56 0 56 -55q0 -30 -16.5 -47.5t-46.5 -17.5z" />
    <glyph glyph-name="Agrave" unicode="&#xc0;" horiz-adv-x="684" 
d="M500 739q-11 0 -20 9l-119 113q-14 13 -14 29t14 29t32 13t30 -19l86 -141q7 -10 7 -18q0 -15 -16 -15zM583 14q31 0 73 37q4 4 13.5 4t19.5 -10.5t10 -23t-7 -20.5q-20 -24 -56.5 -41t-70.5 -17q-83 0 -83 100q0 22 3 43q-21 -55 -78 -100.5t-119 -45.5
q-112 0 -170.5 65t-58.5 182.5t40.5 214t106 160t147.5 99.5t167 36q142 0 239 -93q13 -11 13 -27t-9.5 -26t-23 -10t-23.5 9q-91 66 -195 66q-143 0 -250.5 -116t-114.5 -302v-15q0 -80 37.5 -123t109 -43t124.5 57.5t72 142.5l64 282q4 23 27 23t38 -10.5t15 -21t-1 -12.5
l-70 -317q-15 -77 -15 -104t6 -35t20 -8z" />
    <glyph glyph-name="Aacute" unicode="&#xc1;" horiz-adv-x="684" 
d="M703 901q0 -16 -14 -29l-120 -114q-10 -9 -20 -9q-15 0 -15 16q0 7 6 18l87 140q11 19 29.5 19t32.5 -12.5t14 -28.5zM583 14q31 0 73 37q4 4 13.5 4t19.5 -10.5t10 -23t-7 -20.5q-20 -24 -56.5 -41t-70.5 -17q-83 0 -83 100q0 22 3 43q-21 -55 -78 -100.5t-119 -45.5
q-112 0 -170.5 65t-58.5 182.5t40.5 214t106 160t147.5 99.5t167 36q142 0 239 -93q13 -11 13 -27t-9.5 -26t-23 -10t-23.5 9q-91 66 -195 66q-143 0 -250.5 -116t-114.5 -302v-15q0 -80 37.5 -123t109 -43t124.5 57.5t72 142.5l64 282q4 23 27 23t38 -10.5t15 -21t-1 -12.5
l-70 -317q-15 -77 -15 -104t6 -35t20 -8z" />
    <glyph glyph-name="Acircumflex" unicode="&#xc2;" horiz-adv-x="684" 
d="M650 751q-13 0 -23.5 6.5t-13.5 17.5l-38 136l-83 -123q-12 -18 -38.5 -18t-28.5 24q0 14 7 24l48 71q23 35 31 45q4 5 13.5 16t17 13.5t19.5 6t29.5 3.5t27.5 -9l10 -10t8.5 -15t6.5 -17t6.5 -22t6.5 -23l22 -78q3 -11 3 -18q0 -30 -31 -30zM583 14q31 0 73 37
q4 4 13.5 4t19.5 -10.5t10 -23t-7 -20.5q-20 -24 -56.5 -41t-70.5 -17q-83 0 -83 100q0 22 3 43q-21 -55 -78 -100.5t-119 -45.5q-112 0 -170.5 65t-58.5 182.5t40.5 214t106 160t147.5 99.5t167 36q142 0 239 -93q13 -11 13 -27t-9.5 -26t-23 -10t-23.5 9q-91 66 -195 66
q-143 0 -250.5 -116t-114.5 -302v-15q0 -80 37.5 -123t109 -43t124.5 57.5t72 142.5l64 282q4 23 27 23t38 -10.5t15 -21t-1 -12.5l-70 -317q-15 -77 -15 -104t6 -35t20 -8z" />
    <glyph glyph-name="Atilde" unicode="&#xc3;" horiz-adv-x="684" 
d="M606 720q-13 0 -26 4q-5 2 -12 6.5t-9.5 6.5t-10 8.5t-10.5 8.5t-17 13.5t-24 19.5l-13 -20q-14 -20 -24.5 -28t-23.5 -8t-21 6.5t-8 18.5q0 30 27 59.5t57 29.5q13 0 27 -5q4 -1 11 -5.5t9.5 -6.5t10 -8.5t10.5 -8.5t17 -13.5t24 -19.5q3 3 14 21t22 26.5t24.5 8.5
t21.5 -6.5t8 -18.5q0 -30 -27.5 -59.5t-56.5 -29.5zM583 14q31 0 73 37q4 4 13.5 4t19.5 -10.5t10 -23t-7 -20.5q-20 -24 -56.5 -41t-70.5 -17q-83 0 -83 100q0 22 3 43q-21 -55 -78 -100.5t-119 -45.5q-112 0 -170.5 65t-58.5 182.5t40.5 214t106 160t147.5 99.5t167 36
q142 0 239 -93q13 -11 13 -27t-9.5 -26t-23 -10t-23.5 9q-91 66 -195 66q-143 0 -250.5 -116t-114.5 -302v-15q0 -80 37.5 -123t109 -43t124.5 57.5t72 142.5l64 282q4 23 27 23t38 -10.5t15 -21t-1 -12.5l-70 -317q-15 -77 -15 -104t6 -35t20 -8z" />
    <glyph glyph-name="Adieresis" unicode="&#xc4;" horiz-adv-x="684" 
d="M451 760q-47 0 -47 44q0 25 15.5 38t34.5 13q49 0 49 -44q0 -25 -16.5 -38t-35.5 -13zM647 760q-48 0 -48 48q0 22 15 34.5t34 12.5q50 0 50 -48q0 -23 -15.5 -35t-35.5 -12zM583 14q31 0 73 37q4 4 13.5 4t19.5 -10.5t10 -23t-7 -20.5q-20 -24 -56.5 -41t-70.5 -17
q-83 0 -83 100q0 22 3 43q-21 -55 -78 -100.5t-119 -45.5q-112 0 -170.5 65t-58.5 182.5t40.5 214t106 160t147.5 99.5t167 36q142 0 239 -93q13 -11 13 -27t-9.5 -26t-23 -10t-23.5 9q-91 66 -195 66q-143 0 -250.5 -116t-114.5 -302v-15q0 -80 37.5 -123t109 -43
t124.5 57.5t72 142.5l64 282q4 23 27 23t38 -10.5t15 -21t-1 -12.5l-70 -317q-15 -77 -15 -104t6 -35t20 -8z" />
    <glyph glyph-name="Aring" unicode="&#xc5;" horiz-adv-x="684" 
d="M539 771q21 0 38.5 15t17.5 33.5t-12 26t-31 7.5t-36 -13t-17 -31.5t11 -28t29 -9.5zM453 801q0 45 30 70t71 25t66 -19t25 -51q0 -11 -3 -23q-10 -37 -36.5 -58t-64 -21t-63 22t-25.5 55zM583 14q31 0 73 37q4 4 13.5 4t19.5 -10.5t10 -23t-7 -20.5q-20 -24 -56.5 -41
t-70.5 -17q-83 0 -83 100q0 22 3 43q-21 -55 -78 -100.5t-119 -45.5q-112 0 -170.5 65t-58.5 182.5t40.5 214t106 160t147.5 99.5t167 36q142 0 239 -93q13 -11 13 -27t-9.5 -26t-23 -10t-23.5 9q-91 66 -195 66q-143 0 -250.5 -116t-114.5 -302v-15q0 -80 37.5 -123
t109 -43t124.5 57.5t72 142.5l64 282q4 23 27 23t38 -10.5t15 -21t-1 -12.5l-70 -317q-15 -77 -15 -104t6 -35t20 -8z" />
    <glyph glyph-name="AE" unicode="&#xc6;" horiz-adv-x="1237" 
d="M675 662q78 42 169.5 42t154 -38.5t62.5 -105.5q0 -33 -13 -53t-26.5 -24.5t-28.5 -4.5h-4q-14 0 -28 8q-25 14 -25 48q0 43 47 62q-47 43 -127 43t-118 -29.5t-53 -96.5t-31 -127q-7 -25 -9 -35q1 0 48 -1l47 -1q20 -2 20 -41.5t-36 -42.5h-95q-13 -43 -13 -82
q0 -84 54 -129.5t126 -45.5t132.5 32.5t95.5 93.5q8 13 28.5 13t30 -13t9.5 -28.5t-10 -26.5q-33 -73 -115.5 -114.5t-175.5 -41.5h-3q-94 0 -161.5 45t-76.5 131q-32 -77 -109.5 -118t-152.5 -41q-112 0 -170.5 65t-58.5 182.5t40.5 214t106 160t147.5 99.5t166.5 36
t155.5 -35zM392 593q-60 -26 -112 -76t-86 -133t-38 -186v-15q0 -80 37.5 -123t106.5 -43q112 0 176 92q38 55 82 253t59 235q-45 22 -105 22t-120 -26z" />
    <glyph glyph-name="Ccedilla" unicode="&#xc7;" horiz-adv-x="593" 
d="M293 -136q0 -3 -1 -5l-45 -130q-11 -31 -38 -31q-13 0 -23 8.5t-10 20t8 22.5l86 118q8 9 13 9q10 0 10 -12zM58 206q0 100 33.5 188t88 148t125 94.5t145 34.5t119 -39.5t44.5 -113t-56.5 -129.5t-145.5 -73q-16 -2 -21 -2q-37 0 -37 29q0 11 10.5 20t47.5 19
q57 16 91.5 50t34.5 78.5t-25.5 64.5t-70.5 20q-109 0 -198.5 -112.5t-89.5 -264.5q0 -114 46 -175.5t133 -61.5t157.5 45.5t116.5 117.5q4 7 15.5 7t23.5 -9t12 -16t-2 -11q-44 -95 -139 -152.5t-203.5 -57.5t-181.5 76t-73 225z" />
    <glyph glyph-name="Egrave" unicode="&#xc8;" horiz-adv-x="553" 
d="M425 774q-11 0 -20 9l-119 113q-14 13 -14 29t14 29t32 13t30 -19l86 -141q7 -10 7 -18q0 -15 -16 -15zM253 -104q-108 0 -160 45t-52 137.5t79.5 165.5t181.5 75q-97 13 -137 52t-40 111.5t45 123.5t110.5 74.5t144 23.5t141 -38.5t62.5 -105.5q0 -33 -13 -53
t-26.5 -24.5t-28.5 -4.5h-4q-14 0 -28 8q-25 14 -25 48q0 43 47 62q-47 43 -129.5 43t-140 -39t-57.5 -102t37.5 -95.5t124.5 -51.5q32 -8 32 -39q0 -19 -15 -33t-41 -14q-87 0 -152.5 -52.5t-65.5 -121.5q0 -112 113 -112q86 0 190.5 44t151.5 101q13 16 27.5 16t24 -13
t9.5 -28.5t-10 -26.5q-55 -69 -175.5 -122.5t-220.5 -53.5z" />
    <glyph glyph-name="Eacute" unicode="&#xc9;" horiz-adv-x="553" 
d="M628 936q0 -16 -14 -29l-120 -114q-10 -9 -20 -9q-15 0 -15 16q0 7 6 18l87 140q11 19 29.5 19t32.5 -12.5t14 -28.5zM253 -104q-108 0 -160 45t-52 137.5t79.5 165.5t181.5 75q-97 13 -137 52t-40 111.5t45 123.5t110.5 74.5t144 23.5t141 -38.5t62.5 -105.5
q0 -33 -13 -53t-26.5 -24.5t-28.5 -4.5h-4q-14 0 -28 8q-25 14 -25 48q0 43 47 62q-47 43 -129.5 43t-140 -39t-57.5 -102t37.5 -95.5t124.5 -51.5q32 -8 32 -39q0 -19 -15 -33t-41 -14q-87 0 -152.5 -52.5t-65.5 -121.5q0 -112 113 -112q86 0 190.5 44t151.5 101
q13 16 27.5 16t24 -13t9.5 -28.5t-10 -26.5q-55 -69 -175.5 -122.5t-220.5 -53.5z" />
    <glyph glyph-name="Ecircumflex" unicode="&#xca;" horiz-adv-x="553" 
d="M575 786q-13 0 -23.5 6.5t-13.5 17.5l-38 136l-83 -123q-12 -18 -38.5 -18t-28.5 24q0 14 7 24l48 71q23 35 31 45q4 5 13.5 16t17 13.5t19.5 6t29.5 3.5t27.5 -9l10 -10t8.5 -15t6.5 -17t6.5 -22t6.5 -23l22 -78q3 -11 3 -18q0 -30 -31 -30zM253 -104q-108 0 -160 45
t-52 137.5t79.5 165.5t181.5 75q-97 13 -137 52t-40 111.5t45 123.5t110.5 74.5t144 23.5t141 -38.5t62.5 -105.5q0 -33 -13 -53t-26.5 -24.5t-28.5 -4.5h-4q-14 0 -28 8q-25 14 -25 48q0 43 47 62q-47 43 -129.5 43t-140 -39t-57.5 -102t37.5 -95.5t124.5 -51.5
q32 -8 32 -39q0 -19 -15 -33t-41 -14q-87 0 -152.5 -52.5t-65.5 -121.5q0 -112 113 -112q86 0 190.5 44t151.5 101q13 16 27.5 16t24 -13t9.5 -28.5t-10 -26.5q-55 -69 -175.5 -122.5t-220.5 -53.5z" />
    <glyph glyph-name="Edieresis" unicode="&#xcb;" horiz-adv-x="553" 
d="M376 795q-47 0 -47 44q0 25 15.5 38t34.5 13q49 0 49 -44q0 -25 -16.5 -38t-35.5 -13zM572 795q-48 0 -48 48q0 22 15 34.5t34 12.5q50 0 50 -48q0 -23 -15.5 -35t-35.5 -12zM253 -104q-108 0 -160 45t-52 137.5t79.5 165.5t181.5 75q-97 13 -137 52t-40 111.5t45 123.5
t110.5 74.5t144 23.5t141 -38.5t62.5 -105.5q0 -33 -13 -53t-26.5 -24.5t-28.5 -4.5h-4q-14 0 -28 8q-25 14 -25 48q0 43 47 62q-47 43 -129.5 43t-140 -39t-57.5 -102t37.5 -95.5t124.5 -51.5q32 -8 32 -39q0 -19 -15 -33t-41 -14q-87 0 -152.5 -52.5t-65.5 -121.5
q0 -112 113 -112q86 0 190.5 44t151.5 101q13 16 27.5 16t24 -13t9.5 -28.5t-10 -26.5q-55 -69 -175.5 -122.5t-220.5 -53.5z" />
    <glyph glyph-name="Igrave" unicode="&#xcc;" horiz-adv-x="342" 
d="M310 739q-11 0 -20 9l-119 113q-14 13 -14 29t14 29t32 13t30 -19l86 -141q7 -10 7 -18q0 -15 -16 -15zM0 4q0 10 2 15q5 17 49.5 26t82.5 10q19 129 59.5 276t84.5 246q-7 0 -33 -1t-41 -1h-2q-34 0 -46 5t-12 25t6.5 34.5t18 15.5t150.5 5t154 4q22 0 22 -28
q0 -14 -7 -33q-7 -17 -89 -21q-42 -3 -45 -3q-7 -1 -40 -105.5t-65.5 -232.5t-37.5 -183q5 1 51.5 1t60.5 -5.5t14 -21t-10.5 -27t-30.5 -12.5q-50 -2 -150.5 -12.5t-116.5 -10.5q-29 0 -29 34z" />
    <glyph glyph-name="Iacute" unicode="&#xcd;" horiz-adv-x="342" 
d="M513 901q0 -16 -14 -29l-120 -114q-10 -9 -20 -9q-15 0 -15 16q0 7 6 18l87 140q11 19 29.5 19t32.5 -12.5t14 -28.5zM0 4q0 10 2 15q5 17 49.5 26t82.5 10q19 129 59.5 276t84.5 246q-7 0 -33 -1t-41 -1h-2q-34 0 -46 5t-12 25t6.5 34.5t18 15.5t150.5 5t154 4
q22 0 22 -28q0 -14 -7 -33q-7 -17 -89 -21q-42 -3 -45 -3q-7 -1 -40 -105.5t-65.5 -232.5t-37.5 -183q5 1 51.5 1t60.5 -5.5t14 -21t-10.5 -27t-30.5 -12.5q-50 -2 -150.5 -12.5t-116.5 -10.5q-29 0 -29 34z" />
    <glyph glyph-name="Icircumflex" unicode="&#xce;" horiz-adv-x="342" 
d="M460 751q-13 0 -23.5 6.5t-13.5 17.5l-38 136l-83 -123q-12 -18 -38.5 -18t-28.5 24q0 14 7 24l48 71q23 35 31 45q4 5 13.5 16t17 13.5t19.5 6t29.5 3.5t27.5 -9l10 -10t8.5 -15t6.5 -17t6.5 -22t6.5 -23l22 -78q3 -11 3 -18q0 -30 -31 -30zM0 4q0 10 2 15q5 17 49.5 26
t82.5 10q19 129 59.5 276t84.5 246q-7 0 -33 -1t-41 -1h-2q-34 0 -46 5t-12 25t6.5 34.5t18 15.5t150.5 5t154 4q22 0 22 -28q0 -14 -7 -33q-7 -17 -89 -21q-42 -3 -45 -3q-7 -1 -40 -105.5t-65.5 -232.5t-37.5 -183q5 1 51.5 1t60.5 -5.5t14 -21t-10.5 -27t-30.5 -12.5
q-50 -2 -150.5 -12.5t-116.5 -10.5q-29 0 -29 34z" />
    <glyph glyph-name="Idieresis" unicode="&#xcf;" horiz-adv-x="342" 
d="M261 760q-47 0 -47 44q0 25 15.5 38t34.5 13q49 0 49 -44q0 -25 -16.5 -38t-35.5 -13zM457 760q-48 0 -48 48q0 22 15 34.5t34 12.5q50 0 50 -48q0 -23 -15.5 -35t-35.5 -12zM0 4q0 10 2 15q5 17 49.5 26t82.5 10q19 129 59.5 276t84.5 246q-7 0 -33 -1t-41 -1h-2
q-34 0 -46 5t-12 25t6.5 34.5t18 15.5t150.5 5t154 4q22 0 22 -28q0 -14 -7 -33q-7 -17 -89 -21q-42 -3 -45 -3q-7 -1 -40 -105.5t-65.5 -232.5t-37.5 -183q5 1 51.5 1t60.5 -5.5t14 -21t-10.5 -27t-30.5 -12.5q-50 -2 -150.5 -12.5t-116.5 -10.5q-29 0 -29 34z" />
    <glyph glyph-name="Eth" unicode="&#xd0;" horiz-adv-x="607" 
d="M259 316q32 0 32 -26q0 -22 -29 -26q-60 -8 -102 -19t-54.5 -16.5t-30 -14t-27 -8.5t-17.5 10t-8 24q0 62 236 76zM159 51q0 -19 6 -26.5t25 -7.5q136 0 233 107t97 244q0 98 -66 163.5t-177.5 65.5t-170.5 -60q-6 -6 -19 -25.5t-25 -32.5t-23 -13t-17.5 10.5t-6.5 27
t12 44t20 36.5q78 91 219 91q162 0 250 -80.5t88 -216.5q0 -98 -35 -180t-92.5 -134.5t-129 -81.5t-137.5 -29t-128 28q-14 6 -13 24q2 136 37 292t86 229q25 17 47 17t39 -28q-44 -57 -81.5 -209.5t-37.5 -254.5z" />
    <glyph glyph-name="Ntilde" unicode="&#xd1;" horiz-adv-x="606" 
d="M536 720q-13 0 -26 4q-5 2 -12 6.5t-9.5 6.5t-10 8.5t-10.5 8.5t-17 13.5t-24 19.5l-13 -20q-14 -20 -24.5 -28t-23.5 -8t-21 6.5t-8 18.5q0 30 27 59.5t57 29.5q13 0 27 -5q4 -1 11 -5.5t9.5 -6.5t10 -8.5t10.5 -8.5t17 -13.5t24 -19.5q3 3 14 21t22 26.5t24.5 8.5
t21.5 -6.5t8 -18.5q0 -30 -27.5 -59.5t-56.5 -29.5zM621 543q0 -56 -66 -239t-66 -226q0 -16 14 -28t37 -12q53 0 93 45q14 15 27.5 15t21.5 -7.5t8 -23.5t-24 -39.5t-62 -41t-69 -17.5q-61 0 -93 26.5t-32 70.5q0 64 68 260q53 151 53 185q0 44 -39 44q-42 0 -78 -31
q-20 -16 -37 -33.5t-36.5 -47.5t-35 -54.5t-34.5 -64.5t-33 -69t-33.5 -76t-32 -77t-23 -56t-16.5 -41.5t-8.5 -19t-10.5 -15.5t-33 -12q-32 0 -56 25q156 387 156 527q0 61 -25 61h-1q-55 0 -104 -133q-2 -2 -11 -2t-28.5 14.5t-19.5 30t4 24.5q28 62 75 99.5t91.5 37.5
t69.5 -24t26 -65q0 -69 -39 -221q41 108 79 170q27 44 55.5 73t68.5 48.5t89.5 19.5t79.5 -27t30 -73z" />
    <glyph glyph-name="Ograve" unicode="&#xd2;" horiz-adv-x="661" 
d="M420 739q-11 0 -20 9l-119 113q-14 13 -14 29t14 29t32 13t30 -19l86 -141q7 -10 7 -18q0 -15 -16 -15zM334 -24q79 0 138.5 58.5t87 142t27.5 183t-40.5 165.5t-120 66t-143 -60.5t-93.5 -144t-30 -178t44.5 -163.5t129.5 -69zM70 206q0 119 39.5 222.5t122 172
t191.5 68.5q124 0 189 -92t65 -248.5t-89 -289.5q-42 -64 -110 -103.5t-151 -39.5q-123 0 -190 90t-67 220z" />
    <glyph glyph-name="Oacute" unicode="&#xd3;" horiz-adv-x="661" 
d="M623 901q0 -16 -14 -29l-120 -114q-10 -9 -20 -9q-15 0 -15 16q0 7 6 18l87 140q11 19 29.5 19t32.5 -12.5t14 -28.5zM334 -24q79 0 138.5 58.5t87 142t27.5 183t-40.5 165.5t-120 66t-143 -60.5t-93.5 -144t-30 -178t44.5 -163.5t129.5 -69zM70 206q0 119 39.5 222.5
t122 172t191.5 68.5q124 0 189 -92t65 -248.5t-89 -289.5q-42 -64 -110 -103.5t-151 -39.5q-123 0 -190 90t-67 220z" />
    <glyph glyph-name="Ocircumflex" unicode="&#xd4;" horiz-adv-x="661" 
d="M570 751q-13 0 -23.5 6.5t-13.5 17.5l-38 136l-83 -123q-12 -18 -38.5 -18t-28.5 24q0 14 7 24l48 71q23 35 31 45q4 5 13.5 16t17 13.5t19.5 6t29.5 3.5t27.5 -9l10 -10t8.5 -15t6.5 -17t6.5 -22t6.5 -23l22 -78q3 -11 3 -18q0 -30 -31 -30zM334 -24q79 0 138.5 58.5
t87 142t27.5 183t-40.5 165.5t-120 66t-143 -60.5t-93.5 -144t-30 -178t44.5 -163.5t129.5 -69zM70 206q0 119 39.5 222.5t122 172t191.5 68.5q124 0 189 -92t65 -248.5t-89 -289.5q-42 -64 -110 -103.5t-151 -39.5q-123 0 -190 90t-67 220z" />
    <glyph glyph-name="Otilde" unicode="&#xd5;" horiz-adv-x="661" 
d="M526 720q-13 0 -26 4q-5 2 -12 6.5t-9.5 6.5t-10 8.5t-10.5 8.5t-17 13.5t-24 19.5l-13 -20q-14 -20 -24.5 -28t-23.5 -8t-21 6.5t-8 18.5q0 30 27 59.5t57 29.5q13 0 27 -5q4 -1 11 -5.5t9.5 -6.5t10 -8.5t10.5 -8.5t17 -13.5t24 -19.5q3 3 14 21t22 26.5t24.5 8.5
t21.5 -6.5t8 -18.5q0 -30 -27.5 -59.5t-56.5 -29.5zM334 -24q79 0 138.5 58.5t87 142t27.5 183t-40.5 165.5t-120 66t-143 -60.5t-93.5 -144t-30 -178t44.5 -163.5t129.5 -69zM70 206q0 119 39.5 222.5t122 172t191.5 68.5q124 0 189 -92t65 -248.5t-89 -289.5
q-42 -64 -110 -103.5t-151 -39.5q-123 0 -190 90t-67 220z" />
    <glyph glyph-name="Odieresis" unicode="&#xd6;" horiz-adv-x="661" 
d="M371 760q-47 0 -47 44q0 25 15.5 38t34.5 13q49 0 49 -44q0 -25 -16.5 -38t-35.5 -13zM567 760q-48 0 -48 48q0 22 15 34.5t34 12.5q50 0 50 -48q0 -23 -15.5 -35t-35.5 -12zM334 -24q79 0 138.5 58.5t87 142t27.5 183t-40.5 165.5t-120 66t-143 -60.5t-93.5 -144
t-30 -178t44.5 -163.5t129.5 -69zM70 206q0 119 39.5 222.5t122 172t191.5 68.5q124 0 189 -92t65 -248.5t-89 -289.5q-42 -64 -110 -103.5t-151 -39.5q-123 0 -190 90t-67 220z" />
    <glyph glyph-name="multiply" unicode="&#xd7;" horiz-adv-x="438" 
d="M321 58q-20 0 -33 16l-52 58l-53 -57q-17 -17 -32 -17t-23 8t-8 23.5t17 32.5l53 53l-55 55q-12 12 -12 27.5t8 25.5t21.5 10t24.5 -12l59 -63l57 64q14 12 26 12t20.5 -10t8.5 -24.5t-13 -29.5l-52 -55l50 -54q17 -17 17 -32.5t-8 -23t-21 -7.5z" />
    <glyph glyph-name="Oslash" unicode="&#xd8;" horiz-adv-x="661" 
d="M698 708l-585 -895q-11 -17 -26.5 -17t-23.5 7.5t-8 19t8 25.5l599 883q5 12 17 12t18.5 -5t6.5 -13t-6 -17zM334 -24q-85 0 -129.5 69t-44.5 172q0 86 30 169.5t93.5 144t144.5 60.5q78 0 118.5 -66t40.5 -175q0 -90 -27.5 -173.5t-87 -142t-138.5 -58.5zM70 206
q0 -130 67 -220t190 -90q83 0 151 39.5t110.5 103.5t65.5 141.5t23 158.5q0 146 -65 238t-189 92q-109 0 -191.5 -68.5t-122 -172t-39.5 -222.5z" />
    <glyph glyph-name="Ugrave" unicode="&#xd9;" horiz-adv-x="632" 
d="M420 739q-11 0 -20 9l-119 113q-14 13 -14 29t14 29t32 13t30 -19l86 -141q7 -10 7 -18q0 -15 -16 -15zM792 482q-59 -48 -120 -71q-23 -172 -122 -317q-48 -70 -117.5 -113.5t-147.5 -43.5q-104 0 -153 64.5t-49 172.5q0 145 76 309l-79 -52q-9 -6 -16 -6q-21 0 -21 30
q0 15 15 25l168 108q14 7 30 7q31 0 31 -23q0 -8 -6 -19q-48 -79 -80 -183t-32 -184.5t28.5 -125.5t88 -45t111.5 34.5t89 90.5q76 114 103 255q-77 0 -124.5 53t-47.5 112.5t34 95.5t97.5 36t96 -56.5t32.5 -148.5v-13q43 18 86 50q9 6 17.5 6t15.5 -7.5t7 -20t-11 -20.5z
M482 566q0 -41 30.5 -75t84.5 -35q2 28 2 39q0 59 -16.5 94t-45.5 35t-42 -16.5t-13 -41.5z" />
    <glyph glyph-name="Uacute" unicode="&#xda;" horiz-adv-x="632" 
d="M623 901q0 -16 -14 -29l-120 -114q-10 -9 -20 -9q-15 0 -15 16q0 7 6 18l87 140q11 19 29.5 19t32.5 -12.5t14 -28.5zM792 482q-59 -48 -120 -71q-23 -172 -122 -317q-48 -70 -117.5 -113.5t-147.5 -43.5q-104 0 -153 64.5t-49 172.5q0 145 76 309l-79 -52q-9 -6 -16 -6
q-21 0 -21 30q0 15 15 25l168 108q14 7 30 7q31 0 31 -23q0 -8 -6 -19q-48 -79 -80 -183t-32 -184.5t28.5 -125.5t88 -45t111.5 34.5t89 90.5q76 114 103 255q-77 0 -124.5 53t-47.5 112.5t34 95.5t97.5 36t96 -56.5t32.5 -148.5v-13q43 18 86 50q9 6 17.5 6t15.5 -7.5
t7 -20t-11 -20.5zM482 566q0 -41 30.5 -75t84.5 -35q2 28 2 39q0 59 -16.5 94t-45.5 35t-42 -16.5t-13 -41.5z" />
    <glyph glyph-name="Ucircumflex" unicode="&#xdb;" horiz-adv-x="632" 
d="M570 751q-13 0 -23.5 6.5t-13.5 17.5l-38 136l-83 -123q-12 -18 -38.5 -18t-28.5 24q0 14 7 24l48 71q23 35 31 45q4 5 13.5 16t17 13.5t19.5 6t29.5 3.5t27.5 -9l10 -10t8.5 -15t6.5 -17t6.5 -22t6.5 -23l22 -78q3 -11 3 -18q0 -30 -31 -30zM792 482q-59 -48 -120 -71
q-23 -172 -122 -317q-48 -70 -117.5 -113.5t-147.5 -43.5q-104 0 -153 64.5t-49 172.5q0 145 76 309l-79 -52q-9 -6 -16 -6q-21 0 -21 30q0 15 15 25l168 108q14 7 30 7q31 0 31 -23q0 -8 -6 -19q-48 -79 -80 -183t-32 -184.5t28.5 -125.5t88 -45t111.5 34.5t89 90.5
q76 114 103 255q-77 0 -124.5 53t-47.5 112.5t34 95.5t97.5 36t96 -56.5t32.5 -148.5v-13q43 18 86 50q9 6 17.5 6t15.5 -7.5t7 -20t-11 -20.5zM482 566q0 -41 30.5 -75t84.5 -35q2 28 2 39q0 59 -16.5 94t-45.5 35t-42 -16.5t-13 -41.5z" />
    <glyph glyph-name="Udieresis" unicode="&#xdc;" horiz-adv-x="632" 
d="M371 760q-47 0 -47 44q0 25 15.5 38t34.5 13q49 0 49 -44q0 -25 -16.5 -38t-35.5 -13zM567 760q-48 0 -48 48q0 22 15 34.5t34 12.5q50 0 50 -48q0 -23 -15.5 -35t-35.5 -12zM792 482q-59 -48 -120 -71q-23 -172 -122 -317q-48 -70 -117.5 -113.5t-147.5 -43.5
q-104 0 -153 64.5t-49 172.5q0 145 76 309l-79 -52q-9 -6 -16 -6q-21 0 -21 30q0 15 15 25l168 108q14 7 30 7q31 0 31 -23q0 -8 -6 -19q-48 -79 -80 -183t-32 -184.5t28.5 -125.5t88 -45t111.5 34.5t89 90.5q76 114 103 255q-77 0 -124.5 53t-47.5 112.5t34 95.5t97.5 36
t96 -56.5t32.5 -148.5v-13q43 18 86 50q9 6 17.5 6t15.5 -7.5t7 -20t-11 -20.5zM482 566q0 -41 30.5 -75t84.5 -35q2 28 2 39q0 59 -16.5 94t-45.5 35t-42 -16.5t-13 -41.5z" />
    <glyph glyph-name="Yacute" unicode="&#xdd;" horiz-adv-x="564" 
d="M623 901q0 -16 -14 -29l-120 -114q-10 -9 -20 -9q-15 0 -15 16q0 7 6 18l87 140q11 19 29.5 19t32.5 -12.5t14 -28.5zM248 -269q10 0 28 25q44 61 93 203q-140 -145 -140 -200q0 -28 19 -28zM598 562q0 -12 -5 -34l-94 -377q88 73 150 115q5 3 12 3t14 -10t7 -21t-7 -17
q-101 -71 -199 -160q-58 -217 -111 -309t-140 -92q-30 0 -47.5 19t-17.5 47q0 116 242 341q8 27 15 57q-103 -103 -197 -103q-68 0 -109 57t-41 155q0 154 103 343q18 30 47.5 30t29.5 -17q0 -3 -2 -9q-94 -233 -94 -362q0 -67 24 -99t66 -32t94 33.5t95 88.5l83 340
q10 46 40 46q42 0 42 -33z" />
    <glyph glyph-name="Thorn" unicode="&#xde;" horiz-adv-x="416" 
d="M174 -123q-40 0 -69.5 26.5t-46.5 73.5q-33 91 -33 234q0 281 139 421q72 71 171 80q15 72 32.5 105t45.5 33q19 0 18 -19q0 -6 -16 -120q108 -11 171 -70t63 -147.5t-81.5 -152.5t-222.5 -80q-5 -2 -9 -33q-2 -16 -5 -48t-9 -82q-12 -107 -44 -164t-104 -57zM186 -54
q36 0 49 62q7 33 10.5 64.5t8.5 88t10 95.5q-30 10 -49 20q-7 3 -18 10.5t-15 17.5t-4 30t10 20q12 0 44 -15.5t41 -15.5q12 72 28 176l20 130q-57 -11 -100.5 -54t-67.5 -104.5t-36 -127t-12 -145.5t15 -160q8 -42 25 -67t41 -25zM521.5 589.5q-41.5 36.5 -118.5 42.5
q-34 -223 -54 -311q98 10 156 56t58 111t-41.5 101.5z" />
    <glyph glyph-name="germandbls" unicode="&#xdf;" horiz-adv-x="438" 
d="M234 1q-47 3 -63.5 12.5t-16.5 25.5l3 21q1 15 21 15l63 -7q48 0 80.5 26.5t32.5 72.5q0 28 -12.5 44t-28.5 20.5t-42.5 10.5t-41.5 13q-24 10 -24 33.5t6.5 32t28.5 8.5q54 0 89.5 23t35.5 69q0 30 -22.5 44.5t-56.5 14.5q-67 0 -109 -54q-33 -42 -50 -133
q-14 -75 -14 -239v-67q0 -20 -13.5 -30.5t-33 -10.5t-32 8t-12.5 23q0 165 18 275q11 72 30.5 123.5t55 94.5t75.5 59.5t95 16.5t100.5 -32.5t45.5 -93t-45 -95t-115 -36.5q67 0 108 -35.5t41 -101.5t-52.5 -109t-126.5 -43z" />
    <glyph glyph-name="agrave" unicode="&#xe0;" horiz-adv-x="350" 
d="M204 407q-11 0 -20 9l-119 113q-14 13 -14 29t14 29t32 13t30 -19l86 -141q7 -10 7 -18q0 -15 -16 -15zM21 104q0 90 64.5 160.5t137.5 70.5q41 0 41 -21v-6h23q28 0 28 -26v-6l-28 -172q-1 -4 -1 -11q0 -24 17 -24q38 0 90 67q7 9 14 9q10 0 17 -15.5t7 -27t-2 -17.5
q-23 -32 -60 -58.5t-70.5 -26.5t-52 17.5t-22.5 47.5v-2q-17 -32 -45 -50q-29 -18 -69 -18t-64.5 30.5t-24.5 78.5zM134 65q27 0 51.5 30t33.5 66l27 112q-58 0 -104 -55t-46 -104t38 -49z" />
    <glyph glyph-name="aacute" unicode="&#xe1;" horiz-adv-x="350" 
d="M407 569q0 -16 -14 -29l-120 -114q-10 -9 -20 -9q-15 0 -15 16q0 7 6 18l87 140q11 19 29.5 19t32.5 -12.5t14 -28.5zM21 104q0 90 64.5 160.5t137.5 70.5q41 0 41 -21v-6h23q28 0 28 -26v-6l-28 -172q-1 -4 -1 -11q0 -24 17 -24q38 0 90 67q7 9 14 9q10 0 17 -15.5
t7 -27t-2 -17.5q-23 -32 -60 -58.5t-70.5 -26.5t-52 17.5t-22.5 47.5v-2q-17 -32 -45 -50q-29 -18 -69 -18t-64.5 30.5t-24.5 78.5zM134 65q27 0 51.5 30t33.5 66l27 112q-58 0 -104 -55t-46 -104t38 -49z" />
    <glyph glyph-name="acircumflex" unicode="&#xe2;" horiz-adv-x="350" 
d="M354 419q-13 0 -23.5 6.5t-13.5 17.5l-38 136l-83 -123q-12 -18 -38.5 -18t-28.5 24q0 14 7 24l48 71q23 35 31 45q4 5 13.5 16t17 13.5t19.5 6t29.5 3.5t27.5 -9l10 -10t8.5 -15t6.5 -17t6.5 -22t6.5 -23l22 -78q3 -11 3 -18q0 -30 -31 -30zM21 104q0 90 64.5 160.5
t137.5 70.5q41 0 41 -21v-6h23q28 0 28 -26v-6l-28 -172q-1 -4 -1 -11q0 -24 17 -24q38 0 90 67q7 9 14 9q10 0 17 -15.5t7 -27t-2 -17.5q-23 -32 -60 -58.5t-70.5 -26.5t-52 17.5t-22.5 47.5v-2q-17 -32 -45 -50q-29 -18 -69 -18t-64.5 30.5t-24.5 78.5zM134 65
q27 0 51.5 30t33.5 66l27 112q-58 0 -104 -55t-46 -104t38 -49z" />
    <glyph glyph-name="atilde" unicode="&#xe3;" horiz-adv-x="350" 
d="M310 388q-13 0 -26 4q-5 2 -12 6.5t-9.5 6.5t-10 8.5t-10.5 8.5t-17 13.5t-24 19.5l-13 -20q-14 -20 -24.5 -28t-23.5 -8t-21 6.5t-8 18.5q0 30 27 59.5t57 29.5q13 0 27 -5q4 -1 11 -5.5t9.5 -6.5t10 -8.5t10.5 -8.5t17 -13.5t24 -19.5q3 3 14 21t22 26.5t24.5 8.5
t21.5 -6.5t8 -18.5q0 -30 -27.5 -59.5t-56.5 -29.5zM21 104q0 90 64.5 160.5t137.5 70.5q41 0 41 -21v-6h23q28 0 28 -26v-6l-28 -172q-1 -4 -1 -11q0 -24 17 -24q38 0 90 67q7 9 14 9q10 0 17 -15.5t7 -27t-2 -17.5q-23 -32 -60 -58.5t-70.5 -26.5t-52 17.5t-22.5 47.5v-2
q-17 -32 -45 -50q-29 -18 -69 -18t-64.5 30.5t-24.5 78.5zM134 65q27 0 51.5 30t33.5 66l27 112q-58 0 -104 -55t-46 -104t38 -49z" />
    <glyph glyph-name="adieresis" unicode="&#xe4;" horiz-adv-x="350" 
d="M155 428q-47 0 -47 44q0 25 15.5 38t34.5 13q49 0 49 -44q0 -25 -16.5 -38t-35.5 -13zM351 428q-48 0 -48 48q0 22 15 34.5t34 12.5q50 0 50 -48q0 -23 -15.5 -35t-35.5 -12zM21 104q0 90 64.5 160.5t137.5 70.5q41 0 41 -21v-6h23q28 0 28 -26v-6l-28 -172q-1 -4 -1 -11
q0 -24 17 -24q38 0 90 67q7 9 14 9q10 0 17 -15.5t7 -27t-2 -17.5q-23 -32 -60 -58.5t-70.5 -26.5t-52 17.5t-22.5 47.5v-2q-17 -32 -45 -50q-29 -18 -69 -18t-64.5 30.5t-24.5 78.5zM134 65q27 0 51.5 30t33.5 66l27 112q-58 0 -104 -55t-46 -104t38 -49z" />
    <glyph glyph-name="aring" unicode="&#xe5;" horiz-adv-x="350" 
d="M243 439q21 0 38.5 15t17.5 33.5t-12 26t-31 7.5t-36 -13t-17 -31.5t11 -28t29 -9.5zM157 469q0 45 30 70t71 25t66 -19t25 -51q0 -11 -3 -23q-10 -37 -36.5 -58t-64 -21t-63 22t-25.5 55zM21 104q0 90 64.5 160.5t137.5 70.5q41 0 41 -21v-6h23q28 0 28 -26v-6l-28 -172
q-1 -4 -1 -11q0 -24 17 -24q38 0 90 67q7 9 14 9q10 0 17 -15.5t7 -27t-2 -17.5q-23 -32 -60 -58.5t-70.5 -26.5t-52 17.5t-22.5 47.5v-2q-17 -32 -45 -50q-29 -18 -69 -18t-64.5 30.5t-24.5 78.5zM134 65q27 0 51.5 30t33.5 66l27 112q-58 0 -104 -55t-46 -104t38 -49z" />
    <glyph glyph-name="ae" unicode="&#xe6;" horiz-adv-x="487" 
d="M236 63q-37 -69 -116 -69q-48 0 -75.5 29.5t-27.5 75.5v7q5 105 71 167t183 62q19 0 29.5 -7.5t11.5 -12t1 -8.5q36 23 75.5 23t66.5 -23t27 -62q0 -55 -45 -89t-136 -53q15 -43 70 -43h3q80 0 150 68q4 4 13 4t16.5 -7t7.5 -17t-7 -20q-26 -36 -80 -65t-104 -29
q-100 0 -134 69zM140 65q42 0 80 53q0 45 15 87t36 61q-70 0 -120.5 -51.5t-50.5 -100.5t40 -49zM326.5 228q-30.5 -37 -30.5 -81q125 42 125 90q0 28 -32 28t-62.5 -37z" />
    <glyph glyph-name="ccedilla" unicode="&#xe7;" horiz-adv-x="274" 
d="M134 -66q0 -3 -1 -5l-45 -130q-11 -31 -38 -31q-13 0 -23 8.5t-10 20t8 22.5l86 118q8 9 13 9q10 0 10 -12zM22 132q0 73 48 135.5t121 62.5q42 0 67.5 -23.5t25.5 -54.5t-19 -57t-33 -26t-21 8.5t-7 16.5t6.5 20.5t6.5 25.5t-9 19.5t-21 6.5q-32 0 -61.5 -35t-29.5 -100
q0 -37 21 -58t55 -21q71 0 153 90q6 6 13 6t13.5 -8.5t6.5 -18t-4 -16.5q-29 -45 -79.5 -78t-118 -33t-109.5 55q-25 33 -25 83z" />
    <glyph glyph-name="egrave" unicode="&#xe8;" horiz-adv-x="288" 
d="M184 407q-11 0 -20 9l-119 113q-14 13 -14 29t14 29t32 13t30 -19l86 -141q7 -10 7 -18q0 -15 -16 -15zM22 129q0 74 48.5 137.5t117.5 63.5q41 0 68 -23t27 -62q0 -55 -45 -89t-136 -53q14 -43 72 -43q80 0 151 68q4 4 12.5 4t16 -7t7.5 -17t-7 -20q-25 -35 -79 -64.5
t-112.5 -29.5t-99.5 34.5t-41 100.5zM127 227.5q-30 -37.5 -30 -80.5q125 43 125 90q0 28 -32.5 28t-62.5 -37.5z" />
    <glyph glyph-name="eacute" unicode="&#xe9;" horiz-adv-x="288" 
d="M22 129q0 74 48.5 137.5t117.5 63.5q41 0 68 -23t27 -62q0 -55 -45 -89t-136 -53q14 -43 72 -43q80 0 151 68q4 4 12.5 4t16 -7t7.5 -17t-7 -20q-25 -35 -79 -64.5t-112.5 -29.5t-99.5 34.5t-41 100.5zM127 227.5q-30 -37.5 -30 -80.5q125 43 125 90q0 28 -32.5 28
t-62.5 -37.5zM373 530q0 -16 -14 -29l-120 -114q-10 -9 -20 -9q-15 0 -15 16q0 7 6 18l87 140q11 19 29.5 19t32.5 -12.5t14 -28.5z" />
    <glyph glyph-name="ecircumflex" unicode="&#xea;" horiz-adv-x="288" 
d="M22 129q0 74 48.5 137.5t117.5 63.5q41 0 68 -23t27 -62q0 -55 -45 -89t-136 -53q14 -43 72 -43q80 0 151 68q4 4 12.5 4t16 -7t7.5 -17t-7 -20q-25 -35 -79 -64.5t-112.5 -29.5t-99.5 34.5t-41 100.5zM127 227.5q-30 -37.5 -30 -80.5q125 43 125 90q0 28 -32.5 28
t-62.5 -37.5zM332 392q-13 0 -23.5 6.5t-13.5 17.5l-38 136l-83 -123q-12 -18 -38.5 -18t-28.5 24q0 14 7 24l48 71q23 35 31 45q4 5 13.5 16t17 13.5t19.5 6t29.5 3.5t27.5 -9l10 -10t8.5 -15t6.5 -17t6.5 -22t6.5 -23l22 -78q3 -11 3 -18q0 -30 -31 -30z" />
    <glyph glyph-name="edieresis" unicode="&#xeb;" horiz-adv-x="288" 
d="M22 129q0 74 48.5 137.5t117.5 63.5q41 0 68 -23t27 -62q0 -55 -45 -89t-136 -53q14 -43 72 -43q80 0 151 68q4 4 12.5 4t16 -7t7.5 -17t-7 -20q-25 -35 -79 -64.5t-112.5 -29.5t-99.5 34.5t-41 100.5zM127 227.5q-30 -37.5 -30 -80.5q125 43 125 90q0 28 -32.5 28
t-62.5 -37.5zM112 401q-47 0 -47 44q0 25 15.5 38t34.5 13q49 0 49 -44q0 -25 -16.5 -38t-35.5 -13zM308 401q-48 0 -48 48q0 22 15 34.5t34 12.5q50 0 50 -48q0 -23 -15.5 -35t-35.5 -12z" />
    <glyph glyph-name="igrave" unicode="&#xec;" 
d="M141 407q-11 0 -20 9l-119 113q-14 13 -14 29t14 29t32 13t30 -19l86 -141q7 -10 7 -18q0 -15 -16 -15zM39 96q0 43 18 107.5t40 105.5q16 30 43 30q15 0 27 -6.5t12 -15.5t-11 -29.5t-31 -83t-20 -97.5q0 -47 35 -47q42 0 101 68q8 10 19.5 10t21 -8.5t9.5 -20
t-11 -25.5q-74 -87 -154 -87q-45 0 -72 27.5t-27 71.5z" />
    <glyph glyph-name="iacute" unicode="&#xed;" 
d="M39 96q0 43 18 107.5t40 105.5q16 30 43 30q15 0 27 -6.5t12 -15.5t-11 -29.5t-31 -83t-20 -97.5q0 -47 35 -47q42 0 101 68q8 10 19.5 10t21 -8.5t9.5 -20t-11 -25.5q-74 -87 -154 -87q-45 0 -72 27.5t-27 71.5zM315 571q0 -16 -14 -29l-120 -114q-10 -9 -20 -9
q-15 0 -15 16q0 7 6 18l87 140q11 19 29.5 19t32.5 -12.5t14 -28.5z" />
    <glyph glyph-name="icircumflex" unicode="&#xee;" 
d="M39 96q0 43 18 107.5t40 105.5q16 30 43 30q15 0 27 -6.5t12 -15.5t-11 -29.5t-31 -83t-20 -97.5q0 -47 35 -47q42 0 101 68q8 10 19.5 10t21 -8.5t9.5 -20t-11 -25.5q-74 -87 -154 -87q-45 0 -72 27.5t-27 71.5zM275 432q-13 0 -23.5 6.5t-13.5 17.5l-38 136l-83 -123
q-12 -18 -38.5 -18t-28.5 24q0 14 7 24l48 71q23 35 31 45q4 5 13.5 16t17 13.5t19.5 6t29.5 3.5t27.5 -9l10 -10t8.5 -15t6.5 -17t6.5 -22t6.5 -23l22 -78q3 -11 3 -18q0 -30 -31 -30z" />
    <glyph glyph-name="idieresis" unicode="&#xef;" 
d="M39 96q0 43 18 107.5t40 105.5q16 30 43 30q15 0 27 -6.5t12 -15.5t-11 -29.5t-31 -83t-20 -97.5q0 -47 35 -47q42 0 101 68q8 10 19.5 10t21 -8.5t9.5 -20t-11 -25.5q-74 -87 -154 -87q-45 0 -72 27.5t-27 71.5zM55 441q-47 0 -47 44q0 25 15.5 38t34.5 13q49 0 49 -44
q0 -25 -16.5 -38t-35.5 -13zM251 441q-48 0 -48 48q0 22 15 34.5t34 12.5q50 0 50 -48q0 -23 -15.5 -35t-35.5 -12z" />
    <glyph glyph-name="eth" unicode="&#xf0;" horiz-adv-x="372" 
d="M184.5 396.5q-9.5 11.5 -9.5 26.5t22 26l57 24q-39 42 -108 42q-13 0 -20.5 12t-7.5 26q0 38 50 38q102 0 164 -84l56 24q12 5 21 5t16.5 -10t7.5 -28t-29 -31l-41 -18q22 -58 22 -121q0 -136 -56.5 -232t-154.5 -96q-68 0 -110 38t-42 104q0 82 64 139.5t135 57.5
q39 0 77 -10q0 49 -12 87q-62 -31 -77 -31t-24.5 11.5zM185 65q70 0 105 184q-29 13 -71.5 13t-81 -35.5t-38.5 -79t23 -63t63 -19.5z" />
    <glyph glyph-name="ntilde" unicode="&#xf1;" horiz-adv-x="366" 
d="M310 388q-13 0 -26 4q-5 2 -12 6.5t-9.5 6.5t-10 8.5t-10.5 8.5t-17 13.5t-24 19.5l-13 -20q-14 -20 -24.5 -28t-23.5 -8t-21 6.5t-8 18.5q0 30 27 59.5t57 29.5q13 0 27 -5q4 -1 11 -5.5t9.5 -6.5t10 -8.5t10.5 -8.5t17 -13.5t24 -19.5q3 3 14 21t22 26.5t24.5 8.5
t21.5 -6.5t8 -18.5q0 -30 -27.5 -59.5t-56.5 -29.5zM309 67q38 8 92 59q4 4 11.5 4t16 -13.5t8.5 -21t-2 -11.5q-32 -41 -80 -63t-80 -22q-58 0 -58 63q0 33 20 95t20 66.5t-2 4.5h-1q-17 -7 -71.5 -79.5t-66.5 -102.5t-20.5 -38.5t-27.5 -8.5q-37 1 -37 76q2 106 44 219
q13 36 44 36q12 0 20 -8t8 -16.5t-1 -11.5q-23 -66 -37 -148q52 90 102 137.5t89 47.5q20 0 35 -12.5t15 -26.5q0 -22 -25.5 -99.5t-27.5 -91.5t-2 -24.5t6.5 -10t7.5 0.5z" />
    <glyph glyph-name="ograve" unicode="&#xf2;" horiz-adv-x="315" 
d="M128 -5q-50 0 -82 36t-32 90q0 82 53.5 145.5t125.5 63.5q42 0 70.5 -30t28.5 -76q0 -10 -4 -32q65 12 129 84q4 4 10.5 4t13.5 -9.5t7 -19t-4 -13.5q-67 -83 -166 -110q-33 -133 -150 -133zM143 59q26 0 48.5 29t25.5 58q-37 16 -37 41t26 50q-1 13 -6.5 19t-15.5 6
q-38 0 -65 -44.5t-27 -92.5q0 -66 51 -66zM187 407q-11 0 -20 9l-119 113q-14 13 -14 29t14 29t32 13t30 -19l86 -141q7 -10 7 -18q0 -15 -16 -15z" />
    <glyph glyph-name="oacute" unicode="&#xf3;" horiz-adv-x="315" 
d="M128 -5q-50 0 -82 36t-32 90q0 82 53.5 145.5t125.5 63.5q42 0 70.5 -30t28.5 -76q0 -10 -4 -32q65 12 129 84q4 4 10.5 4t13.5 -9.5t7 -19t-4 -13.5q-67 -83 -166 -110q-33 -133 -150 -133zM143 59q26 0 48.5 29t25.5 58q-37 16 -37 41t26 50q-1 13 -6.5 19t-15.5 6
q-38 0 -65 -44.5t-27 -92.5q0 -66 51 -66zM368 557q0 -16 -14 -29l-120 -114q-10 -9 -20 -9q-15 0 -15 16q0 7 6 18l87 140q11 19 29.5 19t32.5 -12.5t14 -28.5z" />
    <glyph glyph-name="ocircumflex" unicode="&#xf4;" horiz-adv-x="315" 
d="M128 -5q-50 0 -82 36t-32 90q0 82 53.5 145.5t125.5 63.5q42 0 70.5 -30t28.5 -76q0 -10 -4 -32q65 12 129 84q4 4 10.5 4t13.5 -9.5t7 -19t-4 -13.5q-67 -83 -166 -110q-33 -133 -150 -133zM143 59q26 0 48.5 29t25.5 58q-37 16 -37 41t26 50q-1 13 -6.5 19t-15.5 6
q-38 0 -65 -44.5t-27 -92.5q0 -66 51 -66zM328 419q-13 0 -23.5 6.5t-13.5 17.5l-38 136l-83 -123q-12 -18 -38.5 -18t-28.5 24q0 14 7 24l48 71q23 35 31 45q4 5 13.5 16t17 13.5t19.5 6t29.5 3.5t27.5 -9l10 -10t8.5 -15t6.5 -17t6.5 -22t6.5 -23l22 -78q3 -11 3 -18
q0 -30 -31 -30z" />
    <glyph glyph-name="otilde" unicode="&#xf5;" horiz-adv-x="315" 
d="M270 388q-13 0 -26 4q-5 2 -12 6.5t-9.5 6.5t-10 8.5t-10.5 8.5t-17 13.5t-24 19.5l-13 -20q-14 -20 -24.5 -28t-23.5 -8t-21 6.5t-8 18.5q0 30 27 59.5t57 29.5q13 0 27 -5q4 -1 11 -5.5t9.5 -6.5t10 -8.5t10.5 -8.5t17 -13.5t24 -19.5q3 3 14 21t22 26.5t24.5 8.5
t21.5 -6.5t8 -18.5q0 -30 -27.5 -59.5t-56.5 -29.5zM128 -5q-50 0 -82 36t-32 90q0 82 53.5 145.5t125.5 63.5q42 0 70.5 -30t28.5 -76q0 -10 -4 -32q65 12 129 84q4 4 10.5 4t13.5 -9.5t7 -19t-4 -13.5q-67 -83 -166 -110q-33 -133 -150 -133zM143 59q26 0 48.5 29t25.5 58
q-37 16 -37 41t26 50q-1 13 -6.5 19t-15.5 6q-38 0 -65 -44.5t-27 -92.5q0 -66 51 -66z" />
    <glyph glyph-name="odieresis" unicode="&#xf6;" horiz-adv-x="315" 
d="M128 -5q-50 0 -82 36t-32 90q0 82 53.5 145.5t125.5 63.5q42 0 70.5 -30t28.5 -76q0 -10 -4 -32q65 12 129 84q4 4 10.5 4t13.5 -9.5t7 -19t-4 -13.5q-67 -83 -166 -110q-33 -133 -150 -133zM143 59q26 0 48.5 29t25.5 58q-37 16 -37 41t26 50q-1 13 -6.5 19t-15.5 6
q-38 0 -65 -44.5t-27 -92.5q0 -66 51 -66zM108 428q-47 0 -47 44q0 25 15.5 38t34.5 13q49 0 49 -44q0 -25 -16.5 -38t-35.5 -13zM304 428q-48 0 -48 48q0 22 15 34.5t34 12.5q50 0 50 -48q0 -23 -15.5 -35t-35.5 -12z" />
    <glyph glyph-name="divide" unicode="&#xf7;" horiz-adv-x="439" 
d="M164 187q-43 0 -43 30q0 16 14.5 25.5t33.5 9.5h204q33 0 33 -26q0 -39 -37 -39h-205zM241 26q-48 0 -48 47q0 26 14.5 41t39.5 15q49 0 49 -47q0 -26 -14.5 -41t-40.5 -15zM285 311q-48 0 -48 47q0 26 14.5 41t39.5 15q49 0 49 -47q0 -26 -14.5 -41t-40.5 -15z" />
    <glyph glyph-name="oslash" unicode="&#xf8;" horiz-adv-x="322" 
d="M405 359q-117 -79 -209.5 -180.5t-182.5 -227.5q-4 -7 -12 -7q-13 0 -13 14q0 8 7 18q70 97 125 166q49 63 78 94q90 94 176 155q10 7 18.5 7t14.5 -7t6 -17t-8 -15zM128 -5q117 0 150 133q99 27 166 110q4 4 4 12q0 11 -7 20.5t-15 9.5q-5 0 -9 -4q-64 -72 -129 -84
q4 22 4 32q0 46 -28.5 76t-70.5 30q-72 0 -125.5 -63.5t-53.5 -145.5q0 -54 32 -90t82 -36zM143 59q-51 0 -51 66q0 48 27 92.5t65 44.5q10 0 15.5 -6t6.5 -12v-7q-26 -25 -26 -47q0 -28 37 -44q-3 -29 -25.5 -58t-48.5 -29z" />
    <glyph glyph-name="ugrave" unicode="&#xf9;" horiz-adv-x="347" 
d="M332 297q-35 -105 -45 -199l-1 -12q0 -23 14 -23q32 2 83 58q13 10 21.5 10t20.5 -11.5t12 -21.5q0 -23 -61.5 -62.5t-98.5 -39.5q-59 0 -60 59l3 31q-11 -31 -42 -61t-74 -30t-64.5 29t-21.5 75q0 60 20.5 125t32.5 85.5t31.5 20.5t29.5 -7.5t10 -14t-24 -73.5t-28 -118
v-7q0 -49 34 -49q27 0 55.5 31.5t44.5 86.5l27 100q10 33 19.5 42t25 9t26.5 -9t11 -20zM187 391q-11 0 -20 9l-119 113q-14 13 -14 29t14 29t32 13t30 -19l86 -141q7 -10 7 -18q0 -15 -16 -15z" />
    <glyph glyph-name="uacute" unicode="&#xfa;" horiz-adv-x="347" 
d="M332 297q-35 -105 -45 -199l-1 -12q0 -23 14 -23q32 2 83 58q13 10 21.5 10t20.5 -11.5t12 -21.5q0 -23 -61.5 -62.5t-98.5 -39.5q-59 0 -60 59l3 31q-11 -31 -42 -61t-74 -30t-64.5 29t-21.5 75q0 60 20.5 125t32.5 85.5t31.5 20.5t29.5 -7.5t10 -14t-24 -73.5t-28 -118
v-7q0 -49 34 -49q27 0 55.5 31.5t44.5 86.5l27 100q10 33 19.5 42t25 9t26.5 -9t11 -20zM369 542q0 -16 -14 -29l-120 -114q-10 -9 -20 -9q-15 0 -15 16q0 7 6 18l87 140q11 19 29.5 19t32.5 -12.5t14 -28.5z" />
    <glyph glyph-name="ucircumflex" unicode="&#xfb;" horiz-adv-x="347" 
d="M332 297q-35 -105 -45 -199l-1 -12q0 -23 14 -23q32 2 83 58q13 10 21.5 10t20.5 -11.5t12 -21.5q0 -23 -61.5 -62.5t-98.5 -39.5q-59 0 -60 59l3 31q-11 -31 -42 -61t-74 -30t-64.5 29t-21.5 75q0 60 20.5 125t32.5 85.5t31.5 20.5t29.5 -7.5t10 -14t-24 -73.5t-28 -118
v-7q0 -49 34 -49q27 0 55.5 31.5t44.5 86.5l27 100q10 33 19.5 42t25 9t26.5 -9t11 -20zM328 403q-13 0 -23.5 6.5t-13.5 17.5l-38 136l-83 -123q-12 -18 -38.5 -18t-28.5 24q0 14 7 24l48 71q23 35 31 45q4 5 13.5 16t17 13.5t19.5 6t29.5 3.5t27.5 -9l10 -10t8.5 -15
t6.5 -17t6.5 -22t6.5 -23l22 -78q3 -11 3 -18q0 -30 -31 -30z" />
    <glyph glyph-name="udieresis" unicode="&#xfc;" horiz-adv-x="347" 
d="M332 297q-35 -105 -45 -199l-1 -12q0 -23 14 -23q32 2 83 58q13 10 21.5 10t20.5 -11.5t12 -21.5q0 -23 -61.5 -62.5t-98.5 -39.5q-59 0 -60 59l3 31q-11 -31 -42 -61t-74 -30t-64.5 29t-21.5 75q0 60 20.5 125t32.5 85.5t31.5 20.5t29.5 -7.5t10 -14t-24 -73.5t-28 -118
v-7q0 -49 34 -49q27 0 55.5 31.5t44.5 86.5l27 100q10 33 19.5 42t25 9t26.5 -9t11 -20zM108 412q-47 0 -47 44q0 25 15.5 38t34.5 13q49 0 49 -44q0 -25 -16.5 -38t-35.5 -13zM304 412q-48 0 -48 48q0 22 15 34.5t34 12.5q50 0 50 -48q0 -23 -15.5 -35t-35.5 -12z" />
    <glyph glyph-name="yacute" unicode="&#xfd;" horiz-adv-x="346" 
d="M61 -317q-83 0 -83 68q0 18 6 31q3 8 5.5 14.5t8 14.5t8.5 12.5t10 13.5t9.5 12t10.5 11.5t9 10.5q33 38 103 85q37 24 50 34l30 87q-17 -33 -50 -55t-65.5 -22t-57 27.5t-24.5 68.5q0 97 48 188q7 13 21 22.5t26 9.5t21 -6.5t9 -20t-12 -35.5q-6 -12 -8 -18
q-25 -84 -25 -129.5t35 -45.5q53 0 83 101l29 104q12 45 46 45q30 0 30 -19q0 -27 -18.5 -105.5t-30.5 -151.5q99 72 165 106q6 3 14 3t17 -9.5t9 -25.5t-21 -29q-166 -98 -195 -117q-15 -84 -42 -149q-17 -42 -38 -68t-55.5 -44.5t-77.5 -18.5zM73 -259q22 0 43 19
q42 41 70 159q-44 -26 -89.5 -79.5t-45.5 -76t22 -22.5zM406 527q0 -16 -14 -29l-120 -114q-10 -9 -20 -9q-15 0 -15 16q0 7 6 18l87 140q11 19 29.5 19t32.5 -12.5t14 -28.5z" />
    <glyph glyph-name="thorn" unicode="&#xfe;" horiz-adv-x="339" 
d="M-13 -193l84 456q30 163 46 240q3 14 14 22.5t24 8.5q29 0 29 -31q0 -8 -1 -13l-42 -215q36 53 94 53q43 0 64 -34.5t21 -87.5q0 -69 -32 -107q28 5 109 67q8 7 16 7q19 0 19 -23.5t-15 -36.5q-74 -67 -157 -81q-33 -32 -78.5 -32t-82.5 26l-42 -229q-6 -27 -37 -27
q-14 0 -24 8t-10 22zM177 65q33 0 56.5 41.5t23.5 87.5q0 66 -44 66q-27 0 -47 -16q-39 -32 -57 -160q23 -19 68 -19z" />
    <glyph glyph-name="ydieresis" unicode="&#xff;" horiz-adv-x="346" 
d="M61 -317q-83 0 -83 68q0 18 6 31q3 8 5.5 14.5t8 14.5t8.5 12.5t10 13.5t9.5 12t10.5 11.5t9 10.5q33 38 103 85q37 24 50 34l30 87q-17 -33 -50 -55t-65.5 -22t-57 27.5t-24.5 68.5q0 97 48 188q7 13 21 22.5t26 9.5t21 -6.5t9 -20t-12 -35.5q-6 -12 -8 -18
q-25 -84 -25 -129.5t35 -45.5q53 0 83 101l29 104q12 45 46 45q30 0 30 -19q0 -27 -18.5 -105.5t-30.5 -151.5q99 72 165 106q6 3 14 3t17 -9.5t9 -25.5t-21 -29q-166 -98 -195 -117q-15 -84 -42 -149q-17 -42 -38 -68t-55.5 -44.5t-77.5 -18.5zM73 -259q22 0 43 19
q42 41 70 159q-44 -26 -89.5 -79.5t-45.5 -76t22 -22.5zM146 398q-47 0 -47 44q0 25 15.5 38t34.5 13q49 0 49 -44q0 -25 -16.5 -38t-35.5 -13zM342 398q-48 0 -48 48q0 22 15 34.5t34 12.5q50 0 50 -48q0 -23 -15.5 -35t-35.5 -12z" />
    <glyph glyph-name="Amacron" unicode="&#x100;" horiz-adv-x="684" 
d="M546 757q-52 0 -89 -8t-41 -8q-25 0 -25 31q0 46 104 46q62 0 143 -12q27 -8 27 -26q0 -26 -30 -26zM583 14q31 0 73 37q4 4 13.5 4t19.5 -10.5t10 -23t-7 -20.5q-20 -24 -56.5 -41t-70.5 -17q-83 0 -83 100q0 22 3 43q-21 -55 -78 -100.5t-119 -45.5q-112 0 -170.5 65
t-58.5 182.5t40.5 214t106 160t147.5 99.5t167 36q142 0 239 -93q13 -11 13 -27t-9.5 -26t-23 -10t-23.5 9q-91 66 -195 66q-143 0 -250.5 -116t-114.5 -302v-15q0 -80 37.5 -123t109 -43t124.5 57.5t72 142.5l64 282q4 23 27 23t38 -10.5t15 -21t-1 -12.5l-70 -317
q-15 -77 -15 -104t6 -35t20 -8z" />
    <glyph glyph-name="amacron" unicode="&#x101;" horiz-adv-x="350" 
d="M250 425q-52 0 -89 -8t-41 -8q-25 0 -25 31q0 46 104 46q62 0 143 -12q27 -8 27 -26q0 -26 -30 -26zM21 104q0 90 64.5 160.5t137.5 70.5q41 0 41 -21v-6h23q28 0 28 -26v-6l-28 -172q-1 -4 -1 -11q0 -24 17 -24q38 0 90 67q7 9 14 9q10 0 17 -15.5t7 -27t-2 -17.5
q-23 -32 -60 -58.5t-70.5 -26.5t-52 17.5t-22.5 47.5v-2q-17 -32 -45 -50q-29 -18 -69 -18t-64.5 30.5t-24.5 78.5zM134 65q27 0 51.5 30t33.5 66l27 112q-58 0 -104 -55t-46 -104t38 -49z" />
    <glyph glyph-name="Abreve" unicode="&#x102;" horiz-adv-x="684" 
d="M463 862q0 26 25 26t25 -23q0 -20 14.5 -31.5t36 -11.5t38.5 13.5t18 38.5q2 12 24.5 12t22.5 -13q0 -45 -30.5 -71t-76.5 -26t-71.5 23.5t-25.5 62.5zM583 14q31 0 73 37q4 4 13.5 4t19.5 -10.5t10 -23t-7 -20.5q-20 -24 -56.5 -41t-70.5 -17q-83 0 -83 100q0 22 3 43
q-21 -55 -78 -100.5t-119 -45.5q-112 0 -170.5 65t-58.5 182.5t40.5 214t106 160t147.5 99.5t167 36q142 0 239 -93q13 -11 13 -27t-9.5 -26t-23 -10t-23.5 9q-91 66 -195 66q-143 0 -250.5 -116t-114.5 -302v-15q0 -80 37.5 -123t109 -43t124.5 57.5t72 142.5l64 282
q4 23 27 23t38 -10.5t15 -21t-1 -12.5l-70 -317q-15 -77 -15 -104t6 -35t20 -8z" />
    <glyph glyph-name="abreve" unicode="&#x103;" horiz-adv-x="350" 
d="M167 530q0 26 25 26t25 -23q0 -20 14.5 -31.5t36 -11.5t38.5 13.5t18 38.5q2 12 24.5 12t22.5 -13q0 -45 -30.5 -71t-76.5 -26t-71.5 23.5t-25.5 62.5zM21 104q0 90 64.5 160.5t137.5 70.5q41 0 41 -21v-6h23q28 0 28 -26v-6l-28 -172q-1 -4 -1 -11q0 -24 17 -24
q38 0 90 67q7 9 14 9q10 0 17 -15.5t7 -27t-2 -17.5q-23 -32 -60 -58.5t-70.5 -26.5t-52 17.5t-22.5 47.5v-2q-17 -32 -45 -50q-29 -18 -69 -18t-64.5 30.5t-24.5 78.5zM134 65q27 0 51.5 30t33.5 66l27 112q-58 0 -104 -55t-46 -104t38 -49z" />
    <glyph glyph-name="Aogonek" unicode="&#x104;" horiz-adv-x="684" 
d="M462 -141q0 59 77 103h27q-44 -48 -44 -83q0 -22 23 -22.5t55 22.5q2 2 4.5 2t6 -8.5t3.5 -22.5t-7 -20q-33 -29 -85 -29q-60 0 -60 58zM583 14q31 0 73 37q4 4 13.5 4t19.5 -10.5t10 -23t-7 -20.5q-20 -24 -56.5 -41t-70.5 -17q-83 0 -83 100q0 22 3 43
q-21 -55 -78 -100.5t-119 -45.5q-112 0 -170.5 65t-58.5 182.5t40.5 214t106 160t147.5 99.5t167 36q142 0 239 -93q13 -11 13 -27t-9.5 -26t-23 -10t-23.5 9q-91 66 -195 66q-143 0 -250.5 -116t-114.5 -302v-15q0 -80 37.5 -123t109 -43t124.5 57.5t72 142.5l64 282
q4 23 27 23t38 -10.5t15 -21t-1 -12.5l-70 -317q-15 -77 -15 -104t6 -35t20 -8z" />
    <glyph glyph-name="aogonek" unicode="&#x105;" horiz-adv-x="350" 
d="M215 -95q0 59 77 103h27q-44 -48 -44 -83q0 -22 23 -22.5t55 22.5q2 2 4.5 2t6 -8.5t3.5 -22.5t-7 -20q-33 -29 -85 -29q-60 0 -60 58zM21 104q0 90 64.5 160.5t137.5 70.5q41 0 41 -21v-6h23q28 0 28 -26v-6l-28 -172q-1 -4 -1 -11q0 -24 17 -24q38 0 90 67q7 9 14 9
q10 0 17 -15.5t7 -27t-2 -17.5q-23 -32 -60 -58.5t-70.5 -26.5t-52 17.5t-22.5 47.5v-2q-17 -32 -45 -50q-29 -18 -69 -18t-64.5 30.5t-24.5 78.5zM134 65q27 0 51.5 30t33.5 66l27 112q-58 0 -104 -55t-46 -104t38 -49z" />
    <glyph glyph-name="Cacute" unicode="&#x106;" horiz-adv-x="593" 
d="M633 901q0 -16 -14 -29l-120 -114q-10 -9 -20 -9q-15 0 -15 16q0 7 6 18l87 140q11 19 29.5 19t32.5 -12.5t14 -28.5zM58 206q0 100 33.5 188t88 148t125 94.5t145 34.5t119 -39.5t44.5 -113t-56.5 -129.5t-145.5 -73q-16 -2 -21 -2q-37 0 -37 29q0 11 10.5 20t47.5 19
q57 16 91.5 50t34.5 78.5t-25.5 64.5t-70.5 20q-109 0 -198.5 -112.5t-89.5 -264.5q0 -114 46 -175.5t133 -61.5t157.5 45.5t116.5 117.5q4 7 15.5 7t23.5 -9t12 -16t-2 -11q-44 -95 -139 -152.5t-203.5 -57.5t-181.5 76t-73 225z" />
    <glyph glyph-name="cacute" unicode="&#x107;" horiz-adv-x="274" 
d="M22 132q0 73 48 135.5t121 62.5q42 0 67.5 -23.5t25.5 -54.5t-19 -57t-33 -26t-21 8.5t-7 16.5t6.5 20.5t6.5 25.5t-9 19.5t-21 6.5q-32 0 -61.5 -35t-29.5 -100q0 -37 21 -58t55 -21q71 0 153 90q6 6 13 6t13.5 -8.5t6.5 -18t-4 -16.5q-29 -45 -79.5 -78t-118 -33
t-109.5 55q-25 33 -25 83zM365 527q0 -16 -14 -29l-120 -114q-10 -9 -20 -9q-15 0 -15 16q0 7 6 18l87 140q11 19 29.5 19t32.5 -12.5t14 -28.5z" />
    <glyph glyph-name="Ccircumflex" unicode="&#x108;" horiz-adv-x="593" 
d="M580 751q-13 0 -23.5 6.5t-13.5 17.5l-38 136l-83 -123q-12 -18 -38.5 -18t-28.5 24q0 14 7 24l48 71q23 35 31 45q4 5 13.5 16t17 13.5t19.5 6t29.5 3.5t27.5 -9l10 -10t8.5 -15t6.5 -17t6.5 -22t6.5 -23l22 -78q3 -11 3 -18q0 -30 -31 -30zM58 206q0 100 33.5 188
t88 148t125 94.5t145 34.5t119 -39.5t44.5 -113t-56.5 -129.5t-145.5 -73q-16 -2 -21 -2q-37 0 -37 29q0 11 10.5 20t47.5 19q57 16 91.5 50t34.5 78.5t-25.5 64.5t-70.5 20q-109 0 -198.5 -112.5t-89.5 -264.5q0 -114 46 -175.5t133 -61.5t157.5 45.5t116.5 117.5
q4 7 15.5 7t23.5 -9t12 -16t-2 -11q-44 -95 -139 -152.5t-203.5 -57.5t-181.5 76t-73 225z" />
    <glyph glyph-name="ccircumflex" unicode="&#x109;" horiz-adv-x="274" 
d="M330 419q-13 0 -23.5 6.5t-13.5 17.5l-38 136l-83 -123q-12 -18 -38.5 -18t-28.5 24q0 14 7 24l48 71q23 35 31 45q4 5 13.5 16t17 13.5t19.5 6t29.5 3.5t27.5 -9l10 -10t8.5 -15t6.5 -17t6.5 -22t6.5 -23l22 -78q3 -11 3 -18q0 -30 -31 -30zM22 132q0 73 48 135.5
t121 62.5q42 0 67.5 -23.5t25.5 -54.5t-19 -57t-33 -26t-21 8.5t-7 16.5t6.5 20.5t6.5 25.5t-9 19.5t-21 6.5q-32 0 -61.5 -35t-29.5 -100q0 -37 21 -58t55 -21q71 0 153 90q6 6 13 6t13.5 -8.5t6.5 -18t-4 -16.5q-29 -45 -79.5 -78t-118 -33t-109.5 55q-25 33 -25 83z" />
    <glyph glyph-name="Cdotaccent" unicode="&#x10a;" horiz-adv-x="593" 
d="M502 778q-18 0 -31 12.5t-13 31.5t14.5 34t34 15t32.5 -12.5t13 -31.5t-15 -34t-35 -15zM58 206q0 100 33.5 188t88 148t125 94.5t145 34.5t119 -39.5t44.5 -113t-56.5 -129.5t-145.5 -73q-16 -2 -21 -2q-37 0 -37 29q0 11 10.5 20t47.5 19q57 16 91.5 50t34.5 78.5
t-25.5 64.5t-70.5 20q-109 0 -198.5 -112.5t-89.5 -264.5q0 -114 46 -175.5t133 -61.5t157.5 45.5t116.5 117.5q4 7 15.5 7t23.5 -9t12 -16t-2 -11q-44 -95 -139 -152.5t-203.5 -57.5t-181.5 76t-73 225z" />
    <glyph glyph-name="cdotaccent" unicode="&#x10b;" horiz-adv-x="274" 
d="M252 446q-18 0 -31 12.5t-13 31.5t14.5 34t34 15t32.5 -12.5t13 -31.5t-15 -34t-35 -15zM22 132q0 73 48 135.5t121 62.5q42 0 67.5 -23.5t25.5 -54.5t-19 -57t-33 -26t-21 8.5t-7 16.5t6.5 20.5t6.5 25.5t-9 19.5t-21 6.5q-32 0 -61.5 -35t-29.5 -100q0 -37 21 -58
t55 -21q71 0 153 90q6 6 13 6t13.5 -8.5t6.5 -18t-4 -16.5q-29 -45 -79.5 -78t-118 -33t-109.5 55q-25 33 -25 83z" />
    <glyph glyph-name="Ccaron" unicode="&#x10c;" horiz-adv-x="593" 
d="M401 969q20 0 29 -31l37 -139l56 123q4 12 10 23q1 3 4.5 9t6.5 8t7.5 4t15.5 2t22 -8t11 -18t-6 -20l-57 -106q-4 -7 -10 -18.5t-8.5 -16t-7 -12.5t-7 -10.5t-8.5 -9.5t-26 -7q-29 0 -40 11.5t-25 52.5l-40 118q-3 9 -3 17q0 28 39 28zM58 206q0 100 33.5 188t88 148
t125 94.5t145 34.5t119 -39.5t44.5 -113t-56.5 -129.5t-145.5 -73q-16 -2 -21 -2q-37 0 -37 29q0 11 10.5 20t47.5 19q57 16 91.5 50t34.5 78.5t-25.5 64.5t-70.5 20q-109 0 -198.5 -112.5t-89.5 -264.5q0 -114 46 -175.5t133 -61.5t157.5 45.5t116.5 117.5q4 7 15.5 7
t23.5 -9t12 -16t-2 -11q-44 -95 -139 -152.5t-203.5 -57.5t-181.5 76t-73 225z" />
    <glyph glyph-name="ccaron" unicode="&#x10d;" horiz-adv-x="274" 
d="M151 637q20 0 29 -31l37 -139l56 123q4 12 10 23q1 3 4.5 9t6.5 8t7.5 4t15.5 2t22 -8t11 -18t-6 -20l-57 -106q-4 -7 -10 -18.5t-8.5 -16t-7 -12.5t-7 -10.5t-8.5 -9.5t-26 -7q-29 0 -40 11.5t-25 52.5l-40 118q-3 9 -3 17q0 28 39 28zM22 132q0 73 48 135.5t121 62.5
q42 0 67.5 -23.5t25.5 -54.5t-19 -57t-33 -26t-21 8.5t-7 16.5t6.5 20.5t6.5 25.5t-9 19.5t-21 6.5q-32 0 -61.5 -35t-29.5 -100q0 -37 21 -58t55 -21q71 0 153 90q6 6 13 6t13.5 -8.5t6.5 -18t-4 -16.5q-29 -45 -79.5 -78t-118 -33t-109.5 55q-25 33 -25 83z" />
    <glyph glyph-name="Dcaron" unicode="&#x10e;" horiz-adv-x="607" 
d="M281 969q20 0 29 -31l37 -139l56 123q4 12 10 23q1 3 4.5 9t6.5 8t7.5 4t15.5 2t22 -8t11 -18t-6 -20l-57 -106q-4 -7 -10 -18.5t-8.5 -16t-7 -12.5t-7 -10.5t-8.5 -9.5t-26 -7q-29 0 -40 11.5t-25 52.5l-40 118q-3 9 -3 17q0 28 39 28zM159 51q0 -19 6 -26.5t25 -7.5
q136 0 233 107t97 244q0 98 -66 163.5t-177.5 65.5t-170.5 -60q-6 -6 -19 -25.5t-25 -32.5t-23 -13t-17.5 10.5t-6.5 27t12 44t20 36.5q78 91 219 91q162 0 250 -80.5t88 -216.5q0 -98 -35 -180t-92.5 -134.5t-129 -81.5t-137.5 -29t-128 28q-14 6 -13 24q2 136 37 292
t86 229q25 17 47 17t39 -28q-44 -57 -81.5 -209.5t-37.5 -254.5z" />
    <glyph glyph-name="dcaron" unicode="&#x10f;" horiz-adv-x="385" 
d="M22 114q0 82 52 149.5t119 67.5q17 0 35 -6q46 332 186 332q30 0 50.5 -20t22.5 -47q1 -7 1 -21q0 -88 -51 -181q-28 -52 -44.5 -79t-57.5 -86t-47 -68v-9q0 -86 46 -86q52 0 108 73q5 5 16 5t21 -9t10 -21t-8 -23q-69 -88 -155 -88q-67 0 -98 69q-29 -71 -105 -71
q-43 0 -72 33t-29 86zM139 65q28 0 45.5 26.5t27.5 96.5l12 76q-53 0 -88 -44t-35 -98v-11q3 -46 38 -46zM399 574q-33 0 -53 -54q-11 -27 -22.5 -66.5t-33.5 -201.5q4 6 8 14q2 2 24 36.5t39 64.5t37 81t20 88.5t-19 37.5z" />
    <glyph glyph-name="Dcroat" unicode="&#x110;" horiz-adv-x="607" 
d="M259 316q32 0 32 -26q0 -22 -29 -26q-60 -8 -102 -19t-54.5 -16.5t-30 -14t-27 -8.5t-17.5 10t-8 24q0 62 236 76zM159 51q0 -19 6 -26.5t25 -7.5q136 0 233 107t97 244q0 98 -66 163.5t-177.5 65.5t-170.5 -60q-6 -6 -19 -25.5t-25 -32.5t-23 -13t-17.5 10.5t-6.5 27
t12 44t20 36.5q78 91 219 91q162 0 250 -80.5t88 -216.5q0 -98 -35 -180t-92.5 -134.5t-129 -81.5t-137.5 -29t-128 28q-14 6 -13 24q2 136 37 292t86 229q25 17 47 17t39 -28q-44 -57 -81.5 -209.5t-37.5 -254.5z" />
    <glyph glyph-name="dcroat" unicode="&#x111;" horiz-adv-x="385" 
d="M263 408q-52 0 -89 -8t-41 -8q-25 0 -25 31q0 46 104 46q62 0 143 -12q27 -8 27 -26q0 -26 -30 -26zM22 114q0 82 52 149.5t119 67.5q17 0 35 -6q46 332 186 332q30 0 50.5 -20t22.5 -47q1 -7 1 -21q0 -88 -51 -181q-28 -52 -44.5 -79t-57.5 -86t-47 -68v-9q0 -86 46 -86
q52 0 108 73q5 5 16 5t21 -9t10 -21t-8 -23q-69 -88 -155 -88q-67 0 -98 69q-29 -71 -105 -71q-43 0 -72 33t-29 86zM139 65q28 0 45.5 26.5t27.5 96.5l12 76q-53 0 -88 -44t-35 -98v-11q3 -46 38 -46zM399 574q-33 0 -53 -54q-11 -27 -22.5 -66.5t-33.5 -201.5q4 6 8 14
q2 2 24 36.5t39 64.5t37 81t20 88.5t-19 37.5z" />
    <glyph glyph-name="Emacron" unicode="&#x112;" horiz-adv-x="553" 
d="M471 792q-52 0 -89 -8t-41 -8q-25 0 -25 31q0 46 104 46q62 0 143 -12q27 -8 27 -26q0 -26 -30 -26zM253 -104q-108 0 -160 45t-52 137.5t79.5 165.5t181.5 75q-97 13 -137 52t-40 111.5t45 123.5t110.5 74.5t144 23.5t141 -38.5t62.5 -105.5q0 -33 -13 -53t-26.5 -24.5
t-28.5 -4.5h-4q-14 0 -28 8q-25 14 -25 48q0 43 47 62q-47 43 -129.5 43t-140 -39t-57.5 -102t37.5 -95.5t124.5 -51.5q32 -8 32 -39q0 -19 -15 -33t-41 -14q-87 0 -152.5 -52.5t-65.5 -121.5q0 -112 113 -112q86 0 190.5 44t151.5 101q13 16 27.5 16t24 -13t9.5 -28.5
t-10 -26.5q-55 -69 -175.5 -122.5t-220.5 -53.5z" />
    <glyph glyph-name="emacron" unicode="&#x113;" horiz-adv-x="288" 
d="M230 425q-52 0 -89 -8t-41 -8q-25 0 -25 31q0 46 104 46q62 0 143 -12q27 -8 27 -26q0 -26 -30 -26zM22 129q0 74 48.5 137.5t117.5 63.5q41 0 68 -23t27 -62q0 -55 -45 -89t-136 -53q14 -43 72 -43q80 0 151 68q4 4 12.5 4t16 -7t7.5 -17t-7 -20q-25 -35 -79 -64.5
t-112.5 -29.5t-99.5 34.5t-41 100.5zM127 227.5q-30 -37.5 -30 -80.5q125 43 125 90q0 28 -32.5 28t-62.5 -37.5z" />
    <glyph glyph-name="Ebreve" unicode="&#x114;" horiz-adv-x="553" 
d="M388 897q0 26 25 26t25 -23q0 -20 14.5 -31.5t36 -11.5t38.5 13.5t18 38.5q2 12 24.5 12t22.5 -13q0 -45 -30.5 -71t-76.5 -26t-71.5 23.5t-25.5 62.5zM253 -104q-108 0 -160 45t-52 137.5t79.5 165.5t181.5 75q-97 13 -137 52t-40 111.5t45 123.5t110.5 74.5t144 23.5
t141 -38.5t62.5 -105.5q0 -33 -13 -53t-26.5 -24.5t-28.5 -4.5h-4q-14 0 -28 8q-25 14 -25 48q0 43 47 62q-47 43 -129.5 43t-140 -39t-57.5 -102t37.5 -95.5t124.5 -51.5q32 -8 32 -39q0 -19 -15 -33t-41 -14q-87 0 -152.5 -52.5t-65.5 -121.5q0 -112 113 -112
q86 0 190.5 44t151.5 101q13 16 27.5 16t24 -13t9.5 -28.5t-10 -26.5q-55 -69 -175.5 -122.5t-220.5 -53.5z" />
    <glyph glyph-name="ebreve" unicode="&#x115;" horiz-adv-x="288" 
d="M22 129q0 74 48.5 137.5t117.5 63.5q41 0 68 -23t27 -62q0 -55 -45 -89t-136 -53q14 -43 72 -43q80 0 151 68q4 4 12.5 4t16 -7t7.5 -17t-7 -20q-25 -35 -79 -64.5t-112.5 -29.5t-99.5 34.5t-41 100.5zM127 227.5q-30 -37.5 -30 -80.5q125 43 125 90q0 28 -32.5 28
t-62.5 -37.5zM124 489q0 26 25 26t25 -23q0 -20 14.5 -31.5t36 -11.5t38.5 13.5t18 38.5q2 12 24.5 12t22.5 -13q0 -45 -30.5 -71t-76.5 -26t-71.5 23.5t-25.5 62.5z" />
    <glyph glyph-name="Edotaccent" unicode="&#x116;" horiz-adv-x="553" 
d="M497 813q-18 0 -31 12.5t-13 31.5t14.5 34t34 15t32.5 -12.5t13 -31.5t-15 -34t-35 -15zM253 -104q-108 0 -160 45t-52 137.5t79.5 165.5t181.5 75q-97 13 -137 52t-40 111.5t45 123.5t110.5 74.5t144 23.5t141 -38.5t62.5 -105.5q0 -33 -13 -53t-26.5 -24.5t-28.5 -4.5
h-4q-14 0 -28 8q-25 14 -25 48q0 43 47 62q-47 43 -129.5 43t-140 -39t-57.5 -102t37.5 -95.5t124.5 -51.5q32 -8 32 -39q0 -19 -15 -33t-41 -14q-87 0 -152.5 -52.5t-65.5 -121.5q0 -112 113 -112q86 0 190.5 44t151.5 101q13 16 27.5 16t24 -13t9.5 -28.5t-10 -26.5
q-55 -69 -175.5 -122.5t-220.5 -53.5z" />
    <glyph glyph-name="edotaccent" unicode="&#x117;" horiz-adv-x="288" 
d="M22 129q0 74 48.5 137.5t117.5 63.5q41 0 68 -23t27 -62q0 -55 -45 -89t-136 -53q14 -43 72 -43q80 0 151 68q4 4 12.5 4t16 -7t7.5 -17t-7 -20q-25 -35 -79 -64.5t-112.5 -29.5t-99.5 34.5t-41 100.5zM127 227.5q-30 -37.5 -30 -80.5q125 43 125 90q0 28 -32.5 28
t-62.5 -37.5zM218 419q-18 0 -31 12.5t-13 31.5t14.5 34t34 15t32.5 -12.5t13 -31.5t-15 -34t-35 -15z" />
    <glyph glyph-name="Eogonek" unicode="&#x118;" horiz-adv-x="553" 
d="M245 -182q0 59 77 103h27q-44 -48 -44 -83q0 -22 23 -22.5t55 22.5q2 2 4.5 2t6 -8.5t3.5 -22.5t-7 -20q-33 -29 -85 -29q-60 0 -60 58zM253 -104q-108 0 -160 45t-52 137.5t79.5 165.5t181.5 75q-97 13 -137 52t-40 111.5t45 123.5t110.5 74.5t144 23.5t141 -38.5
t62.5 -105.5q0 -33 -13 -53t-26.5 -24.5t-28.5 -4.5h-4q-14 0 -28 8q-25 14 -25 48q0 43 47 62q-47 43 -129.5 43t-140 -39t-57.5 -102t37.5 -95.5t124.5 -51.5q32 -8 32 -39q0 -19 -15 -33t-41 -14q-87 0 -152.5 -52.5t-65.5 -121.5q0 -112 113 -112q86 0 190.5 44
t151.5 101q13 16 27.5 16t24 -13t9.5 -28.5t-10 -26.5q-55 -69 -175.5 -122.5t-220.5 -53.5z" />
    <glyph glyph-name="eogonek" unicode="&#x119;" horiz-adv-x="288" 
d="M105 -95q0 59 77 103h27q-44 -48 -44 -83q0 -22 23 -22.5t55 22.5q2 2 4.5 2t6 -8.5t3.5 -22.5t-7 -20q-33 -29 -85 -29q-60 0 -60 58zM22 129q0 74 48.5 137.5t117.5 63.5q41 0 68 -23t27 -62q0 -55 -45 -89t-136 -53q14 -43 72 -43q80 0 151 68q4 4 12.5 4t16 -7
t7.5 -17t-7 -20q-25 -35 -79 -64.5t-112.5 -29.5t-99.5 34.5t-41 100.5zM127 227.5q-30 -37.5 -30 -80.5q125 43 125 90q0 28 -32.5 28t-62.5 -37.5z" />
    <glyph glyph-name="Ecaron" unicode="&#x11a;" horiz-adv-x="553" 
d="M396 1004q20 0 29 -31l37 -139l56 123q4 12 10 23q1 3 4.5 9t6.5 8t7.5 4t15.5 2t22 -8t11 -18t-6 -20l-57 -106q-4 -7 -10 -18.5t-8.5 -16t-7 -12.5t-7 -10.5t-8.5 -9.5t-26 -7q-29 0 -40 11.5t-25 52.5l-40 118q-3 9 -3 17q0 28 39 28zM253 -104q-108 0 -160 45
t-52 137.5t79.5 165.5t181.5 75q-97 13 -137 52t-40 111.5t45 123.5t110.5 74.5t144 23.5t141 -38.5t62.5 -105.5q0 -33 -13 -53t-26.5 -24.5t-28.5 -4.5h-4q-14 0 -28 8q-25 14 -25 48q0 43 47 62q-47 43 -129.5 43t-140 -39t-57.5 -102t37.5 -95.5t124.5 -51.5
q32 -8 32 -39q0 -19 -15 -33t-41 -14q-87 0 -152.5 -52.5t-65.5 -121.5q0 -112 113 -112q86 0 190.5 44t151.5 101q13 16 27.5 16t24 -13t9.5 -28.5t-10 -26.5q-55 -69 -175.5 -122.5t-220.5 -53.5z" />
    <glyph glyph-name="ecaron" unicode="&#x11b;" horiz-adv-x="288" 
d="M22 129q0 74 48.5 137.5t117.5 63.5q41 0 68 -23t27 -62q0 -55 -45 -89t-136 -53q14 -43 72 -43q80 0 151 68q4 4 12.5 4t16 -7t7.5 -17t-7 -20q-25 -35 -79 -64.5t-112.5 -29.5t-99.5 34.5t-41 100.5zM127 227.5q-30 -37.5 -30 -80.5q125 43 125 90q0 28 -32.5 28
t-62.5 -37.5zM133 610q20 0 29 -31l37 -139l56 123q4 12 10 23q1 3 4.5 9t6.5 8t7.5 4t15.5 2t22 -8t11 -18t-6 -20l-57 -106q-4 -7 -10 -18.5t-8.5 -16t-7 -12.5t-7 -10.5t-8.5 -9.5t-26 -7q-29 0 -40 11.5t-25 52.5l-40 118q-3 9 -3 17q0 28 39 28z" />
    <glyph glyph-name="Gcircumflex" unicode="&#x11c;" horiz-adv-x="712" 
d="M650 751q-13 0 -23.5 6.5t-13.5 17.5l-38 136l-83 -123q-12 -18 -38.5 -18t-28.5 24q0 14 7 24l48 71q23 35 31 45q4 5 13.5 16t17 13.5t19.5 6t29.5 3.5t27.5 -9l10 -10t8.5 -15t6.5 -17t6.5 -22t6.5 -23l22 -78q3 -11 3 -18q0 -30 -31 -30zM59 200q0 88 29 166
q50 141 181 230q116 80 240 80q82 0 134 -42t52 -121q0 -51 -49 -51q-22 0 -34.5 11t-12.5 46t-27.5 55t-72.5 20q-90 0 -177 -63q-45 -33 -81.5 -77.5t-59.5 -110.5t-23 -141q0 -95 51.5 -140t137.5 -45q114 0 256 70l6 29q1 4 1 12t-10 11t-40 3t-44 7.5t-14 28.5
q0 41 61 41q76 0 104 -12.5t28 -48.5q0 -14 -5 -39q-42 -230 -113 -340.5t-180 -110.5q-49 0 -106 21q-37 14 -37 44q0 19 14.5 34.5t32.5 15.5q3 0 11 -2q52 -19 90 -19q61 0 105 59t85 206q-22 -30 -101.5 -57t-163.5 -27q-110 0 -185 55q-83 60 -83 202z" />
    <glyph glyph-name="gcircumflex" unicode="&#x11d;" horiz-adv-x="344" 
d="M332 271l-56 -237q103 84 144 84q9 0 19.5 -9.5t10.5 -25.5t-22 -27q-116 -63 -161 -93q-36 -163 -80 -215q-56 -65 -124 -65q-83 0 -83 68q0 18 6 31q3 8 5.5 14.5t8 14.5t8.5 12.5t10 13.5t9.5 12t10.5 11.5t22.5 25.5t59.5 50q16 13 42.5 32.5t39.5 29.5l10 48
q-13 -19 -40 -32.5t-52 -13.5q-42 0 -67.5 27.5t-25.5 68.5q0 92 64 161.5t145 69.5h4q17 0 26 -7.5t9 -16.5q9 4 23 4t24.5 -8.5t10.5 -21.5zM142 65q60 0 87 97l27 102q-60 0 -104.5 -51t-44.5 -99.5t35 -48.5zM58 -263q51 0 89 67.5t51 131.5q-10 -9 -31.5 -27
t-32.5 -27.5t-28.5 -25t-26.5 -26t-23 -29.5t-14 -43q0 -21 16 -21zM354 419q-13 0 -23.5 6.5t-13.5 17.5l-38 136l-83 -123q-12 -18 -38.5 -18t-28.5 24q0 14 7 24l48 71q23 35 31 45q4 5 13.5 16t17 13.5t19.5 6t29.5 3.5t27.5 -9l10 -10t8.5 -15t6.5 -17t6.5 -22t6.5 -23
l22 -78q3 -11 3 -18q0 -30 -31 -30z" />
    <glyph glyph-name="Gbreve" unicode="&#x11e;" horiz-adv-x="712" 
d="M463 862q0 26 25 26t25 -23q0 -20 14.5 -31.5t36 -11.5t38.5 13.5t18 38.5q2 12 24.5 12t22.5 -13q0 -45 -30.5 -71t-76.5 -26t-71.5 23.5t-25.5 62.5zM59 200q0 88 29 166q50 141 181 230q116 80 240 80q82 0 134 -42t52 -121q0 -51 -49 -51q-22 0 -34.5 11t-12.5 46
t-27.5 55t-72.5 20q-90 0 -177 -63q-45 -33 -81.5 -77.5t-59.5 -110.5t-23 -141q0 -95 51.5 -140t137.5 -45q114 0 256 70l6 29q1 4 1 12t-10 11t-40 3t-44 7.5t-14 28.5q0 41 61 41q76 0 104 -12.5t28 -48.5q0 -14 -5 -39q-42 -230 -113 -340.5t-180 -110.5q-49 0 -106 21
q-37 14 -37 44q0 19 14.5 34.5t32.5 15.5q3 0 11 -2q52 -19 90 -19q61 0 105 59t85 206q-22 -30 -101.5 -57t-163.5 -27q-110 0 -185 55q-83 60 -83 202z" />
    <glyph glyph-name="gbreve" unicode="&#x11f;" horiz-adv-x="344" 
d="M332 271l-56 -237q103 84 144 84q9 0 19.5 -9.5t10.5 -25.5t-22 -27q-116 -63 -161 -93q-36 -163 -80 -215q-56 -65 -124 -65q-83 0 -83 68q0 18 6 31q3 8 5.5 14.5t8 14.5t8.5 12.5t10 13.5t9.5 12t10.5 11.5t22.5 25.5t59.5 50q16 13 42.5 32.5t39.5 29.5l10 48
q-13 -19 -40 -32.5t-52 -13.5q-42 0 -67.5 27.5t-25.5 68.5q0 92 64 161.5t145 69.5h4q17 0 26 -7.5t9 -16.5q9 4 23 4t24.5 -8.5t10.5 -21.5zM142 65q60 0 87 97l27 102q-60 0 -104.5 -51t-44.5 -99.5t35 -48.5zM58 -263q51 0 89 67.5t51 131.5q-10 -9 -31.5 -27
t-32.5 -27.5t-28.5 -25t-26.5 -26t-23 -29.5t-14 -43q0 -21 16 -21zM167 530q0 26 25 26t25 -23q0 -20 14.5 -31.5t36 -11.5t38.5 13.5t18 38.5q2 12 24.5 12t22.5 -13q0 -45 -30.5 -71t-76.5 -26t-71.5 23.5t-25.5 62.5z" />
    <glyph glyph-name="Gdotaccent" unicode="&#x120;" horiz-adv-x="712" 
d="M572 778q-18 0 -31 12.5t-13 31.5t14.5 34t34 15t32.5 -12.5t13 -31.5t-15 -34t-35 -15zM59 200q0 88 29 166q50 141 181 230q116 80 240 80q82 0 134 -42t52 -121q0 -51 -49 -51q-22 0 -34.5 11t-12.5 46t-27.5 55t-72.5 20q-90 0 -177 -63q-45 -33 -81.5 -77.5
t-59.5 -110.5t-23 -141q0 -95 51.5 -140t137.5 -45q114 0 256 70l6 29q1 4 1 12t-10 11t-40 3t-44 7.5t-14 28.5q0 41 61 41q76 0 104 -12.5t28 -48.5q0 -14 -5 -39q-42 -230 -113 -340.5t-180 -110.5q-49 0 -106 21q-37 14 -37 44q0 19 14.5 34.5t32.5 15.5q3 0 11 -2
q52 -19 90 -19q61 0 105 59t85 206q-22 -30 -101.5 -57t-163.5 -27q-110 0 -185 55q-83 60 -83 202z" />
    <glyph glyph-name="gdotaccent" unicode="&#x121;" horiz-adv-x="344" 
d="M332 271l-56 -237q103 84 144 84q9 0 19.5 -9.5t10.5 -25.5t-22 -27q-116 -63 -161 -93q-36 -163 -80 -215q-56 -65 -124 -65q-83 0 -83 68q0 18 6 31q3 8 5.5 14.5t8 14.5t8.5 12.5t10 13.5t9.5 12t10.5 11.5t22.5 25.5t59.5 50q16 13 42.5 32.5t39.5 29.5l10 48
q-13 -19 -40 -32.5t-52 -13.5q-42 0 -67.5 27.5t-25.5 68.5q0 92 64 161.5t145 69.5h4q17 0 26 -7.5t9 -16.5q9 4 23 4t24.5 -8.5t10.5 -21.5zM142 65q60 0 87 97l27 102q-60 0 -104.5 -51t-44.5 -99.5t35 -48.5zM58 -263q51 0 89 67.5t51 131.5q-10 -9 -31.5 -27
t-32.5 -27.5t-28.5 -25t-26.5 -26t-23 -29.5t-14 -43q0 -21 16 -21zM285 446q-18 0 -31 12.5t-13 31.5t14.5 34t34 15t32.5 -12.5t13 -31.5t-15 -34t-35 -15z" />
    <glyph glyph-name="Gcommaaccent" unicode="&#x122;" horiz-adv-x="712" 
d="M323.5 -515q-38.5 -39 -80.5 -50q-3 -1 -8 -1q-16 0 -16 13q0 6 4 12t15 23q35 58 41 104q4 35 46 35q37 0 37 -48.5t-38.5 -87.5zM59 200q0 88 29 166q50 141 181 230q116 80 240 80q82 0 134 -42t52 -121q0 -51 -49 -51q-22 0 -34.5 11t-12.5 46t-27.5 55t-72.5 20
q-90 0 -177 -63q-45 -33 -81.5 -77.5t-59.5 -110.5t-23 -141q0 -95 51.5 -140t137.5 -45q114 0 256 70l6 29q1 4 1 12t-10 11t-40 3t-44 7.5t-14 28.5q0 41 61 41q76 0 104 -12.5t28 -48.5q0 -14 -5 -39q-42 -230 -113 -340.5t-180 -110.5q-49 0 -106 21q-37 14 -37 44
q0 19 14.5 34.5t32.5 15.5q3 0 11 -2q52 -19 90 -19q61 0 105 59t85 206q-22 -30 -101.5 -57t-163.5 -27q-110 0 -185 55q-83 60 -83 202z" />
    <glyph glyph-name="gcommaaccent" unicode="&#x123;" horiz-adv-x="344" 
d="M250 453q-41 0 -41 37q0 34 17 82q5 16 15.5 42.5t13.5 35.5q10 32 36 32q8 0 14 -8t6 -16t-18 -162q-2 -20 -14 -31.5t-29 -11.5zM332 271l-56 -237q103 84 144 84q9 0 19.5 -9.5t10.5 -25.5t-22 -27q-116 -63 -161 -93q-36 -163 -80 -215q-56 -65 -124 -65
q-83 0 -83 68q0 18 6 31q3 8 5.5 14.5t8 14.5t8.5 12.5t10 13.5t9.5 12t10.5 11.5t22.5 25.5t59.5 50q16 13 42.5 32.5t39.5 29.5l10 48q-13 -19 -40 -32.5t-52 -13.5q-42 0 -67.5 27.5t-25.5 68.5q0 92 64 161.5t145 69.5h4q17 0 26 -7.5t9 -16.5q9 4 23 4t24.5 -8.5
t10.5 -21.5zM142 65q60 0 87 97l27 102q-60 0 -104.5 -51t-44.5 -99.5t35 -48.5zM58 -263q51 0 89 67.5t51 131.5q-10 -9 -31.5 -27t-32.5 -27.5t-28.5 -25t-26.5 -26t-23 -29.5t-14 -43q0 -21 16 -21z" />
    <glyph glyph-name="Hcircumflex" unicode="&#x124;" horiz-adv-x="767" 
d="M640 751q-13 0 -23.5 6.5t-13.5 17.5l-38 136l-83 -123q-12 -18 -38.5 -18t-28.5 24q0 14 7 24l48 71q23 35 31 45q4 5 13.5 16t17 13.5t19.5 6t29.5 3.5t27.5 -9l10 -10t8.5 -15t6.5 -17t6.5 -22t6.5 -23l22 -78q3 -11 3 -18q0 -30 -31 -30zM746 566q-42 0 -85.5 -45.5
t-63.5 -130.5l-22 -89q105 31 164 89.5t59 120.5q0 26 -14.5 40.5t-37.5 14.5zM143 664q48 0 90 -18q99 -40 99 -147q0 -56 -24 -131l-31 -97q17 -1 79.5 -1t134.5 12l32 120q31 119 93.5 177t124 58t99.5 -34.5t38 -87.5v-9q-6 -84 -85.5 -162.5t-234.5 -115.5l-24 -98
q-15 -64 -15 -104q0 -85 64 -85q32 0 75 17q16 7 41 17.5t30.5 13t14 2.5t18 -12.5t9.5 -27.5t-11 -22q-98 -68 -190 -68q-62 0 -99.5 37t-37.5 114q0 50 15 106l25 95q-77 -10 -136.5 -10t-81.5 1l-79 -246q-11 -33 -21.5 -48t-32.5 -15q-48 0 -48 41q0 19 10 48l82 227
q-18 2 -56 6q-27 3 -27 26q0 15 11.5 27.5t27.5 12.5h4q24 -3 63 -7l26 71q36 99 36 154.5t-43 79.5q-30 16 -66 16q-59 0 -108 -40.5t-64 -119.5q-8 -45 -40 -45q-14 0 -24 10.5t-10 27.5q14 114 86 174t161 60z" />
    <glyph glyph-name="hcircumflex" unicode="&#x125;" horiz-adv-x="379" 
d="M31 71q0 21 2 43q9 171 67 353q30 91 80.5 150.5t111.5 59.5q36 0 57 -22t21 -58v-7q-8 -66 -61.5 -147t-181.5 -196l-18 -100q49 86 111.5 134.5t89.5 48.5t42 -11.5t15 -24.5t-5 -27.5t-36 -86.5t-31 -104q0 -10 11.5 -10t50.5 23t72 50q5 3 12.5 3t15 -12t7.5 -30.5
t-20 -32.5q-101 -68 -178 -68q-18 0 -33.5 15t-15.5 49t24 95t24 65t-3 4q-5 0 -16 -8q-37 -27 -78 -79.5t-53 -87t-20 -44t-28 -9.5t-28 18.5t-8 53.5zM269 596q-46 0 -95 -133q-26 -71 -38 -140q60 63 107 135.5t47 116.5q0 21 -21 21zM421 740q-13 0 -23.5 6.5
t-13.5 17.5l-38 136l-83 -123q-12 -18 -38.5 -18t-28.5 24q0 14 7 24l48 71q23 35 31 45q4 5 13.5 16t17 13.5t19.5 6t29.5 3.5t27.5 -9l10 -10t8.5 -15t6.5 -17t6.5 -22t6.5 -23l22 -78q3 -11 3 -18q0 -30 -31 -30z" />
    <glyph glyph-name="Hbar" unicode="&#x126;" horiz-adv-x="734" 
d="M651.5 408q-7.5 -9 -20.5 -10l-520 -10q-23 0 -23 21q0 10 7.5 17t21.5 8l519 21h1q10 0 16 -8t6 -19t-7.5 -20zM575 301l22 89q20 85 63.5 130.5t85.5 45.5q23 0 37.5 -14.5t14.5 -40.5q0 -8 -1 -13q-8 -58 -62.5 -112t-159.5 -85zM74 -64q0 -41 48 -41q22 0 32.5 15
t21.5 48l79 246q22 -1 65 -1q76 0 153 10l-25 -95q-15 -56 -15 -106q0 -77 37.5 -114t99.5 -37q92 0 190 68q11 7 11 22t-9.5 27.5t-21.5 12.5q-5 0 -7 -1q-9 -4 -34 -14.5t-41 -17t-37.5 -12t-37.5 -5.5q-64 0 -64 85q0 40 15 104l24 98q155 37 234.5 115.5t85.5 162.5v9
q0 53 -38 87.5t-93 34.5q-68 0 -130.5 -58t-93.5 -177l-32 -120q-72 -12 -164 -12q-33 0 -50 1l31 97q24 75 24 131q0 107 -99 147q-42 18 -90 18q-89 0 -159.5 -59t-86.5 -167q0 -2 -0.5 -4.5t-0.5 -3.5q0 -17 10 -27.5t24 -10.5q32 0 40 45q15 79 64 119.5t108 40.5
q36 0 66 -16q43 -24 43 -82q0 -53 -36 -152l-26 -71q-39 4 -63 7h-4q-16 0 -27.5 -12.5t-11.5 -27.5q0 -23 27 -26q38 -4 56 -6l-82 -227q-10 -29 -10 -48z" />
    <glyph glyph-name="hbar" unicode="&#x127;" horiz-adv-x="379" 
d="M157 461q-52 0 -89 -8t-41 -8q-25 0 -25 31q0 46 104 46q62 0 143 -12q27 -8 27 -26q0 -26 -30 -26zM31 71q0 21 2 43q9 171 67 353q30 91 80.5 150.5t111.5 59.5q36 0 57 -22t21 -58v-7q-8 -66 -61.5 -147t-181.5 -196l-18 -100q49 86 111.5 134.5t89.5 48.5t42 -11.5
t15 -24.5t-5 -27.5t-36 -86.5t-31 -104q0 -10 11.5 -10t50.5 23t72 50q5 3 12.5 3t15 -12t7.5 -30.5t-20 -32.5q-101 -68 -178 -68q-18 0 -33.5 15t-15.5 49t24 95t24 65t-3 4q-5 0 -16 -8q-37 -27 -78 -79.5t-53 -87t-20 -44t-28 -9.5t-28 18.5t-8 53.5zM269 596
q-46 0 -95 -133q-26 -71 -38 -140q60 63 107 135.5t47 116.5q0 21 -21 21z" />
    <glyph glyph-name="Itilde" unicode="&#x128;" horiz-adv-x="342" 
d="M416 720q-13 0 -26 4q-5 2 -12 6.5t-9.5 6.5t-10 8.5t-10.5 8.5t-17 13.5t-24 19.5l-13 -20q-14 -20 -24.5 -28t-23.5 -8t-21 6.5t-8 18.5q0 30 27 59.5t57 29.5q13 0 27 -5q4 -1 11 -5.5t9.5 -6.5t10 -8.5t10.5 -8.5t17 -13.5t24 -19.5q3 3 14 21t22 26.5t24.5 8.5
t21.5 -6.5t8 -18.5q0 -30 -27.5 -59.5t-56.5 -29.5zM0 4q0 10 2 15q5 17 49.5 26t82.5 10q19 129 59.5 276t84.5 246q-7 0 -33 -1t-41 -1h-2q-34 0 -46 5t-12 25t6.5 34.5t18 15.5t150.5 5t154 4q22 0 22 -28q0 -14 -7 -33q-7 -17 -89 -21q-42 -3 -45 -3q-7 -1 -40 -105.5
t-65.5 -232.5t-37.5 -183q5 1 51.5 1t60.5 -5.5t14 -21t-10.5 -27t-30.5 -12.5q-50 -2 -150.5 -12.5t-116.5 -10.5q-29 0 -29 34z" />
    <glyph glyph-name="itilde" unicode="&#x129;" 
d="M247 388q-13 0 -26 4q-5 2 -12 6.5t-9.5 6.5t-10 8.5t-10.5 8.5t-17 13.5t-24 19.5l-13 -20q-14 -20 -24.5 -28t-23.5 -8t-21 6.5t-8 18.5q0 30 27 59.5t57 29.5q13 0 27 -5q4 -1 11 -5.5t9.5 -6.5t10 -8.5t10.5 -8.5t17 -13.5t24 -19.5q3 3 14 21t22 26.5t24.5 8.5
t21.5 -6.5t8 -18.5q0 -30 -27.5 -59.5t-56.5 -29.5zM39 96q0 43 18 107.5t40 105.5q16 30 43 30q15 0 27 -6.5t12 -15.5t-11 -29.5t-31 -83t-20 -97.5q0 -47 35 -47q42 0 101 68q8 10 19.5 10t21 -8.5t9.5 -20t-11 -25.5q-74 -87 -154 -87q-45 0 -72 27.5t-27 71.5z" />
    <glyph glyph-name="Imacron" unicode="&#x12a;" horiz-adv-x="342" 
d="M356 757q-52 0 -89 -8t-41 -8q-25 0 -25 31q0 46 104 46q62 0 143 -12q27 -8 27 -26q0 -26 -30 -26zM0 4q0 10 2 15q5 17 49.5 26t82.5 10q19 129 59.5 276t84.5 246q-7 0 -33 -1t-41 -1h-2q-34 0 -46 5t-12 25t6.5 34.5t18 15.5t150.5 5t154 4q22 0 22 -28q0 -14 -7 -33
q-7 -17 -89 -21q-42 -3 -45 -3q-7 -1 -40 -105.5t-65.5 -232.5t-37.5 -183q5 1 51.5 1t60.5 -5.5t14 -21t-10.5 -27t-30.5 -12.5q-50 -2 -150.5 -12.5t-116.5 -10.5q-29 0 -29 34z" />
    <glyph glyph-name="imacron" unicode="&#x12b;" 
d="M187 425q-52 0 -89 -8t-41 -8q-25 0 -25 31q0 46 104 46q62 0 143 -12q27 -8 27 -26q0 -26 -30 -26zM39 96q0 43 18 107.5t40 105.5q16 30 43 30q15 0 27 -6.5t12 -15.5t-11 -29.5t-31 -83t-20 -97.5q0 -47 35 -47q42 0 101 68q8 10 19.5 10t21 -8.5t9.5 -20t-11 -25.5
q-74 -87 -154 -87q-45 0 -72 27.5t-27 71.5z" />
    <glyph glyph-name="Ibreve" unicode="&#x12c;" horiz-adv-x="342" 
d="M273 862q0 26 25 26t25 -23q0 -20 14.5 -31.5t36 -11.5t38.5 13.5t18 38.5q2 12 24.5 12t22.5 -13q0 -45 -30.5 -71t-76.5 -26t-71.5 23.5t-25.5 62.5zM0 4q0 10 2 15q5 17 49.5 26t82.5 10q19 129 59.5 276t84.5 246q-7 0 -33 -1t-41 -1h-2q-34 0 -46 5t-12 25t6.5 34.5
t18 15.5t150.5 5t154 4q22 0 22 -28q0 -14 -7 -33q-7 -17 -89 -21q-42 -3 -45 -3q-7 -1 -40 -105.5t-65.5 -232.5t-37.5 -183q5 1 51.5 1t60.5 -5.5t14 -21t-10.5 -27t-30.5 -12.5q-50 -2 -150.5 -12.5t-116.5 -10.5q-29 0 -29 34z" />
    <glyph glyph-name="ibreve" unicode="&#x12d;" 
d="M39 96q0 43 18 107.5t40 105.5q16 30 43 30q15 0 27 -6.5t12 -15.5t-11 -29.5t-31 -83t-20 -97.5q0 -47 35 -47q42 0 101 68q8 10 19.5 10t21 -8.5t9.5 -20t-11 -25.5q-74 -87 -154 -87q-45 0 -72 27.5t-27 71.5zM67 530q0 26 25 26t25 -23q0 -20 14.5 -31.5t36 -11.5
t38.5 13.5t18 38.5q2 12 24.5 12t22.5 -13q0 -45 -30.5 -71t-76.5 -26t-71.5 23.5t-25.5 62.5z" />
    <glyph glyph-name="Iogonek" unicode="&#x12e;" horiz-adv-x="342" 
d="M92 -95q0 59 77 103h27q-44 -48 -44 -83q0 -22 23 -22.5t55 22.5q2 2 4.5 2t6 -8.5t3.5 -22.5t-7 -20q-33 -29 -85 -29q-60 0 -60 58zM0 4q0 10 2 15q5 17 49.5 26t82.5 10q19 129 59.5 276t84.5 246q-7 0 -33 -1t-41 -1h-2q-34 0 -46 5t-12 25t6.5 34.5t18 15.5t150.5 5
t154 4q22 0 22 -28q0 -14 -7 -33q-7 -17 -89 -21q-42 -3 -45 -3q-7 -1 -40 -105.5t-65.5 -232.5t-37.5 -183q5 1 51.5 1t60.5 -5.5t14 -21t-10.5 -27t-30.5 -12.5q-50 -2 -150.5 -12.5t-116.5 -10.5q-29 0 -29 34z" />
    <glyph glyph-name="iogonek" unicode="&#x12f;" 
d="M52 -95q0 59 77 103h27q-44 -48 -44 -83q0 -22 23 -22.5t55 22.5q2 2 4.5 2t6 -8.5t3.5 -22.5t-7 -20q-33 -29 -85 -29q-60 0 -60 58zM39 96q0 43 18 107.5t40 105.5q16 30 43 30q15 0 27 -6.5t12 -15.5t-11 -29.5t-31 -83t-20 -97.5q0 -47 35 -47q42 0 101 68
q8 10 19.5 10t21 -8.5t9.5 -20t-11 -25.5q-74 -87 -154 -87q-45 0 -72 27.5t-27 71.5zM160 459q-18 0 -31 12.5t-13 31.5t14.5 34t34 15t32.5 -12.5t13 -31.5t-15 -34t-35 -15z" />
    <glyph glyph-name="Idotaccent" unicode="&#x130;" horiz-adv-x="342" 
d="M382 778q-18 0 -31 12.5t-13 31.5t14.5 34t34 15t32.5 -12.5t13 -31.5t-15 -34t-35 -15zM0 4q0 10 2 15q5 17 49.5 26t82.5 10q19 129 59.5 276t84.5 246q-7 0 -33 -1t-41 -1h-2q-34 0 -46 5t-12 25t6.5 34.5t18 15.5t150.5 5t154 4q22 0 22 -28q0 -14 -7 -33
q-7 -17 -89 -21q-42 -3 -45 -3q-7 -1 -40 -105.5t-65.5 -232.5t-37.5 -183q5 1 51.5 1t60.5 -5.5t14 -21t-10.5 -27t-30.5 -12.5q-50 -2 -150.5 -12.5t-116.5 -10.5q-29 0 -29 34z" />
    <glyph glyph-name="dotlessi" unicode="&#x131;" 
d="M39 96q0 43 18 107.5t40 105.5q16 30 43 30q15 0 27 -6.5t12 -15.5t-11 -29.5t-31 -83t-20 -97.5q0 -47 35 -47q42 0 101 68q8 10 19.5 10t21 -8.5t9.5 -20t-11 -25.5q-74 -87 -154 -87q-45 0 -72 27.5t-27 71.5z" />
    <glyph glyph-name="IJ" unicode="&#x132;" horiz-adv-x="842" 
d="M898 585q-50 -190 -95 -337q-51 -164 -121 -294q-68 -128 -142 -128q-73 0 -108.5 70t-35.5 185q0 20 8.5 30.5t20.5 10.5t21.5 -10t10.5 -26q6 -77 17 -120q14 -54 53 -54q38 0 84 75.5t87 190.5q76 209 125 408l-143 4q-227 0 -328 -12q-15 -28 -74.5 -235.5
t-66.5 -284.5q21 3 65 3h16q23 0 34 -5t11 -22q0 -14 -10.5 -25.5t-30.5 -12.5q-51 -2 -152.5 -14t-115 -12t-21 10t-7.5 22t2 17q5 17 49.5 26t82.5 10q19 132 58.5 278.5t82.5 242.5q-7 0 -32 -1t-39 -1h-6q-32 0 -44.5 5t-12.5 24t7.5 35t19.5 17t150 5t158 4h99
q183 0 270 -1q9 16 35.5 16t34.5 -17q36 -1 94 -1q28 0 28 -24q0 -12 -6 -25t-10 -14q-56 -14 -93 -14z" />
    <glyph glyph-name="ij" unicode="&#x133;" horiz-adv-x="426" 
d="M285 -208q-73 0 -73 130q0 168 80 358q12 28 26.5 38t47.5 10q20 0 20 -20t-22 -67l-24 -55q80 12 117 22q30 9 46.5 16t21.5 7q12 0 12 -20q0 -78 -143 -80q19 -63 19 -115t-12 -101t-42.5 -86t-73.5 -37zM286 -85q0 -46 17 -46q22 0 33.5 46t11.5 97q0 41 -20 141
q-33 -126 -41 -218zM391 394q-54 0 -54 47q0 25 17.5 39.5t44.5 14.5q50 0 50 -45q0 -26 -16 -41t-42 -15zM39 96q0 44 16 103.5t32 88.5t27.5 34.5t26 5.5t25 -7t10.5 -15t-11.5 -28t-29.5 -78t-18 -93q0 -47 35 -47q42 0 101 68q8 10 19.5 10t21 -8.5t9.5 -20t-11 -25.5
q-74 -87 -154 -87q-45 0 -72 27.5t-27 71.5zM186 394q-54 0 -54 47q0 25 17.5 39.5t44.5 14.5q50 0 50 -45q0 -26 -16 -41t-42 -15z" />
    <glyph glyph-name="Jcircumflex" unicode="&#x134;" horiz-adv-x="507" 
d="M650 751q-13 0 -23.5 6.5t-13.5 17.5l-38 136l-83 -123q-12 -18 -38.5 -18t-28.5 24q0 14 7 24l48 71q23 35 31 45q4 5 13.5 16t17 13.5t19.5 6t29.5 3.5t27.5 -9l10 -10t8.5 -15t6.5 -17t6.5 -22t6.5 -23l22 -78q3 -11 3 -18q0 -30 -31 -30zM208 -194h-2
q-143 0 -143 207q0 21 9 32.5t21 11.5t21.5 -9.5t10.5 -26.5q5 -69 18.5 -99.5t51.5 -30.5t84.5 78t87.5 195q77 221 122 415q-17 0 -98 3.5t-120 3.5q-162 0 -213 -55q-24 -25 -44 -74q-8 -17 -28 -17q-27 0 -27 27q0 7 1 11q27 114 107.5 157.5t214.5 43.5q40 0 230 -12
q9 12 33.5 12t32.5 -15q51 -3 106 -3q42 0 42 -37q0 -31 -43 -38.5t-118 -7.5q-46 -182 -105 -373q-39 -130 -110 -269q-67 -130 -142 -130z" />
    <glyph glyph-name="jcircumflex" unicode="&#x135;" horiz-adv-x="221" 
d="M80 -208q-73 0 -73 130q0 168 80 358q12 28 26.5 38t47.5 10q20 0 20 -20t-22 -67l-24 -55q80 12 117 22q30 9 46.5 16t21.5 7q12 0 12 -20q0 -78 -143 -80q19 -63 19 -115t-12 -101t-42.5 -86t-73.5 -37zM81 -85q0 -46 17 -46q22 0 33.5 46t11.5 97q0 41 -20 141
q-33 -126 -41 -218zM276 419q-13 0 -23.5 6.5t-13.5 17.5l-38 136l-83 -123q-12 -18 -38.5 -18t-28.5 24q0 14 7 24l48 71q23 35 31 45q4 5 13.5 16t17 13.5t19.5 6t29.5 3.5t27.5 -9l10 -10t8.5 -15t6.5 -17t6.5 -22t6.5 -23l22 -78q3 -11 3 -18q0 -30 -31 -30z" />
    <glyph glyph-name="Kcommaaccent" unicode="&#x136;" horiz-adv-x="646" 
d="M306.5 -332q-38.5 -39 -80.5 -50q-3 -1 -8 -1q-16 0 -16 13q0 6 4 12t15 23q35 58 41 104q4 35 46 35q37 0 37 -48.5t-38.5 -87.5zM3 304q-14 0 -28.5 16t-14.5 72q0 108 81 187t258 103h7q36 0 36 -33q0 -86 -22 -317q109 59 205.5 142t144.5 152q7 11 10.5 15.5
t15 17.5t28.5 13q28 0 28 -27q0 -17 -10 -40q-26 -55 -129 -152t-226 -159q58 -203 109.5 -286t131.5 -83q18 0 44.5 5.5t37.5 5.5t17 -8t6 -30q0 -23 -47 -33.5t-76 -10.5q-111 0 -180 108t-116 332q-38 -214 -103 -317.5t-173 -103.5t-108 34q0 17 14 35.5t29 18.5l50 -9
q114 0 173 167.5t59 492.5q-211 -43 -211 -219l4 -57q0 -24 -45 -32z" />
    <glyph glyph-name="kcommaaccent" unicode="&#x137;" horiz-adv-x="432" 
d="M187.5 -194q-38.5 -39 -80.5 -50q-3 -1 -8 -1q-16 0 -16 13q0 6 4 12t15 23q35 58 41 104q4 35 46 35q37 0 37 -48.5t-38.5 -87.5zM240 72q0 26 17.5 50t38 39t39 31t19 30t-11.5 14q-33 0 -70 -37.5t-64 -82.5t-61.5 -82.5t-63.5 -37.5q-37 0 -37 83q0 124 33 267
q19 83 46.5 150.5t73.5 113.5t103 46q33 0 51.5 -21t18.5 -61t-31 -101.5t-75 -116.5q-89 -108 -137 -149q-15 -87 -15 -130q137 245 256 245q32 0 49.5 -18t17.5 -49.5t-19 -58.5t-42 -42q-63 -38 -70 -77v-5q0 -19 30 -19t68 30q33 25 58 60q5 8 14.5 8t17.5 -11t8 -21.5
t-5 -18.5q-25 -39 -76 -73t-89 -34t-65 19t-27 60zM278 574q-40 0 -81 -94t-55 -184q64 74 101 126q28 39 40.5 71t12.5 56.5t-18 24.5z" />
    <glyph glyph-name="kgreenlandic" unicode="&#x138;" horiz-adv-x="432" 
d="M240 72q0 26 17.5 50t38 39t39 31t19 30t-11.5 14q-33 0 -70 -37.5t-64 -82.5t-61.5 -82.5t-63.5 -37.5q-37 0 -37 83q0 121 36 239q17 58 48.5 95t67.5 37t54.5 -16t18.5 -48t-35.5 -80.5t-106.5 -98.5q-15 -87 -15 -130q137 245 256 245q32 0 49.5 -18t17.5 -49.5
t-19 -58.5t-42 -42q-63 -38 -70 -77v-5q0 -19 30 -19t68 30q33 25 58 60q5 8 14.5 8t17.5 -11t8 -21.5t-5 -18.5q-25 -39 -76 -73t-89 -34t-65 19t-27 60zM199 388q-20 0 -37 -32t-26 -82q28 23 51.5 55t23.5 45.5t-12 13.5z" />
    <glyph glyph-name="Lacute" unicode="&#x139;" horiz-adv-x="622" 
d="M753 901q0 -16 -14 -29l-120 -114q-10 -9 -20 -9q-15 0 -15 16q0 7 6 18l87 140q11 19 29.5 19t32.5 -12.5t14 -28.5zM652 634q-25 0 -55 -9q-56 -17 -82.5 -64t-31.5 -147h21q124 0 187.5 41t63.5 94q0 35 -28.5 60t-74.5 25zM396 421q2 143 67 210q75 77 185 77
q85 0 137 -47.5t52 -112.5q0 -81 -83 -140t-244 -59h-28q1 -14 1 -43q0 -186 -67 -291q26 -16 98 -61q16 -10 46 -27t49 -25.5t53.5 -22.5t75.5 -14q64 0 106 51q13 14 25 14t18.5 -6.5t6.5 -16t-6 -19.5q-52 -93 -148 -93q-50 0 -102 21q-29 11 -50.5 20.5t-56.5 29
t-52 29.5t-56.5 34.5t-51.5 31.5q-70 -65 -182 -65q-64 0 -99.5 35t-35.5 80t29.5 76t81.5 31q72 0 188 -65q27 52 35 124.5t8 178.5q-63 8 -134 24q-18 4 -18 21.5t9.5 29.5t23.5 12zM189 -41q74 0 120 38q-90 49 -141 49h-1q-17 0 -27 -11t-10 -28.5t15.5 -32.5t43.5 -15z
" />
    <glyph glyph-name="lacute" unicode="&#x13a;" horiz-adv-x="249" 
d="M155 -3q-50 0 -77 40.5t-27 110.5q0 21 1 32q13 145 76 302q31 75 77 124.5t97 49.5q30 0 48 -19.5t18 -48.5v-8q-10 -101 -82 -211t-159 -178q-4 -32 -4 -49q0 -81 48 -81q50 0 111 70q7 7 17.5 7t20 -8.5t9.5 -21t-12 -25.5q-76 -86 -162 -86zM277 574
q-42 0 -84.5 -107t-57.5 -203q59 66 108.5 150t50.5 140q0 20 -17 20zM477 888q0 -16 -14 -29l-120 -114q-10 -9 -20 -9q-15 0 -15 16q0 7 6 18l87 140q11 19 29.5 19t32.5 -12.5t14 -28.5z" />
    <glyph glyph-name="Lcommaaccent" unicode="&#x13b;" horiz-adv-x="622" 
d="M415.5 -348q-38.5 -39 -80.5 -50q-3 -1 -8 -1q-16 0 -16 13q0 6 4 12t15 23q35 58 41 104q4 35 46 35q37 0 37 -48.5t-38.5 -87.5zM652 634q-25 0 -55 -9q-56 -17 -82.5 -64t-31.5 -147h21q124 0 187.5 41t63.5 94q0 35 -28.5 60t-74.5 25zM396 421q2 143 67 210
q75 77 185 77q85 0 137 -47.5t52 -112.5q0 -81 -83 -140t-244 -59h-28q1 -14 1 -43q0 -186 -67 -291q26 -16 98 -61q16 -10 46 -27t49 -25.5t53.5 -22.5t75.5 -14q64 0 106 51q13 14 25 14t18.5 -6.5t6.5 -16t-6 -19.5q-52 -93 -148 -93q-50 0 -102 21q-29 11 -50.5 20.5
t-56.5 29t-52 29.5t-56.5 34.5t-51.5 31.5q-70 -65 -182 -65q-64 0 -99.5 35t-35.5 80t29.5 76t81.5 31q72 0 188 -65q27 52 35 124.5t8 178.5q-63 8 -134 24q-18 4 -18 21.5t9.5 29.5t23.5 12zM189 -41q74 0 120 38q-90 49 -141 49h-1q-17 0 -27 -11t-10 -28.5t15.5 -32.5
t43.5 -15z" />
    <glyph glyph-name="lcommaaccent" unicode="&#x13c;" horiz-adv-x="249" 
d="M122.5 -194q-38.5 -39 -80.5 -50q-3 -1 -8 -1q-16 0 -16 13q0 6 4 12t15 23q35 58 41 104q4 35 46 35q37 0 37 -48.5t-38.5 -87.5zM155 -3q-50 0 -77 40.5t-27 110.5q0 21 1 32q13 145 76 302q31 75 77 124.5t97 49.5q30 0 48 -19.5t18 -48.5v-8q-10 -101 -82 -211
t-159 -178q-4 -32 -4 -49q0 -81 48 -81q50 0 111 70q7 7 17.5 7t20 -8.5t9.5 -21t-12 -25.5q-76 -86 -162 -86zM277 574q-42 0 -84.5 -107t-57.5 -203q59 66 108.5 150t50.5 140q0 20 -17 20z" />
    <glyph glyph-name="Lcaron" unicode="&#x13d;" horiz-adv-x="622" 
d="M929 543q0 4 3 8q0 1 6 8q48 55 86 145q9 19 30.5 19t33.5 -9t12 -26v-6q-4 -26 -55.5 -82t-98.5 -70h-3q-14 0 -14 13zM652 634q-25 0 -55 -9q-56 -17 -82.5 -64t-31.5 -147h21q124 0 187.5 41t63.5 94q0 35 -28.5 60t-74.5 25zM396 421q2 143 67 210q75 77 185 77
q85 0 137 -47.5t52 -112.5q0 -81 -83 -140t-244 -59h-28q1 -14 1 -43q0 -186 -67 -291q26 -16 98 -61q16 -10 46 -27t49 -25.5t53.5 -22.5t75.5 -14q64 0 106 51q13 14 25 14t18.5 -6.5t6.5 -16t-6 -19.5q-52 -93 -148 -93q-50 0 -102 21q-29 11 -50.5 20.5t-56.5 29
t-52 29.5t-56.5 34.5t-51.5 31.5q-70 -65 -182 -65q-64 0 -99.5 35t-35.5 80t29.5 76t81.5 31q72 0 188 -65q27 52 35 124.5t8 178.5q-63 8 -134 24q-18 4 -18 21.5t9.5 29.5t23.5 12zM189 -41q74 0 120 38q-90 49 -141 49h-1q-17 0 -27 -11t-10 -28.5t15.5 -32.5t43.5 -15z
" />
    <glyph glyph-name="lcaron" unicode="&#x13e;" horiz-adv-x="249" 
d="M155 -3q-50 0 -77 40.5t-27 110.5q0 21 1 32q13 145 76 302q31 75 77 124.5t97 49.5q30 0 48 -19.5t18 -48.5v-8q-10 -101 -82 -211t-159 -178q-4 -32 -4 -49q0 -81 48 -81q50 0 111 70q7 7 17.5 7t20 -8.5t9.5 -21t-12 -25.5q-76 -86 -162 -86zM277 574
q-42 0 -84.5 -107t-57.5 -203q59 66 108.5 150t50.5 140q0 20 -17 20zM426 546q0 4 3 8q0 1 6 8q48 55 86 145q9 19 30.5 19t33.5 -9t12 -26v-6q-4 -26 -55.5 -82t-98.5 -70h-3q-14 0 -14 13z" />
    <glyph glyph-name="Ldot" unicode="&#x13f;" horiz-adv-x="622" 
d="M648 113q-56 0 -56 55q0 30 16.5 48t45.5 18q58 0 58 -56q0 -30 -17 -47.5t-47 -17.5zM652 634q-25 0 -55 -9q-56 -17 -82.5 -64t-31.5 -147h21q124 0 187.5 41t63.5 94q0 35 -28.5 60t-74.5 25zM396 421q2 143 67 210q75 77 185 77q85 0 137 -47.5t52 -112.5
q0 -81 -83 -140t-244 -59h-28q1 -14 1 -43q0 -186 -67 -291q26 -16 98 -61q16 -10 46 -27t49 -25.5t53.5 -22.5t75.5 -14q64 0 106 51q13 14 25 14t18.5 -6.5t6.5 -16t-6 -19.5q-52 -93 -148 -93q-50 0 -102 21q-29 11 -50.5 20.5t-56.5 29t-52 29.5t-56.5 34.5t-51.5 31.5
q-70 -65 -182 -65q-64 0 -99.5 35t-35.5 80t29.5 76t81.5 31q72 0 188 -65q27 52 35 124.5t8 178.5q-63 8 -134 24q-18 4 -18 21.5t9.5 29.5t23.5 12zM189 -41q74 0 120 38q-90 49 -141 49h-1q-17 0 -27 -11t-10 -28.5t15.5 -32.5t43.5 -15z" />
    <glyph glyph-name="ldot" unicode="&#x140;" horiz-adv-x="249" 
d="M343 202q-56 0 -56 55q0 30 16.5 48t45.5 18q58 0 58 -56q0 -30 -17 -47.5t-47 -17.5zM155 -3q-50 0 -77 40.5t-27 110.5q0 21 1 32q13 145 76 302q31 75 77 124.5t97 49.5q30 0 48 -19.5t18 -48.5v-8q-10 -101 -82 -211t-159 -178q-4 -32 -4 -49q0 -81 48 -81
q50 0 111 70q7 7 17.5 7t20 -8.5t9.5 -21t-12 -25.5q-76 -86 -162 -86zM277 574q-42 0 -84.5 -107t-57.5 -203q59 66 108.5 150t50.5 140q0 20 -17 20z" />
    <glyph glyph-name="Lslash" unicode="&#x141;" horiz-adv-x="622" 
d="M558 230l-216 -100q-4 -2 -13 -2t-16 7t-7 20t21 23l210 97q6 3 13.5 3t15.5 -8t8 -20t-16 -20zM483 414q5 100 31.5 147t82.5 64q30 9 55 9q46 0 74.5 -25t28.5 -60q0 -53 -63.5 -94t-187.5 -41h-21zM353 53q-116 65 -188 65q-52 0 -81.5 -31t-29.5 -74q0 -47 35.5 -82
t99.5 -35q112 0 182 65q12 -7 51.5 -31.5t56.5 -34.5t52 -29.5t56.5 -29t50.5 -21t54 -16t48 -4.5q96 0 148 93q6 10 6 19q0 10 -6.5 16.5t-16.5 6.5q-14 0 -27 -14q-42 -51 -106 -51q-19 0 -40 4t-45.5 14t-43.5 18.5t-49 25.5t-46 27t-50.5 31.5t-47.5 29.5q67 105 67 291
q0 29 -1 43h28q161 0 244 59t83 140q0 65 -52 112.5t-137 47.5q-19 0 -40 -3q-43 -6 -78.5 -24t-66.5 -50t-48.5 -85.5t-18.5 -124.5q-51 7 -111 21q-3 1 -8 1q-14 0 -23.5 -12t-9.5 -26q0 -21 18 -25q71 -16 134 -24q0 -106 -8 -178.5t-35 -124.5zM309 -3q-46 -38 -120 -38
q-28 0 -43.5 15t-15.5 35q0 15 10 26t27 11h1q51 0 141 -49z" />
    <glyph glyph-name="lslash" unicode="&#x142;" horiz-adv-x="249" 
d="M188 126l-147 -66q-4 -2 -13.5 -2t-16 7t-6.5 16q0 19 21 27l141 63q4 2 13 2t17 -8t8 -20t-17 -19zM155 -3q86 0 162 86q12 13 12 26q0 12 -9.5 20.5t-20.5 8.5q-10 0 -17 -7q-61 -70 -111 -70q-48 0 -48 81q0 17 4 49q87 68 159 178t82 211v8q0 29 -18 48.5t-48 19.5
q-51 0 -97 -49.5t-76.5 -124.5t-50.5 -154t-26 -148q-1 -11 -1 -32q0 -70 27 -110.5t77 -40.5zM135 264q15 96 57.5 203t84.5 107q17 0 17 -20q-1 -56 -50.5 -140t-108.5 -150z" />
    <glyph glyph-name="Nacute" unicode="&#x143;" horiz-adv-x="606" 
d="M633 901q0 -16 -14 -29l-120 -114q-10 -9 -20 -9q-15 0 -15 16q0 7 6 18l87 140q11 19 29.5 19t32.5 -12.5t14 -28.5zM621 543q0 -56 -66 -239t-66 -226q0 -16 14 -28t37 -12q53 0 93 45q14 15 27.5 15t21.5 -7.5t8 -23.5t-24 -39.5t-62 -41t-69 -17.5q-61 0 -93 26.5
t-32 70.5q0 64 68 260q53 151 53 185q0 44 -39 44q-42 0 -78 -31q-20 -16 -37 -33.5t-36.5 -47.5t-35 -54.5t-34.5 -64.5t-33 -69t-33.5 -76t-32 -77t-23 -56t-16.5 -41.5t-8.5 -19t-10.5 -15.5t-33 -12q-32 0 -56 25q156 387 156 527q0 61 -25 61h-1q-55 0 -104 -133
q-2 -2 -11 -2t-28.5 14.5t-19.5 30t4 24.5q28 62 75 99.5t91.5 37.5t69.5 -24t26 -65q0 -69 -39 -221q41 108 79 170q27 44 55.5 73t68.5 48.5t89.5 19.5t79.5 -27t30 -73z" />
    <glyph glyph-name="nacute" unicode="&#x144;" horiz-adv-x="344" 
d="M309 67q38 8 92 59q4 4 11.5 4t16 -13.5t8.5 -21t-2 -11.5q-32 -41 -80 -63t-80 -22q-58 0 -58 63q0 33 20 95t20 66.5t-2 4.5h-1q-17 -7 -71.5 -79.5t-66.5 -102.5t-20.5 -38.5t-27.5 -8.5q-37 1 -37 76q2 106 44 219q13 36 44 36q12 0 20 -8t8 -16.5t-1 -11.5
q-23 -66 -37 -148q52 90 102 137.5t89 47.5q20 0 35 -12.5t15 -26.5q0 -22 -25.5 -99.5t-27.5 -91.5t-2 -24.5t6.5 -10t7.5 0.5zM406 558q0 -16 -14 -29l-120 -114q-10 -9 -20 -9q-15 0 -15 16q0 7 6 18l87 140q11 19 29.5 19t32.5 -12.5t14 -28.5z" />
    <glyph glyph-name="Ncommaaccent" unicode="&#x145;" horiz-adv-x="606" 
d="M268.5 -194q-38.5 -39 -80.5 -50q-3 -1 -8 -1q-16 0 -16 13q0 6 4 12t15 23q35 58 41 104q4 35 46 35q37 0 37 -48.5t-38.5 -87.5zM621 543q0 -56 -66 -239t-66 -226q0 -16 14 -28t37 -12q53 0 93 45q14 15 27.5 15t21.5 -7.5t8 -23.5t-24 -39.5t-62 -41t-69 -17.5
q-61 0 -93 26.5t-32 70.5q0 64 68 260q53 151 53 185q0 44 -39 44q-42 0 -78 -31q-20 -16 -37 -33.5t-36.5 -47.5t-35 -54.5t-34.5 -64.5t-33 -69t-33.5 -76t-32 -77t-23 -56t-16.5 -41.5t-8.5 -19t-10.5 -15.5t-33 -12q-32 0 -56 25q156 387 156 527q0 61 -25 61h-1
q-55 0 -104 -133q-2 -2 -11 -2t-28.5 14.5t-19.5 30t4 24.5q28 62 75 99.5t91.5 37.5t69.5 -24t26 -65q0 -69 -39 -221q41 108 79 170q27 44 55.5 73t68.5 48.5t89.5 19.5t79.5 -27t30 -73z" />
    <glyph glyph-name="ncommaaccent" unicode="&#x146;" horiz-adv-x="366" 
d="M122.5 -194q-38.5 -39 -80.5 -50q-3 -1 -8 -1q-16 0 -16 13q0 6 4 12t15 23q35 58 41 104q4 35 46 35q37 0 37 -48.5t-38.5 -87.5zM309 67q38 8 92 59q4 4 11.5 4t16 -13.5t8.5 -21t-2 -11.5q-32 -41 -80 -63t-80 -22q-58 0 -58 63q0 33 20 95t20 66.5t-2 4.5h-1
q-17 -7 -71.5 -79.5t-66.5 -102.5t-20.5 -38.5t-27.5 -8.5q-37 1 -37 76q2 106 44 219q13 36 44 36q12 0 20 -8t8 -16.5t-1 -11.5q-23 -66 -37 -148q52 90 102 137.5t89 47.5q20 0 35 -12.5t15 -26.5q0 -22 -25.5 -99.5t-27.5 -91.5t-2 -24.5t6.5 -10t7.5 0.5z" />
    <glyph glyph-name="Ncaron" unicode="&#x147;" horiz-adv-x="606" 
d="M401 969q20 0 29 -31l37 -139l56 123q4 12 10 23q1 3 4.5 9t6.5 8t7.5 4t15.5 2t22 -8t11 -18t-6 -20l-57 -106q-4 -7 -10 -18.5t-8.5 -16t-7 -12.5t-7 -10.5t-8.5 -9.5t-26 -7q-29 0 -40 11.5t-25 52.5l-40 118q-3 9 -3 17q0 28 39 28zM621 543q0 -56 -66 -239t-66 -226
q0 -16 14 -28t37 -12q53 0 93 45q14 15 27.5 15t21.5 -7.5t8 -23.5t-24 -39.5t-62 -41t-69 -17.5q-61 0 -93 26.5t-32 70.5q0 64 68 260q53 151 53 185q0 44 -39 44q-42 0 -78 -31q-20 -16 -37 -33.5t-36.5 -47.5t-35 -54.5t-34.5 -64.5t-33 -69t-33.5 -76t-32 -77t-23 -56
t-16.5 -41.5t-8.5 -19t-10.5 -15.5t-33 -12q-32 0 -56 25q156 387 156 527q0 61 -25 61h-1q-55 0 -104 -133q-2 -2 -11 -2t-28.5 14.5t-19.5 30t4 24.5q28 62 75 99.5t91.5 37.5t69.5 -24t26 -65q0 -69 -39 -221q41 108 79 170q27 44 55.5 73t68.5 48.5t89.5 19.5t79.5 -27
t30 -73z" />
    <glyph glyph-name="ncaron" unicode="&#x148;" horiz-adv-x="344" 
d="M309 67q38 8 92 59q4 4 11.5 4t16 -13.5t8.5 -21t-2 -11.5q-32 -41 -80 -63t-80 -22q-58 0 -58 63q0 33 20 95t20 66.5t-2 4.5h-1q-17 -7 -71.5 -79.5t-66.5 -102.5t-20.5 -38.5t-27.5 -8.5q-37 1 -37 76q2 106 44 219q13 36 44 36q12 0 20 -8t8 -16.5t-1 -11.5
q-23 -66 -37 -148q52 90 102 137.5t89 47.5q20 0 35 -12.5t15 -26.5q0 -22 -25.5 -99.5t-27.5 -91.5t-2 -24.5t6.5 -10t7.5 0.5zM167 637q20 0 29 -31l37 -139l56 123q4 12 10 23q1 3 4.5 9t6.5 8t7.5 4t15.5 2t22 -8t11 -18t-6 -20l-57 -106q-4 -7 -10 -18.5t-8.5 -16
t-7 -12.5t-7 -10.5t-8.5 -9.5t-26 -7q-29 0 -40 11.5t-25 52.5l-40 118q-3 9 -3 17q0 28 39 28z" />
    <glyph glyph-name="napostrophe" unicode="&#x149;" horiz-adv-x="366" 
d="M309 67q38 8 92 59q4 4 11.5 4t16 -13.5t8.5 -21t-2 -11.5q-32 -41 -80 -63t-80 -22q-58 0 -58 63q0 33 20 95t20 66.5t-2 4.5h-1q-17 -7 -71.5 -79.5t-66.5 -102.5t-20.5 -38.5t-27.5 -8.5q-37 1 -37 76q2 106 44 219q13 36 44 36q12 0 20 -8t8 -16.5t-1 -11.5
q-23 -66 -37 -148q52 90 102 137.5t89 47.5q20 0 35 -12.5t15 -26.5q0 -22 -25.5 -99.5t-27.5 -91.5t-2 -24.5t6.5 -10t7.5 0.5zM138 516q0 4 3 8q0 1 6 8q48 55 86 145q9 19 30.5 19t33.5 -9t12 -26v-6q-4 -26 -55.5 -82t-98.5 -70h-3q-14 0 -14 13z" />
    <glyph glyph-name="Eng" unicode="&#x14a;" horiz-adv-x="538" 
d="M53 -264v7q6 53 75 125.5t178 129.5q78 219 114 328q25 78 34 118t9 62.5t-10 35.5t-29 13q-52 0 -109 -59q-24 -24 -52.5 -68.5t-49 -83t-49 -102t-46 -106.5t-32.5 -79.5t-21 -52t-8.5 -19t-10.5 -15.5t-33 -12q-32 0 -55 25q154 389 154 527q0 61 -24 61h-1
q-24 0 -57 -46t-48 -87q0 -2 -9.5 -2t-29 14.5t-19.5 30t4 24.5q24 54 67.5 91t99.5 42h8q36 0 61 -24.5t25 -73t-38 -208.5q41 108 79 170q27 44 55.5 73t68.5 48.5t89.5 19.5t79.5 -27t30 -80t-31 -150q-17 -53 -32 -96t-44.5 -123t-47.5 -133q104 60 159 72q3 1 8 1
q20 0 20 -17q0 -21 -33 -38q-17 -9 -72.5 -31.5t-94.5 -45.5q-55 -142 -126.5 -216.5t-138.5 -74.5t-67 52zM123 -263q47 0 93 65.5t74 139.5q-81 -43 -132 -99.5t-51 -89.5q0 -16 16 -16z" />
    <glyph glyph-name="eng" unicode="&#x14b;" horiz-adv-x="337" 
d="M-18 -193q0 23 18 53q23 42 73 84q49 45 121 82l33 92q13 39 33 111q-57 -37 -139 -179q-12 -21 -17 -28q-14 -22 -33 -22q-31 0 -31 53v21q0 106 41 220q13 36 44 36q12 0 20.5 -8t8.5 -15t-8.5 -33.5t-34.5 -137.5q121 192 184 192q18 0 28 -8.5t10 -20.5
q0 -61 -40 -181l-22 -62q78 46 132 61q3 1 7 1q17 0 17 -14q0 -18 -27 -32q-12 -6 -59.5 -26t-80.5 -40q-48 -124 -108 -183.5t-114 -59.5q-27 0 -41.5 12t-14.5 32zM56 -176q30 0 66.5 46.5t59.5 95.5q-62 -34 -100.5 -73.5t-38.5 -59.5q0 -9 8 -9h5z" />
    <glyph glyph-name="Omacron" unicode="&#x14c;" horiz-adv-x="661" 
d="M466 757q-52 0 -89 -8t-41 -8q-25 0 -25 31q0 46 104 46q62 0 143 -12q27 -8 27 -26q0 -26 -30 -26zM334 -24q79 0 138.5 58.5t87 142t27.5 183t-40.5 165.5t-120 66t-143 -60.5t-93.5 -144t-30 -178t44.5 -163.5t129.5 -69zM70 206q0 119 39.5 222.5t122 172t191.5 68.5
q124 0 189 -92t65 -248.5t-89 -289.5q-42 -64 -110 -103.5t-151 -39.5q-123 0 -190 90t-67 220z" />
    <glyph glyph-name="omacron" unicode="&#x14d;" horiz-adv-x="315" 
d="M128 -5q-50 0 -82 36t-32 90q0 82 53.5 145.5t125.5 63.5q42 0 70.5 -30t28.5 -76q0 -10 -4 -32q65 12 129 84q4 4 10.5 4t13.5 -9.5t7 -19t-4 -13.5q-67 -83 -166 -110q-33 -133 -150 -133zM143 59q26 0 48.5 29t25.5 58q-37 16 -37 41t26 50q-1 13 -6.5 19t-15.5 6
q-38 0 -65 -44.5t-27 -92.5q0 -66 51 -66zM210 425q-52 0 -89 -8t-41 -8q-25 0 -25 31q0 46 104 46q62 0 143 -12q27 -8 27 -26q0 -26 -30 -26z" />
    <glyph glyph-name="Obreve" unicode="&#x14e;" horiz-adv-x="661" 
d="M383 862q0 26 25 26t25 -23q0 -20 14.5 -31.5t36 -11.5t38.5 13.5t18 38.5q2 12 24.5 12t22.5 -13q0 -45 -30.5 -71t-76.5 -26t-71.5 23.5t-25.5 62.5zM334 -24q79 0 138.5 58.5t87 142t27.5 183t-40.5 165.5t-120 66t-143 -60.5t-93.5 -144t-30 -178t44.5 -163.5
t129.5 -69zM70 206q0 119 39.5 222.5t122 172t191.5 68.5q124 0 189 -92t65 -248.5t-89 -289.5q-42 -64 -110 -103.5t-151 -39.5q-123 0 -190 90t-67 220z" />
    <glyph glyph-name="obreve" unicode="&#x14f;" horiz-adv-x="315" 
d="M128 -5q-50 0 -82 36t-32 90q0 82 53.5 145.5t125.5 63.5q42 0 70.5 -30t28.5 -76q0 -10 -4 -32q65 12 129 84q4 4 10.5 4t13.5 -9.5t7 -19t-4 -13.5q-67 -83 -166 -110q-33 -133 -150 -133zM143 59q26 0 48.5 29t25.5 58q-37 16 -37 41t26 50q-1 13 -6.5 19t-15.5 6
q-38 0 -65 -44.5t-27 -92.5q0 -66 51 -66zM127 530q0 26 25 26t25 -23q0 -20 14.5 -31.5t36 -11.5t38.5 13.5t18 38.5q2 12 24.5 12t22.5 -13q0 -45 -30.5 -71t-76.5 -26t-71.5 23.5t-25.5 62.5z" />
    <glyph glyph-name="Ohungarumlaut" unicode="&#x150;" horiz-adv-x="661" 
d="M535 903l-113 -154q-6 -9 -16.5 -9t-17.5 6.5t-7 13.5t3 13l83 175q14 28 34.5 28t33 -12t12.5 -28t-12 -33zM720 903l-147 -164q-8 -8 -19 -8q-23 0 -23 19q0 8 4 13l117 185q17 26 38 26t32.5 -11t11.5 -28t-14 -32zM334 -24q79 0 138.5 58.5t87 142t27.5 183
t-40.5 165.5t-120 66t-143 -60.5t-93.5 -144t-30 -178t44.5 -163.5t129.5 -69zM70 206q0 119 39.5 222.5t122 172t191.5 68.5q124 0 189 -92t65 -248.5t-89 -289.5q-42 -64 -110 -103.5t-151 -39.5q-123 0 -190 90t-67 220z" />
    <glyph glyph-name="ohungarumlaut" unicode="&#x151;" horiz-adv-x="315" 
d="M128 -5q-50 0 -82 36t-32 90q0 82 53.5 145.5t125.5 63.5q42 0 70.5 -30t28.5 -76q0 -10 -4 -32q65 12 129 84q4 4 10.5 4t13.5 -9.5t7 -19t-4 -13.5q-67 -83 -166 -110q-33 -133 -150 -133zM143 59q26 0 48.5 29t25.5 58q-37 16 -37 41t26 50q-1 13 -6.5 19t-15.5 6
q-38 0 -65 -44.5t-27 -92.5q0 -66 51 -66zM279 571l-113 -154q-6 -9 -16.5 -9t-17.5 6.5t-7 13.5t3 13l83 175q14 28 34.5 28t33 -12t12.5 -28t-12 -33zM464 571l-147 -164q-8 -8 -19 -8q-23 0 -23 19q0 8 4 13l117 185q17 26 38 26t32.5 -11t11.5 -28t-14 -32z" />
    <glyph glyph-name="OE" unicode="&#x152;" horiz-adv-x="1048" 
d="M70 206q0 119 39.5 222.5t122 172t191.5 68.5q80 0 130 -35t64 -87q17 49 66.5 86t109 54t132.5 17t131.5 -36.5t58.5 -104.5q0 -82 -85 -82q-28 0 -28 20q0 12 7 27l27 64q-47 44 -136.5 44t-162.5 -52.5t-73 -120.5q12 -55 12 -112h146q19 0 29 -12t10 -29t-15 -31
t-41 -14q-60 0 -132 5q-2 -29 -18.5 -89t-34.5 -90q0 -43 32.5 -77.5t109 -34.5t181 44t150.5 101q15 16 28.5 16t23 -13t9.5 -28t-9 -27q-55 -69 -176 -122.5t-209.5 -53.5t-136.5 33t-59 88q-30 -49 -94 -85t-144 -36q-122 0 -189 90.5t-67 219.5zM337 -24
q120 0 185 101.5t65 268.5q0 111 -40.5 178t-120 67t-143 -60.5t-93.5 -144t-30 -178.5t45 -163.5t132 -68.5z" />
    <glyph glyph-name="oe" unicode="&#x153;" horiz-adv-x="466" 
d="M340 -6q-83 0 -119 58q-37 -52 -92 -52t-85 35t-30 97q0 89 45 142.5t103 53.5t85 -65q50 67 120 67q40 0 67 -23t27 -62q0 -55 -45 -89t-136 -53q14 -43 72 -43q80 0 151 68q4 4 13 4t16.5 -7t7.5 -17t-7 -20q-26 -35 -80.5 -64.5t-112.5 -29.5zM90 129q0 -28 12.5 -48
t39.5 -20t43 37t16 90q0 77 -40 77q-33 0 -52 -39t-19 -97zM305 227.5q-30 -37.5 -30 -80.5q125 42 125 90q0 28 -32.5 28t-62.5 -37.5z" />
    <glyph glyph-name="Racute" unicode="&#x154;" horiz-adv-x="730" 
d="M643 901q0 -16 -14 -29l-120 -114q-10 -9 -20 -9q-15 0 -15 16q0 7 6 18l87 140q11 19 29.5 19t32.5 -12.5t14 -28.5zM412 368q103 2 149 23q57 26 57 104q0 55 -42 90t-134 35q-131 0 -205.5 -115.5t-74.5 -299.5q1 -120 20.5 -190t55.5 -70h1q21 0 35 49q7 25 19 75.5
t32 238.5q-54 10 -54 40t20 30q12 0 44 -5q34 134 91 134q37 0 37 -29q-1 -13 -23 -46t-28 -64zM75 198q6 238 106.5 372.5t256.5 134.5q127 0 203 -62.5t76 -146.5q0 -66 -37 -110q-30 -34 -66.5 -49t-90.5 -24q43 -176 118 -296.5t136 -128.5q5 -1 16 -1q43 0 84 44
q6 6 15.5 6t20.5 -10.5t11 -22.5q0 -5 -3 -10q-21 -34 -60.5 -63.5t-90.5 -29.5q-69 0 -139 81t-117 196t-62 227q-32 -2 -49 -2q-4 -28 -9.5 -75t-9 -73.5t-9 -66.5t-12 -63t-15.5 -52.5t-20.5 -46t-26.5 -32.5q-29 -29 -78 -29q-69 0 -109 78t-40 218z" />
    <glyph glyph-name="racute" unicode="&#x155;" horiz-adv-x="288" 
d="M103 126q18 57 67.5 130t80.5 73q44 0 44 -34q0 -22 -10.5 -50.5t-10.5 -34.5q0 -15 21.5 -15t70.5 29q2 1 8 1t15.5 -11t9.5 -19.5t-4 -12.5q-60 -54 -117 -54q-68 0 -68 58q0 2 16 65q-1 0 -16 -24q-47 -78 -92 -201q-13 -26 -43 -26q-41 0 -41 66v8q0 108 31 211
q15 45 48 45q13 0 21 -8t8 -20zM406 558q0 -16 -14 -29l-120 -114q-10 -9 -20 -9q-15 0 -15 16q0 7 6 18l87 140q11 19 29.5 19t32.5 -12.5t14 -28.5z" />
    <glyph glyph-name="Rcommaaccent" unicode="&#x156;" horiz-adv-x="730" 
d="M417.5 -297q-38.5 -39 -80.5 -50q-3 -1 -8 -1q-16 0 -16 13q0 6 4 12t15 23q35 58 41 104q4 35 46 35q37 0 37 -48.5t-38.5 -87.5zM412 368q103 2 149 23q57 26 57 104q0 55 -42 90t-134 35q-131 0 -205.5 -115.5t-74.5 -299.5q1 -120 20.5 -190t55.5 -70h1q21 0 35 49
q7 25 19 75.5t32 238.5q-54 10 -54 40t20 30q12 0 44 -5q34 134 91 134q37 0 37 -29q-1 -13 -23 -46t-28 -64zM75 198q6 238 106.5 372.5t256.5 134.5q127 0 203 -62.5t76 -146.5q0 -66 -37 -110q-30 -34 -66.5 -49t-90.5 -24q43 -176 118 -296.5t136 -128.5q5 -1 16 -1
q43 0 84 44q6 6 15.5 6t20.5 -10.5t11 -22.5q0 -5 -3 -10q-21 -34 -60.5 -63.5t-90.5 -29.5q-69 0 -139 81t-117 196t-62 227q-32 -2 -49 -2q-4 -28 -9.5 -75t-9 -73.5t-9 -66.5t-12 -63t-15.5 -52.5t-20.5 -46t-26.5 -32.5q-29 -29 -78 -29q-69 0 -109 78t-40 218z" />
    <glyph glyph-name="rcommaaccent" unicode="&#x157;" horiz-adv-x="318" 
d="M122.5 -194q-38.5 -39 -80.5 -50q-3 -1 -8 -1q-16 0 -16 13q0 6 4 12t15 23q35 58 41 104q4 35 46 35q37 0 37 -48.5t-38.5 -87.5zM103 126q18 57 67.5 130t80.5 73q44 0 44 -34q0 -22 -10.5 -50.5t-10.5 -34.5q0 -15 21.5 -15t70.5 29q2 1 8 1t15.5 -11t9.5 -19.5
t-4 -12.5q-60 -54 -117 -54q-68 0 -68 58q0 2 16 65q-1 0 -16 -24q-47 -78 -92 -201q-13 -26 -43 -26q-41 0 -41 66v8q0 108 31 211q15 45 48 45q13 0 21 -8t8 -20z" />
    <glyph glyph-name="Rcaron" unicode="&#x158;" horiz-adv-x="730" 
d="M411 969q20 0 29 -31l37 -139l56 123q4 12 10 23q1 3 4.5 9t6.5 8t7.5 4t15.5 2t22 -8t11 -18t-6 -20l-57 -106q-4 -7 -10 -18.5t-8.5 -16t-7 -12.5t-7 -10.5t-8.5 -9.5t-26 -7q-29 0 -40 11.5t-25 52.5l-40 118q-3 9 -3 17q0 28 39 28zM412 368q103 2 149 23
q57 26 57 104q0 55 -42 90t-134 35q-131 0 -205.5 -115.5t-74.5 -299.5q1 -120 20.5 -190t55.5 -70h1q21 0 35 49q7 25 19 75.5t32 238.5q-54 10 -54 40t20 30q12 0 44 -5q34 134 91 134q37 0 37 -29q-1 -13 -23 -46t-28 -64zM75 198q6 238 106.5 372.5t256.5 134.5
q127 0 203 -62.5t76 -146.5q0 -66 -37 -110q-30 -34 -66.5 -49t-90.5 -24q43 -176 118 -296.5t136 -128.5q5 -1 16 -1q43 0 84 44q6 6 15.5 6t20.5 -10.5t11 -22.5q0 -5 -3 -10q-21 -34 -60.5 -63.5t-90.5 -29.5q-69 0 -139 81t-117 196t-62 227q-32 -2 -49 -2
q-4 -28 -9.5 -75t-9 -73.5t-9 -66.5t-12 -63t-15.5 -52.5t-20.5 -46t-26.5 -32.5q-29 -29 -78 -29q-69 0 -109 78t-40 218z" />
    <glyph glyph-name="rcaron" unicode="&#x159;" horiz-adv-x="288" 
d="M103 126q18 57 67.5 130t80.5 73q44 0 44 -34q0 -22 -10.5 -50.5t-10.5 -34.5q0 -15 21.5 -15t70.5 29q2 1 8 1t15.5 -11t9.5 -19.5t-4 -12.5q-60 -54 -117 -54q-68 0 -68 58q0 2 16 65q-1 0 -16 -24q-47 -78 -92 -201q-13 -26 -43 -26q-41 0 -41 66v8q0 108 31 211
q15 45 48 45q13 0 21 -8t8 -20zM167 637q20 0 29 -31l37 -139l56 123q4 12 10 23q1 3 4.5 9t6.5 8t7.5 4t15.5 2t22 -8t11 -18t-6 -20l-57 -106q-4 -7 -10 -18.5t-8.5 -16t-7 -12.5t-7 -10.5t-8.5 -9.5t-26 -7q-29 0 -40 11.5t-25 52.5l-40 118q-3 9 -3 17q0 28 39 28z" />
    <glyph glyph-name="Sacute" unicode="&#x15a;" horiz-adv-x="636" 
d="M603 901q0 -16 -14 -29l-120 -114q-10 -9 -20 -9q-15 0 -15 16q0 7 6 18l87 140q11 19 29.5 19t32.5 -12.5t14 -28.5zM403 632q97 0 159 -40.5t62.5 -108t-41.5 -113.5q-24 -25 -44.5 -25t-31.5 10t-11 24t10 25q32 34 32 73.5t-40.5 62.5t-100.5 23t-114 -30.5
t-54 -73.5t24 -65t80.5 -53t68.5 -37.5t36.5 -20t32.5 -18t28 -17t26.5 -18t21.5 -17.5t20 -20t14 -21q21 -30 21 -85q0 -93 -81 -147t-201 -54t-199.5 51t-79.5 146q0 38 22.5 66.5t55 28.5t32.5 -27q0 -11 -7 -32.5t-7 -35.5q0 -60 48 -92t136.5 -32t134 33t45.5 85.5
t-44 86.5q-23 17 -43.5 28.5t-55.5 29.5t-47.5 25.5t-37.5 22t-30.5 18.5t-26 17t-26 19t-20 19t-19 22.5t-14 28t-9.5 57.5q0 83 82.5 132t192.5 49z" />
    <glyph glyph-name="sacute" unicode="&#x15b;" horiz-adv-x="292" 
d="M176 -5q-62 0 -108.5 24.5t-64.5 61.5q44 76 117 226q16 31 46 31q15 0 25.5 -9.5t10.5 -24.5q0 -14 -6 -24t-6 -20t22 -37t43.5 -60t21.5 -57.5t-11 -42.5q46 15 98 80q6 6 14.5 6t19 -13.5t10.5 -23t-4 -17.5q-29 -45 -87 -72.5t-141 -27.5zM151 52h4q50 0 50 45
t-48 116l-66 -134q35 -27 60 -27zM389 558q0 -16 -14 -29l-120 -114q-10 -9 -20 -9q-15 0 -15 16q0 7 6 18l87 140q11 19 29.5 19t32.5 -12.5t14 -28.5z" />
    <glyph glyph-name="Scircumflex" unicode="&#x15c;" horiz-adv-x="636" 
d="M550 751q-13 0 -23.5 6.5t-13.5 17.5l-38 136l-83 -123q-12 -18 -38.5 -18t-28.5 24q0 14 7 24l48 71q23 35 31 45q4 5 13.5 16t17 13.5t19.5 6t29.5 3.5t27.5 -9l10 -10t8.5 -15t6.5 -17t6.5 -22t6.5 -23l22 -78q3 -11 3 -18q0 -30 -31 -30zM403 632q97 0 159 -40.5
t62.5 -108t-41.5 -113.5q-24 -25 -44.5 -25t-31.5 10t-11 24t10 25q32 34 32 73.5t-40.5 62.5t-100.5 23t-114 -30.5t-54 -73.5t24 -65t80.5 -53t68.5 -37.5t36.5 -20t32.5 -18t28 -17t26.5 -18t21.5 -17.5t20 -20t14 -21q21 -30 21 -85q0 -93 -81 -147t-201 -54t-199.5 51
t-79.5 146q0 38 22.5 66.5t55 28.5t32.5 -27q0 -11 -7 -32.5t-7 -35.5q0 -60 48 -92t136.5 -32t134 33t45.5 85.5t-44 86.5q-23 17 -43.5 28.5t-55.5 29.5t-47.5 25.5t-37.5 22t-30.5 18.5t-26 17t-26 19t-20 19t-19 22.5t-14 28t-9.5 57.5q0 83 82.5 132t192.5 49z" />
    <glyph glyph-name="scircumflex" unicode="&#x15d;" horiz-adv-x="292" 
d="M176 -5q-62 0 -108.5 24.5t-64.5 61.5q44 76 117 226q16 31 46 31q15 0 25.5 -9.5t10.5 -24.5q0 -14 -6 -24t-6 -20t22 -37t43.5 -60t21.5 -57.5t-11 -42.5q46 15 98 80q6 6 14.5 6t19 -13.5t10.5 -23t-4 -17.5q-29 -45 -87 -72.5t-141 -27.5zM151 52h4q50 0 50 45
t-48 116l-66 -134q35 -27 60 -27zM349 419q-13 0 -23.5 6.5t-13.5 17.5l-38 136l-83 -123q-12 -18 -38.5 -18t-28.5 24q0 14 7 24l48 71q23 35 31 45q4 5 13.5 16t17 13.5t19.5 6t29.5 3.5t27.5 -9l10 -10t8.5 -15t6.5 -17t6.5 -22t6.5 -23l22 -78q3 -11 3 -18
q0 -30 -31 -30z" />
    <glyph glyph-name="Scedilla" unicode="&#x15e;" horiz-adv-x="636" 
d="M314 -155q0 -3 -1 -5l-45 -130q-11 -31 -38 -31q-13 0 -23 8.5t-10 20t8 22.5l86 118q8 9 13 9q10 0 10 -12zM403 632q97 0 159 -40.5t62.5 -108t-41.5 -113.5q-24 -25 -44.5 -25t-31.5 10t-11 24t10 25q32 34 32 73.5t-40.5 62.5t-100.5 23t-114 -30.5t-54 -73.5t24 -65
t80.5 -53t68.5 -37.5t36.5 -20t32.5 -18t28 -17t26.5 -18t21.5 -17.5t20 -20t14 -21q21 -30 21 -85q0 -93 -81 -147t-201 -54t-199.5 51t-79.5 146q0 38 22.5 66.5t55 28.5t32.5 -27q0 -11 -7 -32.5t-7 -35.5q0 -60 48 -92t136.5 -32t134 33t45.5 85.5t-44 86.5
q-23 17 -43.5 28.5t-55.5 29.5t-47.5 25.5t-37.5 22t-30.5 18.5t-26 17t-26 19t-20 19t-19 22.5t-14 28t-9.5 57.5q0 83 82.5 132t192.5 49z" />
    <glyph glyph-name="scedilla" unicode="&#x15f;" horiz-adv-x="292" 
d="M176 -5q-62 0 -108.5 24.5t-64.5 61.5q44 76 117 226q16 31 46 31q15 0 25.5 -9.5t10.5 -24.5q0 -14 -6 -24t-6 -20t22 -37t43.5 -60t21.5 -57.5t-11 -42.5q46 15 98 80q6 6 14.5 6t19 -13.5t10.5 -23t-4 -17.5q-29 -45 -87 -72.5t-141 -27.5zM151 52h4q50 0 50 45
t-48 116l-66 -134q35 -27 60 -27zM144 -48q0 -3 -1 -5l-45 -130q-11 -31 -38 -31q-13 0 -23 8.5t-10 20t8 22.5l86 118q8 9 13 9q10 0 10 -12z" />
    <glyph glyph-name="Scaron" unicode="&#x160;" horiz-adv-x="636" 
d="M371 969q20 0 29 -31l37 -139l56 123q4 12 10 23q1 3 4.5 9t6.5 8t7.5 4t15.5 2t22 -8t11 -18t-6 -20l-57 -106q-4 -7 -10 -18.5t-8.5 -16t-7 -12.5t-7 -10.5t-8.5 -9.5t-26 -7q-29 0 -40 11.5t-25 52.5l-40 118q-3 9 -3 17q0 28 39 28zM403 632q97 0 159 -40.5
t62.5 -108t-41.5 -113.5q-24 -25 -44.5 -25t-31.5 10t-11 24t10 25q32 34 32 73.5t-40.5 62.5t-100.5 23t-114 -30.5t-54 -73.5t24 -65t80.5 -53t68.5 -37.5t36.5 -20t32.5 -18t28 -17t26.5 -18t21.5 -17.5t20 -20t14 -21q21 -30 21 -85q0 -93 -81 -147t-201 -54t-199.5 51
t-79.5 146q0 38 22.5 66.5t55 28.5t32.5 -27q0 -11 -7 -32.5t-7 -35.5q0 -60 48 -92t136.5 -32t134 33t45.5 85.5t-44 86.5q-23 17 -43.5 28.5t-55.5 29.5t-47.5 25.5t-37.5 22t-30.5 18.5t-26 17t-26 19t-20 19t-19 22.5t-14 28t-9.5 57.5q0 83 82.5 132t192.5 49z" />
    <glyph glyph-name="scaron" unicode="&#x161;" horiz-adv-x="292" 
d="M176 -5q-62 0 -108.5 24.5t-64.5 61.5q44 76 117 226q16 31 46 31q15 0 25.5 -9.5t10.5 -24.5q0 -14 -6 -24t-6 -20t22 -37t43.5 -60t21.5 -57.5t-11 -42.5q46 15 98 80q6 6 14.5 6t19 -13.5t10.5 -23t-4 -17.5q-29 -45 -87 -72.5t-141 -27.5zM151 52h4q50 0 50 45
t-48 116l-66 -134q35 -27 60 -27zM150 637q20 0 29 -31l37 -139l56 123q4 12 10 23q1 3 4.5 9t6.5 8t7.5 4t15.5 2t22 -8t11 -18t-6 -20l-57 -106q-4 -7 -10 -18.5t-8.5 -16t-7 -12.5t-7 -10.5t-8.5 -9.5t-26 -7q-29 0 -40 11.5t-25 52.5l-40 118q-3 9 -3 17q0 28 39 28z
" />
    <glyph glyph-name="Tcommaaccent" unicode="&#x162;" horiz-adv-x="484" 
d="M298 -170q0 -3 -1 -5l-45 -130q-11 -31 -38 -31q-13 0 -23 8.5t-10 20t8 22.5l86 118q8 9 13 9q10 0 10 -12zM304 -87q-39 0 -51 46q-3 11 -3 47q0 88 32.5 226.5t118.5 317.5q-39 3 -73 3q-143 0 -202 -39q-30 -20 -45.5 -39t-26.5 -45q-6 -14 -32 -14t-26 23q0 5 1 8
q28 113 112 155.5t229 42.5q60 0 205 -9t226 -9q37 0 39 -26q0 -39 -40 -50q-35 -10 -125 -10t-173 5q-110 -309 -110 -534v-22q0 -77 -56 -77z" />
    <glyph glyph-name="tcommaaccent" unicode="&#x163;" horiz-adv-x="260" 
d="M49 162v11q-13 -9 -22.5 -9t-16 8.5t-6.5 21t12 19t38 18.5q17 133 70 253q27 61 67 100.5t78 39.5t54.5 -19t16.5 -46v-7q-6 -74 -55.5 -147t-116.5 -128q83 28 106 28q8 0 15.5 -8.5t7.5 -22.5t-17 -17q-51 -8 -156 -51q-2 -32 -2 -50q0 -95 41 -95q48 0 111 70
q7 7 17.5 7t20 -8.5t9.5 -21t-12 -25.5q-77 -86 -155 -86q-58 0 -81.5 43.5t-23.5 121.5zM263 541q-28 0 -56 -42q-52 -77 -71 -196q2 2 24.5 27t28 31t24 28.5t24.5 34.5t16.5 32t14 38t3.5 32t-8 15zM152 -50q0 -3 -1 -5l-45 -130q-11 -31 -38 -31q-13 0 -23 8.5t-10 20
t8 22.5l86 118q8 9 13 9q10 0 10 -12z" />
    <glyph glyph-name="Tcaron" unicode="&#x164;" horiz-adv-x="484" 
d="M421 969q20 0 29 -31l37 -139l56 123q4 12 10 23q1 3 4.5 9t6.5 8t7.5 4t15.5 2t22 -8t11 -18t-6 -20l-57 -106q-4 -7 -10 -18.5t-8.5 -16t-7 -12.5t-7 -10.5t-8.5 -9.5t-26 -7q-29 0 -40 11.5t-25 52.5l-40 118q-3 9 -3 17q0 28 39 28zM304 -87q-39 0 -51 46
q-3 11 -3 47q0 88 32.5 226.5t118.5 317.5q-39 3 -73 3q-143 0 -202 -39q-30 -20 -45.5 -39t-26.5 -45q-6 -14 -32 -14t-26 23q0 5 1 8q28 113 112 155.5t229 42.5q60 0 205 -9t226 -9q37 0 39 -26q0 -39 -40 -50q-35 -10 -125 -10t-173 5q-110 -309 -110 -534v-22
q0 -77 -56 -77z" />
    <glyph glyph-name="tcaron" unicode="&#x165;" horiz-adv-x="260" 
d="M49 162v11q-13 -9 -22.5 -9t-16 8.5t-6.5 21t12 19t38 18.5q17 133 70 253q27 61 67 100.5t78 39.5t54.5 -19t16.5 -46v-7q-6 -74 -55.5 -147t-116.5 -128q83 28 106 28q8 0 15.5 -8.5t7.5 -22.5t-17 -17q-51 -8 -156 -51q-2 -32 -2 -50q0 -95 41 -95q48 0 111 70
q7 7 17.5 7t20 -8.5t9.5 -21t-12 -25.5q-77 -86 -155 -86q-58 0 -81.5 43.5t-23.5 121.5zM263 541q-28 0 -56 -42q-52 -77 -71 -196q2 2 24.5 27t28 31t24 28.5t24.5 34.5t16.5 32t14 38t3.5 32t-8 15zM359 642q0 4 3 8q0 1 6 8q48 55 86 145q9 19 30.5 19t33.5 -9t12 -26
v-6q-4 -26 -55.5 -82t-98.5 -70h-3q-14 0 -14 13z" />
    <glyph glyph-name="Tbar" unicode="&#x166;" horiz-adv-x="484" 
d="M367 259q-52 0 -89 -8t-41 -8q-25 0 -25 31q0 46 104 46q62 0 143 -12q27 -8 27 -26q0 -26 -30 -26zM304 -87q-39 0 -51 46q-3 11 -3 47q0 88 32.5 226.5t118.5 317.5q-39 3 -73 3q-143 0 -202 -39q-30 -20 -45.5 -39t-26.5 -45q-6 -14 -32 -14t-26 23q0 5 1 8
q28 113 112 155.5t229 42.5q60 0 205 -9t226 -9q37 0 39 -26q0 -39 -40 -50q-35 -10 -125 -10t-173 5q-110 -309 -110 -534v-22q0 -77 -56 -77z" />
    <glyph glyph-name="tbar" unicode="&#x167;" horiz-adv-x="260" 
d="M49 162v11q-13 -9 -22.5 -9t-16 8.5t-6.5 21t12 19t38 18.5q17 133 70 253q27 61 67 100.5t78 39.5t54.5 -19t16.5 -46v-7q-6 -74 -55.5 -147t-116.5 -128q83 28 106 28q8 0 15.5 -8.5t7.5 -22.5t-17 -17q-51 -8 -156 -51q-2 -32 -2 -50q0 -95 41 -95q48 0 111 70
q7 7 17.5 7t20 -8.5t9.5 -21t-12 -25.5q-77 -86 -155 -86q-58 0 -81.5 43.5t-23.5 121.5zM263 541q-28 0 -56 -42q-52 -77 -71 -196q2 2 24.5 27t28 31t24 28.5t24.5 34.5t16.5 32t14 38t3.5 32t-8 15zM145 285q-52 0 -89 -8t-41 -8q-25 0 -25 31q0 46 104 46q62 0 143 -12
q27 -8 27 -26q0 -26 -30 -26z" />
    <glyph glyph-name="Utilde" unicode="&#x168;" horiz-adv-x="632" 
d="M526 720q-13 0 -26 4q-5 2 -12 6.5t-9.5 6.5t-10 8.5t-10.5 8.5t-17 13.5t-24 19.5l-13 -20q-14 -20 -24.5 -28t-23.5 -8t-21 6.5t-8 18.5q0 30 27 59.5t57 29.5q13 0 27 -5q4 -1 11 -5.5t9.5 -6.5t10 -8.5t10.5 -8.5t17 -13.5t24 -19.5q3 3 14 21t22 26.5t24.5 8.5
t21.5 -6.5t8 -18.5q0 -30 -27.5 -59.5t-56.5 -29.5zM792 482q-59 -48 -120 -71q-23 -172 -122 -317q-48 -70 -117.5 -113.5t-147.5 -43.5q-104 0 -153 64.5t-49 172.5q0 145 76 309l-79 -52q-9 -6 -16 -6q-21 0 -21 30q0 15 15 25l168 108q14 7 30 7q31 0 31 -23
q0 -8 -6 -19q-48 -79 -80 -183t-32 -184.5t28.5 -125.5t88 -45t111.5 34.5t89 90.5q76 114 103 255q-77 0 -124.5 53t-47.5 112.5t34 95.5t97.5 36t96 -56.5t32.5 -148.5v-13q43 18 86 50q9 6 17.5 6t15.5 -7.5t7 -20t-11 -20.5zM482 566q0 -41 30.5 -75t84.5 -35q2 28 2 39
q0 59 -16.5 94t-45.5 35t-42 -16.5t-13 -41.5z" />
    <glyph glyph-name="utilde" unicode="&#x169;" horiz-adv-x="347" 
d="M332 297q-35 -105 -45 -199l-1 -12q0 -23 14 -23q32 2 83 58q13 10 21.5 10t20.5 -11.5t12 -21.5q0 -23 -61.5 -62.5t-98.5 -39.5q-59 0 -60 59l3 31q-11 -31 -42 -61t-74 -30t-64.5 29t-21.5 75q0 60 20.5 125t32.5 85.5t31.5 20.5t29.5 -7.5t10 -14t-24 -73.5t-28 -118
v-7q0 -49 34 -49q27 0 55.5 31.5t44.5 86.5l27 100q10 33 19.5 42t25 9t26.5 -9t11 -20zM283 372q-13 0 -26 4q-5 2 -12 6.5t-9.5 6.5t-10 8.5t-10.5 8.5t-17 13.5t-24 19.5l-13 -20q-14 -20 -24.5 -28t-23.5 -8t-21 6.5t-8 18.5q0 30 27 59.5t57 29.5q13 0 27 -5
q4 -1 11 -5.5t9.5 -6.5t10 -8.5t10.5 -8.5t17 -13.5t24 -19.5q3 3 14 21t22 26.5t24.5 8.5t21.5 -6.5t8 -18.5q0 -30 -27.5 -59.5t-56.5 -29.5z" />
    <glyph glyph-name="Umacron" unicode="&#x16a;" horiz-adv-x="632" 
d="M466 757q-52 0 -89 -8t-41 -8q-25 0 -25 31q0 46 104 46q62 0 143 -12q27 -8 27 -26q0 -26 -30 -26zM792 482q-59 -48 -120 -71q-23 -172 -122 -317q-48 -70 -117.5 -113.5t-147.5 -43.5q-104 0 -153 64.5t-49 172.5q0 145 76 309l-79 -52q-9 -6 -16 -6q-21 0 -21 30
q0 15 15 25l168 108q14 7 30 7q31 0 31 -23q0 -8 -6 -19q-48 -79 -80 -183t-32 -184.5t28.5 -125.5t88 -45t111.5 34.5t89 90.5q76 114 103 255q-77 0 -124.5 53t-47.5 112.5t34 95.5t97.5 36t96 -56.5t32.5 -148.5v-13q43 18 86 50q9 6 17.5 6t15.5 -7.5t7 -20t-11 -20.5z
M482 566q0 -41 30.5 -75t84.5 -35q2 28 2 39q0 59 -16.5 94t-45.5 35t-42 -16.5t-13 -41.5z" />
    <glyph glyph-name="umacron" unicode="&#x16b;" horiz-adv-x="347" 
d="M332 297q-35 -105 -45 -199l-1 -12q0 -23 14 -23q32 2 83 58q13 10 21.5 10t20.5 -11.5t12 -21.5q0 -23 -61.5 -62.5t-98.5 -39.5q-59 0 -60 59l3 31q-11 -31 -42 -61t-74 -30t-64.5 29t-21.5 75q0 60 20.5 125t32.5 85.5t31.5 20.5t29.5 -7.5t10 -14t-24 -73.5t-28 -118
v-7q0 -49 34 -49q27 0 55.5 31.5t44.5 86.5l27 100q10 33 19.5 42t25 9t26.5 -9t11 -20zM230 425q-52 0 -89 -8t-41 -8q-25 0 -25 31q0 46 104 46q62 0 143 -12q27 -8 27 -26q0 -26 -30 -26z" />
    <glyph glyph-name="Ubreve" unicode="&#x16c;" horiz-adv-x="632" 
d="M383 862q0 26 25 26t25 -23q0 -20 14.5 -31.5t36 -11.5t38.5 13.5t18 38.5q2 12 24.5 12t22.5 -13q0 -45 -30.5 -71t-76.5 -26t-71.5 23.5t-25.5 62.5zM792 482q-59 -48 -120 -71q-23 -172 -122 -317q-48 -70 -117.5 -113.5t-147.5 -43.5q-104 0 -153 64.5t-49 172.5
q0 145 76 309l-79 -52q-9 -6 -16 -6q-21 0 -21 30q0 15 15 25l168 108q14 7 30 7q31 0 31 -23q0 -8 -6 -19q-48 -79 -80 -183t-32 -184.5t28.5 -125.5t88 -45t111.5 34.5t89 90.5q76 114 103 255q-77 0 -124.5 53t-47.5 112.5t34 95.5t97.5 36t96 -56.5t32.5 -148.5v-13
q43 18 86 50q9 6 17.5 6t15.5 -7.5t7 -20t-11 -20.5zM482 566q0 -41 30.5 -75t84.5 -35q2 28 2 39q0 59 -16.5 94t-45.5 35t-42 -16.5t-13 -41.5z" />
    <glyph glyph-name="ubreve" unicode="&#x16d;" horiz-adv-x="347" 
d="M332 297q-35 -105 -45 -199l-1 -12q0 -23 14 -23q32 2 83 58q13 10 21.5 10t20.5 -11.5t12 -21.5q0 -23 -61.5 -62.5t-98.5 -39.5q-59 0 -60 59l3 31q-11 -31 -42 -61t-74 -30t-64.5 29t-21.5 75q0 60 20.5 125t32.5 85.5t31.5 20.5t29.5 -7.5t10 -14t-24 -73.5t-28 -118
v-7q0 -49 34 -49q27 0 55.5 31.5t44.5 86.5l27 100q10 33 19.5 42t25 9t26.5 -9t11 -20zM121 501q0 26 25 26t25 -23q0 -20 14.5 -31.5t36 -11.5t38.5 13.5t18 38.5q2 12 24.5 12t22.5 -13q0 -45 -30.5 -71t-76.5 -26t-71.5 23.5t-25.5 62.5z" />
    <glyph glyph-name="Uring" unicode="&#x16e;" horiz-adv-x="632" 
d="M459 771q21 0 38.5 15t17.5 33.5t-12 26t-31 7.5t-36 -13t-17 -31.5t11 -28t29 -9.5zM373 801q0 45 30 70t71 25t66 -19t25 -51q0 -11 -3 -23q-10 -37 -36.5 -58t-64 -21t-63 22t-25.5 55zM792 482q-59 -48 -120 -71q-23 -172 -122 -317q-48 -70 -117.5 -113.5
t-147.5 -43.5q-104 0 -153 64.5t-49 172.5q0 145 76 309l-79 -52q-9 -6 -16 -6q-21 0 -21 30q0 15 15 25l168 108q14 7 30 7q31 0 31 -23q0 -8 -6 -19q-48 -79 -80 -183t-32 -184.5t28.5 -125.5t88 -45t111.5 34.5t89 90.5q76 114 103 255q-77 0 -124.5 53t-47.5 112.5
t34 95.5t97.5 36t96 -56.5t32.5 -148.5v-13q43 18 86 50q9 6 17.5 6t15.5 -7.5t7 -20t-11 -20.5zM482 566q0 -41 30.5 -75t84.5 -35q2 28 2 39q0 59 -16.5 94t-45.5 35t-42 -16.5t-13 -41.5z" />
    <glyph glyph-name="uring" unicode="&#x16f;" horiz-adv-x="347" 
d="M332 297q-35 -105 -45 -199l-1 -12q0 -23 14 -23q32 2 83 58q13 10 21.5 10t20.5 -11.5t12 -21.5q0 -23 -61.5 -62.5t-98.5 -39.5q-59 0 -60 59l3 31q-11 -31 -42 -61t-74 -30t-64.5 29t-21.5 75q0 60 20.5 125t32.5 85.5t31.5 20.5t29.5 -7.5t10 -14t-24 -73.5t-28 -118
v-7q0 -49 34 -49q27 0 55.5 31.5t44.5 86.5l27 100q10 33 19.5 42t25 9t26.5 -9t11 -20zM217 423q21 0 38.5 15t17.5 33.5t-12 26t-31 7.5t-36 -13t-17 -31.5t11 -28t29 -9.5zM131 453q0 45 30 70t71 25t66 -19t25 -51q0 -11 -3 -23q-10 -37 -36.5 -58t-64 -21t-63 22
t-25.5 55z" />
    <glyph glyph-name="Uhungarumlaut" unicode="&#x170;" horiz-adv-x="632" 
d="M535 903l-113 -154q-6 -9 -16.5 -9t-17.5 6.5t-7 13.5t3 13l83 175q14 28 34.5 28t33 -12t12.5 -28t-12 -33zM720 903l-147 -164q-8 -8 -19 -8q-23 0 -23 19q0 8 4 13l117 185q17 26 38 26t32.5 -11t11.5 -28t-14 -32zM792 482q-59 -48 -120 -71q-23 -172 -122 -317
q-48 -70 -117.5 -113.5t-147.5 -43.5q-104 0 -153 64.5t-49 172.5q0 145 76 309l-79 -52q-9 -6 -16 -6q-21 0 -21 30q0 15 15 25l168 108q14 7 30 7q31 0 31 -23q0 -8 -6 -19q-48 -79 -80 -183t-32 -184.5t28.5 -125.5t88 -45t111.5 34.5t89 90.5q76 114 103 255
q-77 0 -124.5 53t-47.5 112.5t34 95.5t97.5 36t96 -56.5t32.5 -148.5v-13q43 18 86 50q9 6 17.5 6t15.5 -7.5t7 -20t-11 -20.5zM482 566q0 -41 30.5 -75t84.5 -35q2 28 2 39q0 59 -16.5 94t-45.5 35t-42 -16.5t-13 -41.5z" />
    <glyph glyph-name="uhungarumlaut" unicode="&#x171;" horiz-adv-x="347" 
d="M332 297q-35 -105 -45 -199l-1 -12q0 -23 14 -23q32 2 83 58q13 10 21.5 10t20.5 -11.5t12 -21.5q0 -23 -61.5 -62.5t-98.5 -39.5q-59 0 -60 59l3 31q-11 -31 -42 -61t-74 -30t-64.5 29t-21.5 75q0 60 20.5 125t32.5 85.5t31.5 20.5t29.5 -7.5t10 -14t-24 -73.5t-28 -118
v-7q0 -49 34 -49q27 0 55.5 31.5t44.5 86.5l27 100q10 33 19.5 42t25 9t26.5 -9t11 -20zM263 561l-113 -154q-6 -9 -16.5 -9t-17.5 6.5t-7 13.5t3 13l83 175q14 28 34.5 28t33 -12t12.5 -28t-12 -33zM448 561l-147 -164q-8 -8 -19 -8q-23 0 -23 19q0 8 4 13l117 185
q17 26 38 26t32.5 -11t11.5 -28t-14 -32z" />
    <glyph glyph-name="Uogonek" unicode="&#x172;" horiz-adv-x="632" 
d="M213 -148q0 59 77 103h27q-44 -48 -44 -83q0 -22 23 -22.5t55 22.5q2 2 4.5 2t6 -8.5t3.5 -22.5t-7 -20q-33 -29 -85 -29q-60 0 -60 58zM792 482q-59 -48 -120 -71q-23 -172 -122 -317q-48 -70 -117.5 -113.5t-147.5 -43.5q-104 0 -153 64.5t-49 172.5q0 145 76 309
l-79 -52q-9 -6 -16 -6q-21 0 -21 30q0 15 15 25l168 108q14 7 30 7q31 0 31 -23q0 -8 -6 -19q-48 -79 -80 -183t-32 -184.5t28.5 -125.5t88 -45t111.5 34.5t89 90.5q76 114 103 255q-77 0 -124.5 53t-47.5 112.5t34 95.5t97.5 36t96 -56.5t32.5 -148.5v-13q43 18 86 50
q9 6 17.5 6t15.5 -7.5t7 -20t-11 -20.5zM482 566q0 -41 30.5 -75t84.5 -35q2 28 2 39q0 59 -16.5 94t-45.5 35t-42 -16.5t-13 -41.5z" />
    <glyph glyph-name="uogonek" unicode="&#x173;" horiz-adv-x="347" 
d="M332 297q-35 -105 -45 -199l-1 -12q0 -23 14 -23q32 2 83 58q13 10 21.5 10t20.5 -11.5t12 -21.5q0 -23 -61.5 -62.5t-98.5 -39.5q-59 0 -60 59l3 31q-11 -31 -42 -61t-74 -30t-64.5 29t-21.5 75q0 60 20.5 125t32.5 85.5t31.5 20.5t29.5 -7.5t10 -14t-24 -73.5t-28 -118
v-7q0 -49 34 -49q27 0 55.5 31.5t44.5 86.5l27 100q10 33 19.5 42t25 9t26.5 -9t11 -20zM201 -95q0 59 77 103h27q-44 -48 -44 -83q0 -22 23 -22.5t55 22.5q2 2 4.5 2t6 -8.5t3.5 -22.5t-7 -20q-33 -29 -85 -29q-60 0 -60 58z" />
    <glyph glyph-name="Wcircumflex" unicode="&#x174;" horiz-adv-x="965" 
d="M760 751q-13 0 -23.5 6.5t-13.5 17.5l-38 136l-83 -123q-12 -18 -38.5 -18t-28.5 24q0 14 7 24l48 71q23 35 31 45q4 5 13.5 16t17 13.5t19.5 6t29.5 3.5t27.5 -9l10 -10t8.5 -15t6.5 -17t6.5 -22t6.5 -23l22 -78q3 -11 3 -18q0 -30 -31 -30zM867 505q18 -28 51 -39
q16 55 16 100q0 68 -38 68q-19 0 -33 -20t-14 -50.5t18 -58.5zM105 159q0 133 58 269l-129 -80q-10 -7 -21 -7t-19 10.5t-8 29.5t19 29l229 138q16 13 32.5 13t29 -11t12.5 -23q0 -5 -3 -9q-42 -54 -84 -189q-28 -91 -28 -177q0 -115 54 -115h6q51 6 120.5 85t140.5 246
q15 62 35.5 99t49.5 37h2q15 0 24.5 -11t9.5 -27.5t-3 -30t-28.5 -73t-30.5 -99.5t-5 -74q0 -152 53 -152h5q37 5 82 51q113 117 190 318q-60 15 -94 61.5t-34 101.5t36.5 93t104.5 38q46 -1 73 -39t27 -105q0 -37 -11 -89q50 14 116 59q11 8 22.5 8t19.5 -9t8 -21
q0 -15 -15 -27q-92 -63 -169 -74q-24 -72 -65 -147q-71 -126 -137 -204q-79 -92 -166 -96h-1q-60 0 -89 62.5t-31 158.5q-124 -216 -252 -221h-2q-134 0 -134 203z" />
    <glyph glyph-name="wcircumflex" unicode="&#x175;" horiz-adv-x="576" 
d="M479 290q0 -36 37 -56q12 34 12 55q0 36 -23 36q-11 0 -18.5 -10.5t-7.5 -24.5zM560 170q-39 -90 -102 -142q-50 -41 -102 -41q-69 0 -85 82q-51 -80 -117 -80q-49 0 -78.5 33.5t-29.5 90t25 106.5q12 24 21 40t21 33.5t13 18.5q17 25 35 25t29.5 -10.5t11.5 -17
t-2 -10.5q-11 -13 -16.5 -21t-13.5 -19q-48 -70 -48 -138q0 -64 39 -64q50 0 109 135l16 36q24 89 52 89h3q35 0 35 -22q0 -16 -24 -66q-31 -65 -31 -115q0 -60 41 -60q33 0 67 33.5t56 82.5q4 6 10 18q-36 18 -56.5 49t-20.5 64.5t23.5 57t66.5 23.5q36 -2 57.5 -28.5
t21.5 -64.5t-8 -66q42 2 97 20q8 5 16.5 5t15.5 -8.5t7 -22.5t-15 -19q-66 -28 -124 -28zM470 419q-13 0 -23.5 6.5t-13.5 17.5l-38 136l-83 -123q-12 -18 -38.5 -18t-28.5 24q0 14 7 24l48 71q23 35 31 45q4 5 13.5 16t17 13.5t19.5 6t29.5 3.5t27.5 -9l10 -10t8.5 -15
t6.5 -17t6.5 -22t6.5 -23l22 -78q3 -11 3 -18q0 -30 -31 -30z" />
    <glyph glyph-name="Ycircumflex" unicode="&#x176;" horiz-adv-x="564" 
d="M570 751q-13 0 -23.5 6.5t-13.5 17.5l-38 136l-83 -123q-12 -18 -38.5 -18t-28.5 24q0 14 7 24l48 71q23 35 31 45q4 5 13.5 16t17 13.5t19.5 6t29.5 3.5t27.5 -9l10 -10t8.5 -15t6.5 -17t6.5 -22t6.5 -23l22 -78q3 -11 3 -18q0 -30 -31 -30zM248 -269q10 0 28 25
q44 61 93 203q-140 -145 -140 -200q0 -28 19 -28zM598 562q0 -12 -5 -34l-94 -377q88 73 150 115q5 3 12 3t14 -10t7 -21t-7 -17q-101 -71 -199 -160q-58 -217 -111 -309t-140 -92q-30 0 -47.5 19t-17.5 47q0 116 242 341q8 27 15 57q-103 -103 -197 -103q-68 0 -109 57
t-41 155q0 154 103 343q18 30 47.5 30t29.5 -17q0 -3 -2 -9q-94 -233 -94 -362q0 -67 24 -99t66 -32t94 33.5t95 88.5l83 340q10 46 40 46q42 0 42 -33z" />
    <glyph glyph-name="ycircumflex" unicode="&#x177;" horiz-adv-x="346" 
d="M61 -317q-83 0 -83 68q0 18 6 31q3 8 5.5 14.5t8 14.5t8.5 12.5t10 13.5t9.5 12t10.5 11.5t9 10.5q33 38 103 85q37 24 50 34l30 87q-17 -33 -50 -55t-65.5 -22t-57 27.5t-24.5 68.5q0 97 48 188q7 13 21 22.5t26 9.5t21 -6.5t9 -20t-12 -35.5q-6 -12 -8 -18
q-25 -84 -25 -129.5t35 -45.5q53 0 83 101l29 104q12 45 46 45q30 0 30 -19q0 -27 -18.5 -105.5t-30.5 -151.5q99 72 165 106q6 3 14 3t17 -9.5t9 -25.5t-21 -29q-166 -98 -195 -117q-15 -84 -42 -149q-17 -42 -38 -68t-55.5 -44.5t-77.5 -18.5zM73 -259q22 0 43 19
q42 41 70 159q-44 -26 -89.5 -79.5t-45.5 -76t22 -22.5zM366 389q-13 0 -23.5 6.5t-13.5 17.5l-38 136l-83 -123q-12 -18 -38.5 -18t-28.5 24q0 14 7 24l48 71q23 35 31 45q4 5 13.5 16t17 13.5t19.5 6t29.5 3.5t27.5 -9l10 -10t8.5 -15t6.5 -17t6.5 -22t6.5 -23l22 -78
q3 -11 3 -18q0 -30 -31 -30z" />
    <glyph glyph-name="Ydieresis" unicode="&#x178;" horiz-adv-x="564" 
d="M371 760q-47 0 -47 44q0 25 15.5 38t34.5 13q49 0 49 -44q0 -25 -16.5 -38t-35.5 -13zM567 760q-48 0 -48 48q0 22 15 34.5t34 12.5q50 0 50 -48q0 -23 -15.5 -35t-35.5 -12zM248 -269q10 0 28 25q44 61 93 203q-140 -145 -140 -200q0 -28 19 -28zM598 562q0 -12 -5 -34
l-94 -377q88 73 150 115q5 3 12 3t14 -10t7 -21t-7 -17q-101 -71 -199 -160q-58 -217 -111 -309t-140 -92q-30 0 -47.5 19t-17.5 47q0 116 242 341q8 27 15 57q-103 -103 -197 -103q-68 0 -109 57t-41 155q0 154 103 343q18 30 47.5 30t29.5 -17q0 -3 -2 -9
q-94 -233 -94 -362q0 -67 24 -99t66 -32t94 33.5t95 88.5l83 340q10 46 40 46q42 0 42 -33z" />
    <glyph glyph-name="Zacute" unicode="&#x179;" horiz-adv-x="585" 
d="M693 901q0 -16 -14 -29l-120 -114q-10 -9 -20 -9q-15 0 -15 16q0 7 6 18l87 140q11 19 29.5 19t32.5 -12.5t14 -28.5zM715 33q0 -24 -23 -38q-96 -60 -189 -60q-65 0 -133 27q-35 15 -57 25.5t-63.5 33t-56.5 30.5l-86 -51q-4 -1 -11 -1q-21 0 -35 17q-2 2 -2 7
q0 26 80 106q3 3 63.5 67t108.5 112.5t126 118t144 116.5q3 3 4 3q-158 5 -205 5q-158 0 -222 -37q-31 -19 -47 -38t-27 -46q-6 -14 -31 -14t-25 23q0 5 1 8q21 93 83 141q27 21 66 34t79.5 18t98 5t186 -8.5t185 -10t56.5 -36.5q0 -27 -26.5 -36t-72.5 -10
q-96 -80 -242 -231q-46 -47 -117 -123t-76 -81l4 -8q33 -18 71 -36q8 -4 29.5 -15t30 -14.5t26 -11t27.5 -10t27.5 -7.5t45.5 -5q69 0 154 58q12 7 23 7t19.5 -9.5t8.5 -24.5z" />
    <glyph glyph-name="zacute" unicode="&#x17a;" horiz-adv-x="235" 
d="M220 317q15 0 25 -8.5t10 -19.5q0 -36 -13.5 -50.5t-169.5 -154.5q0 -12 12.5 -20t36.5 -8q65 0 168 61q1 1 5.5 1t9 -8.5t4.5 -22.5t-11 -22q-94 -70 -188 -70q-48 0 -77.5 20t-29.5 54.5t38 67.5l149 126q-100 -8 -146 -8q-6 0 -12 11.5t-6 24.5q0 25 25 25zM324 545
q0 -16 -14 -29l-120 -114q-10 -9 -20 -9q-15 0 -15 16q0 7 6 18l87 140q11 19 29.5 19t32.5 -12.5t14 -28.5z" />
    <glyph glyph-name="Zdotaccent" unicode="&#x17b;" horiz-adv-x="585" 
d="M562 778q-18 0 -31 12.5t-13 31.5t14.5 34t34 15t32.5 -12.5t13 -31.5t-15 -34t-35 -15zM715 33q0 -24 -23 -38q-96 -60 -189 -60q-65 0 -133 27q-35 15 -57 25.5t-63.5 33t-56.5 30.5l-86 -51q-4 -1 -11 -1q-21 0 -35 17q-2 2 -2 7q0 26 80 106q3 3 63.5 67t108.5 112.5
t126 118t144 116.5q3 3 4 3q-158 5 -205 5q-158 0 -222 -37q-31 -19 -47 -38t-27 -46q-6 -14 -31 -14t-25 23q0 5 1 8q21 93 83 141q27 21 66 34t79.5 18t98 5t186 -8.5t185 -10t56.5 -36.5q0 -27 -26.5 -36t-72.5 -10q-96 -80 -242 -231q-46 -47 -117 -123t-76 -81l4 -8
q33 -18 71 -36q8 -4 29.5 -15t30 -14.5t26 -11t27.5 -10t27.5 -7.5t45.5 -5q69 0 154 58q12 7 23 7t19.5 -9.5t8.5 -24.5z" />
    <glyph glyph-name="zdotaccent" unicode="&#x17c;" horiz-adv-x="235" 
d="M220 317q15 0 25 -8.5t10 -19.5q0 -36 -13.5 -50.5t-169.5 -154.5q0 -12 12.5 -20t36.5 -8q65 0 168 61q1 1 5.5 1t9 -8.5t4.5 -22.5t-11 -22q-94 -70 -188 -70q-48 0 -77.5 20t-29.5 54.5t38 67.5l149 126q-100 -8 -146 -8q-6 0 -12 11.5t-6 24.5q0 25 25 25zM169 433
q-18 0 -31 12.5t-13 31.5t14.5 34t34 15t32.5 -12.5t13 -31.5t-15 -34t-35 -15z" />
    <glyph glyph-name="Zcaron" unicode="&#x17d;" horiz-adv-x="585" 
d="M461 969q20 0 29 -31l37 -139l56 123q4 12 10 23q1 3 4.5 9t6.5 8t7.5 4t15.5 2t22 -8t11 -18t-6 -20l-57 -106q-4 -7 -10 -18.5t-8.5 -16t-7 -12.5t-7 -10.5t-8.5 -9.5t-26 -7q-29 0 -40 11.5t-25 52.5l-40 118q-3 9 -3 17q0 28 39 28zM715 33q0 -24 -23 -38
q-96 -60 -189 -60q-65 0 -133 27q-35 15 -57 25.5t-63.5 33t-56.5 30.5l-86 -51q-4 -1 -11 -1q-21 0 -35 17q-2 2 -2 7q0 26 80 106q3 3 63.5 67t108.5 112.5t126 118t144 116.5q3 3 4 3q-158 5 -205 5q-158 0 -222 -37q-31 -19 -47 -38t-27 -46q-6 -14 -31 -14t-25 23
q0 5 1 8q21 93 83 141q27 21 66 34t79.5 18t98 5t186 -8.5t185 -10t56.5 -36.5q0 -27 -26.5 -36t-72.5 -10q-96 -80 -242 -231q-46 -47 -117 -123t-76 -81l4 -8q33 -18 71 -36q8 -4 29.5 -15t30 -14.5t26 -11t27.5 -10t27.5 -7.5t45.5 -5q69 0 154 58q12 7 23 7t19.5 -9.5
t8.5 -24.5z" />
    <glyph glyph-name="zcaron" unicode="&#x17e;" horiz-adv-x="235" 
d="M220 317q15 0 25 -8.5t10 -19.5q0 -36 -13.5 -50.5t-169.5 -154.5q0 -12 12.5 -20t36.5 -8q65 0 168 61q1 1 5.5 1t9 -8.5t4.5 -22.5t-11 -22q-94 -70 -188 -70q-48 0 -77.5 20t-29.5 54.5t38 67.5l149 126q-100 -8 -146 -8q-6 0 -12 11.5t-6 24.5q0 25 25 25zM85 624
q20 0 29 -31l37 -139l56 123q4 12 10 23q1 3 4.5 9t6.5 8t7.5 4t15.5 2t22 -8t11 -18t-6 -20l-57 -106q-4 -7 -10 -18.5t-8.5 -16t-7 -12.5t-7 -10.5t-8.5 -9.5t-26 -7q-29 0 -40 11.5t-25 52.5l-40 118q-3 9 -3 17q0 28 39 28z" />
    <glyph glyph-name="longs" unicode="&#x17f;" horiz-adv-x="1000" 
 />
    <glyph glyph-name="florin" unicode="&#x192;" horiz-adv-x="449" 
d="M299 361q11 85 34 147q14 39 33 63t51 40.5t69 16.5t64 -13.5t27 -35t-11 -37t-24.5 -15.5t-32 12t-37.5 12t-34 -17q-8 -9 -14.5 -17t-12 -23.5t-9 -25t-7.5 -28.5t-6 -27t-5 -28t-4 -24h91q33 0 33 -33q0 -15 -9.5 -24t-23.5 -9h-101q-4 -20 -11 -59t-12.5 -65.5
t-18 -74.5t-48.5 -94t-101 -46q-27 0 -48.5 13.5t-21.5 35t11 37t22.5 15.5t22 -12t19.5 -12q35 0 57 39q29 52 48 223h-59q-32 0 -32 34t48 34z" />
    <glyph glyph-name="uni01C4" unicode="&#x1c4;" horiz-adv-x="1192" 
d="M1068 969q20 0 29 -31l37 -139l56 123q4 12 10 23q1 3 4.5 9t6.5 8t7.5 4t15.5 2t22 -8t11 -18t-6 -20l-57 -106q-4 -7 -10 -18.5t-8.5 -16t-7 -12.5t-7 -10.5t-8.5 -9.5t-26 -7q-29 0 -40 11.5t-25 52.5l-40 118q-3 9 -3 17q0 28 39 28zM1322 33q0 -24 -23 -38
q-96 -60 -189 -60q-65 0 -133 27q-35 15 -57 25.5t-63.5 33t-56.5 30.5l-86 -51q-4 -1 -11 -1q-21 0 -35 17q-2 2 -2 7q0 26 80 106q3 3 63.5 67t108.5 112.5t126 118t144 116.5q3 3 4 3q-158 5 -205 5q-158 0 -222 -37q-31 -19 -47 -38t-27 -46q-6 -14 -31 -14t-25 23
q0 5 1 8q21 93 83 141q27 21 66 34t79.5 18t98 5t186 -8.5t185 -10t56.5 -36.5q0 -27 -26.5 -36t-72.5 -10q-96 -80 -242 -231q-46 -47 -117 -123t-76 -81l4 -8q33 -18 71 -36q8 -4 29.5 -15t30 -14.5t26 -11t27.5 -10t27.5 -7.5t45.5 -5q69 0 154 58q12 7 23 7t19.5 -9.5
t8.5 -24.5zM159 51q0 -19 6 -26.5t25 -7.5q136 0 233 107t97 244q0 98 -66 163.5t-177.5 65.5t-170.5 -60q-6 -6 -19 -25.5t-25 -32.5t-23 -13t-17.5 10.5t-6.5 27t12 44t20 36.5q78 91 219 91q162 0 250 -80.5t88 -216.5q0 -98 -35 -180t-92.5 -134.5t-129 -81.5
t-137.5 -29t-128 28q-14 6 -13 24q2 136 37 292t86 229q25 17 47 17t39 -28q-44 -57 -81.5 -209.5t-37.5 -254.5z" />
    <glyph glyph-name="uni01C5" unicode="&#x1c5;" horiz-adv-x="842" 
d="M827 317q15 0 25 -8.5t10 -19.5q0 -36 -13.5 -50.5t-169.5 -154.5q0 -12 12.5 -20t36.5 -8q65 0 168 61q1 1 5.5 1t9 -8.5t4.5 -22.5t-11 -22q-94 -70 -188 -70q-48 0 -77.5 20t-29.5 54.5t38 67.5l149 126q-100 -8 -146 -8q-6 0 -12 11.5t-6 24.5q0 25 25 25zM281 969
q20 0 29 -31l37 -139l56 123q4 12 10 23q1 3 4.5 9t6.5 8t7.5 4t15.5 2t22 -8t11 -18t-6 -20l-57 -106q-4 -7 -10 -18.5t-8.5 -16t-7 -12.5t-7 -10.5t-8.5 -9.5t-26 -7q-29 0 -40 11.5t-25 52.5l-40 118q-3 9 -3 17q0 28 39 28zM159 51q0 -19 6 -26.5t25 -7.5q136 0 233 107
t97 244q0 98 -66 163.5t-177.5 65.5t-170.5 -60q-6 -6 -19 -25.5t-25 -32.5t-23 -13t-17.5 10.5t-6.5 27t12 44t20 36.5q78 91 219 91q162 0 250 -80.5t88 -216.5q0 -98 -35 -180t-92.5 -134.5t-129 -81.5t-137.5 -29t-128 28q-14 6 -13 24q2 136 37 292t86 229q25 17 47 17
t39 -28q-44 -57 -81.5 -209.5t-37.5 -254.5z" />
    <glyph glyph-name="uni01C6" unicode="&#x1c6;" horiz-adv-x="621" 
d="M606 317q15 0 25 -8.5t10 -19.5q0 -36 -13.5 -50.5t-169.5 -154.5q0 -12 12.5 -20t36.5 -8q65 0 168 61q1 1 5.5 1t9 -8.5t4.5 -22.5t-11 -22q-94 -70 -188 -70q-48 0 -77.5 20t-29.5 54.5t38 67.5l149 126q-100 -8 -146 -8q-6 0 -12 11.5t-6 24.5q0 25 25 25zM22 114
q0 82 52 149.5t119 67.5q17 0 35 -6q46 332 186 332q30 0 50.5 -20t22.5 -47q1 -7 1 -21q0 -88 -51 -181q-28 -52 -44.5 -79t-57.5 -86t-47 -68v-9q0 -86 46 -86q52 0 108 73q5 5 16 5t21 -9t10 -21t-8 -23q-69 -88 -155 -88q-67 0 -98 69q-29 -71 -105 -71q-43 0 -72 33
t-29 86zM139 65q28 0 45.5 26.5t27.5 96.5l12 76q-53 0 -88 -44t-35 -98v-11q3 -46 38 -46zM399 574q-33 0 -53 -54q-11 -27 -22.5 -66.5t-33.5 -201.5q4 6 8 14q2 2 24 36.5t39 64.5t37 81t20 88.5t-19 37.5zM470 624q20 0 29 -31l37 -139l56 123q4 12 10 23q1 3 4.5 9
t6.5 8t7.5 4t15.5 2t22 -8t11 -18t-6 -20l-57 -106q-4 -7 -10 -18.5t-8.5 -16t-7 -12.5t-7 -10.5t-8.5 -9.5t-26 -7q-29 0 -40 11.5t-25 52.5l-40 118q-3 9 -3 17q0 28 39 28z" />
    <glyph glyph-name="uni01C7" unicode="&#x1c7;" horiz-adv-x="1129" 
d="M396 421q2 143 67 210q75 77 186 77q93 0 146 -58q21 29 105 29q32 0 234 -12q10 12 33.5 12t32.5 -15q52 -3 106 -3q42 0 42 -37q0 -31 -38 -37.5t-123 -8.5q-41 -160 -95 -336q-50 -162 -120 -298q-72 -139 -157 -139q-52 0 -81 48.5t-29 139.5q0 21 9 32.5t21 11.5
t21.5 -9.5t10.5 -26.5q5 -67 10 -87q10 -44 45.5 -44t81.5 80.5t86 201.5q76 228 121 427q-136 8 -225 8q-38 0 -54 -4q4 -16 4 -35q0 -81 -83 -140t-245 -59h-26q1 -15 1 -46q0 -183 -68 -288q59 -35 98 -35q58 0 114 68q13 14 25 14t18.5 -6.5t6.5 -15.5t-6 -20
q-66 -118 -150 -118q-53 0 -150 59q-71 -65 -182 -65q-64 0 -99.5 35t-35.5 80t29.5 76t81.5 31q84 0 188 -65q27 52 35 124.5t8 178.5q-63 8 -134 24q-18 4 -18 21.5t9.5 29.5t23.5 12zM652 634q-25 0 -55 -9q-56 -17 -82.5 -64t-31.5 -147h21q124 0 187.5 41t63.5 94
q0 35 -28.5 60t-74.5 25zM167 46q-17 0 -27 -11t-10 -28.5t15.5 -32.5t43.5 -15q76 0 121 39q-85 48 -140 48h-3z" />
    <glyph glyph-name="uni01C8" unicode="&#x1c8;" horiz-adv-x="843" 
d="M691 -210q-25 0 -54 8q-71 21 -270 159q-71 -61 -178 -61q-64 0 -99.5 35t-35.5 80t29.5 76t81.5 31q75 0 184 -72q30 52 38.5 125.5t8.5 182.5q-59 7 -134 26q-18 4 -18 22t9 29.5t19 11.5t37.5 -7.5t86.5 -16.5q1 138 60.5 206t151.5 80q18 2 25 2q69 0 111.5 -45
t42.5 -107q0 -83 -76.5 -145t-225.5 -62h-3q1 -15 1 -45q0 -192 -74 -298q10 -7 44.5 -32t49.5 -35t51.5 -33.5t77.5 -35.5q-3 24 -3 52q0 169 80 359q12 28 26.5 38t47.5 10q20 0 20 -20t-22 -67l-24 -55q80 12 117 22q30 9 46.5 16t21.5 7q12 0 12 -20q0 -78 -143 -80
q19 -63 19 -115q0 -126 -57 -190q-33 -36 -82 -36zM627 628q-77 0 -113 -64q-26 -49 -31 -152h2q111 0 169 42t58 95q0 34 -23 56.5t-62 22.5zM916 450q0 -26 -16 -41t-42 -15q-54 0 -54 47q0 25 17.5 39.5t44.5 14.5q50 0 50 -45zM703 -85q0 -46 17 -46q22 0 33.5 46
t11.5 97q0 41 -20 141q-33 -126 -41 -218zM189 -41q73 0 118 36q-90 51 -140 51q-17 0 -27 -11t-10 -28.5t15.5 -32.5t43.5 -15z" />
    <glyph glyph-name="uni01C9" unicode="&#x1c9;" horiz-adv-x="470" 
d="M155 -3q-50 0 -77 40.5t-27 110.5q0 21 1 32q13 145 76 302q31 75 77 124.5t97 49.5q30 0 48 -19.5t18 -48.5v-8q-10 -101 -82 -211t-159 -178q-4 -32 -4 -49q0 -81 48 -81q50 0 111 70q7 7 17.5 7t20 -8.5t9.5 -21t-12 -25.5q-76 -86 -162 -86zM277 574
q-42 0 -84.5 -107t-57.5 -203q59 66 108.5 150t50.5 140q0 20 -17 20zM329 -208q-73 0 -73 130q0 168 80 358q12 28 26.5 38t47.5 10q20 0 20 -20t-22 -67l-24 -55q80 12 117 22q30 9 46.5 16t21.5 7q12 0 12 -20q0 -78 -143 -80q19 -63 19 -115t-12 -101t-42.5 -86
t-73.5 -37zM330 -85q0 -46 17 -46q22 0 33.5 46t11.5 97q0 41 -20 141q-33 -126 -41 -218zM435 394q-54 0 -54 47q0 25 17.5 39.5t44.5 14.5q50 0 50 -45q0 -26 -16 -41t-42 -15z" />
    <glyph glyph-name="uni01CA" unicode="&#x1ca;" horiz-adv-x="1113" 
d="M621 543q0 -56 -66 -239t-66 -226q0 -16 14 -28t37 -12q53 0 93 45q14 15 27.5 15t21.5 -7.5t8 -23.5t-24 -39.5t-62 -41t-69 -17.5q-61 0 -93 26.5t-32 70.5q0 64 68 260q53 151 53 185q0 44 -39 44q-42 0 -78 -31q-20 -16 -37 -33.5t-36.5 -47.5t-35 -54.5t-34.5 -64.5
t-33 -69t-33.5 -76t-32 -77t-23 -56t-16.5 -41.5t-8.5 -19t-10.5 -15.5t-33 -12q-32 0 -56 25q156 387 156 527q0 61 -25 61h-1q-55 0 -104 -133q-2 -2 -11 -2t-28.5 14.5t-19.5 30t4 24.5q28 62 75 99.5t91.5 37.5t69.5 -24t26 -65q0 -69 -39 -221q41 108 79 170
q27 44 55.5 73t68.5 48.5t89.5 19.5t79.5 -27t30 -73zM814 -194h-2q-143 0 -143 207q0 21 9 32.5t21 11.5t21.5 -9.5t10.5 -26.5q5 -69 18.5 -99.5t51.5 -30.5t84.5 78t87.5 195q77 221 122 415q-17 0 -98 3.5t-120 3.5q-162 0 -213 -55q-24 -25 -44 -74q-8 -17 -28 -17
q-27 0 -27 27q0 7 1 11q27 114 107.5 157.5t214.5 43.5q40 0 230 -12q9 12 33.5 12t32.5 -15q51 -3 106 -3q42 0 42 -37q0 -31 -43 -38.5t-118 -7.5q-46 -182 -105 -373q-39 -130 -110 -269q-67 -130 -142 -130z" />
    <glyph glyph-name="uni01CB" unicode="&#x1cb;" horiz-adv-x="827" 
d="M686 -208q-73 0 -73 130q0 37 3 70q-44 -23 -93 -23t-81 26.5t-32 70.5q0 64 68 260q53 151 53 185q0 44 -39 44q-42 0 -78 -31q-20 -16 -37 -33.5t-36.5 -47.5t-35 -54.5t-34.5 -64.5t-33 -69t-33.5 -76t-32 -77t-23 -56t-16.5 -41.5t-8.5 -19t-10.5 -15.5t-33 -12
q-32 0 -56 25q156 387 156 527q0 61 -25 61h-1q-55 0 -104 -133q-2 -2 -11 -2t-28.5 14.5t-19.5 30t4 24.5q28 62 75 99.5t91.5 37.5t69.5 -24t26 -65q0 -69 -39 -221q41 108 79 170q27 44 55.5 73t68.5 48.5t89.5 19.5t79.5 -27t30 -78t-66 -234t-66 -221q0 -45 49.5 -45
t90.5 41q20 97 64 201q12 28 26.5 38t47.5 10q20 0 20 -20t-22 -67l-24 -55q80 12 117 22q30 9 46.5 16t21.5 7q12 0 12 -20q0 -78 -143 -80q19 -63 19 -115t-12 -101t-42.5 -86t-73.5 -37zM850 450q0 -26 -16 -41t-42 -15q-54 0 -54 47q0 25 17.5 39.5t44.5 14.5
q50 0 50 -45zM687 -85q0 -46 17 -46q22 0 33.5 46t11.5 97q0 41 -20 141q-33 -126 -41 -218z" />
    <glyph glyph-name="uni01CC" unicode="&#x1cc;" horiz-adv-x="587" 
d="M309 67q38 8 92 59q4 4 11.5 4t16 -13.5t8.5 -21t-2 -11.5q-32 -41 -80 -63t-80 -22q-58 0 -58 63q0 33 20 95t20 66.5t-2 4.5h-1q-17 -7 -71.5 -79.5t-66.5 -102.5t-20.5 -38.5t-27.5 -8.5q-37 1 -37 76q2 106 44 219q13 36 44 36q12 0 20 -8t8 -16.5t-1 -11.5
q-23 -66 -37 -148q52 90 102 137.5t89 47.5q20 0 35 -12.5t15 -26.5q0 -22 -25.5 -99.5t-27.5 -91.5t-2 -24.5t6.5 -10t7.5 0.5zM446 -208q-73 0 -73 130q0 168 80 358q12 28 26.5 38t47.5 10q20 0 20 -20t-22 -67l-24 -55q80 12 117 22q30 9 46.5 16t21.5 7q12 0 12 -20
q0 -78 -143 -80q19 -63 19 -115t-12 -101t-42.5 -86t-73.5 -37zM447 -85q0 -46 17 -46q22 0 33.5 46t11.5 97q0 41 -20 141q-33 -126 -41 -218zM552 394q-54 0 -54 47q0 25 17.5 39.5t44.5 14.5q50 0 50 -45q0 -26 -16 -41t-42 -15z" />
    <glyph glyph-name="uni01CD" unicode="&#x1cd;" horiz-adv-x="684" 
d="M471 969q20 0 29 -31l37 -139l56 123q4 12 10 23q1 3 4.5 9t6.5 8t7.5 4t15.5 2t22 -8t11 -18t-6 -20l-57 -106q-4 -7 -10 -18.5t-8.5 -16t-7 -12.5t-7 -10.5t-8.5 -9.5t-26 -7q-29 0 -40 11.5t-25 52.5l-40 118q-3 9 -3 17q0 28 39 28zM583 14q31 0 73 37q4 4 13.5 4
t19.5 -10.5t10 -23t-7 -20.5q-20 -24 -56.5 -41t-70.5 -17q-83 0 -83 100q0 22 3 43q-21 -55 -78 -100.5t-119 -45.5q-112 0 -170.5 65t-58.5 182.5t40.5 214t106 160t147.5 99.5t167 36q142 0 239 -93q13 -11 13 -27t-9.5 -26t-23 -10t-23.5 9q-91 66 -195 66
q-143 0 -250.5 -116t-114.5 -302v-15q0 -80 37.5 -123t109 -43t124.5 57.5t72 142.5l64 282q4 23 27 23t38 -10.5t15 -21t-1 -12.5l-70 -317q-15 -77 -15 -104t6 -35t20 -8z" />
    <glyph glyph-name="uni01CE" unicode="&#x1ce;" horiz-adv-x="350" 
d="M175 637q20 0 29 -31l37 -139l56 123q4 12 10 23q1 3 4.5 9t6.5 8t7.5 4t15.5 2t22 -8t11 -18t-6 -20l-57 -106q-4 -7 -10 -18.5t-8.5 -16t-7 -12.5t-7 -10.5t-8.5 -9.5t-26 -7q-29 0 -40 11.5t-25 52.5l-40 118q-3 9 -3 17q0 28 39 28zM21 104q0 90 64.5 160.5
t137.5 70.5q41 0 41 -21v-6h23q28 0 28 -26v-6l-28 -172q-1 -4 -1 -11q0 -24 17 -24q38 0 90 67q7 9 14 9q10 0 17 -15.5t7 -27t-2 -17.5q-23 -32 -60 -58.5t-70.5 -26.5t-52 17.5t-22.5 47.5v-2q-17 -32 -45 -50q-29 -18 -69 -18t-64.5 30.5t-24.5 78.5zM134 65
q27 0 51.5 30t33.5 66l27 112q-58 0 -104 -55t-46 -104t38 -49z" />
    <glyph glyph-name="uni01CF" unicode="&#x1cf;" horiz-adv-x="342" 
d="M281 969q20 0 29 -31l37 -139l56 123q4 12 10 23q1 3 4.5 9t6.5 8t7.5 4t15.5 2t22 -8t11 -18t-6 -20l-57 -106q-4 -7 -10 -18.5t-8.5 -16t-7 -12.5t-7 -10.5t-8.5 -9.5t-26 -7q-29 0 -40 11.5t-25 52.5l-40 118q-3 9 -3 17q0 28 39 28zM0 4q0 10 2 15q5 17 49.5 26
t82.5 10q19 129 59.5 276t84.5 246q-7 0 -33 -1t-41 -1h-2q-34 0 -46 5t-12 25t6.5 34.5t18 15.5t150.5 5t154 4q22 0 22 -28q0 -14 -7 -33q-7 -17 -89 -21q-42 -3 -45 -3q-7 -1 -40 -105.5t-65.5 -232.5t-37.5 -183q5 1 51.5 1t60.5 -5.5t14 -21t-10.5 -27t-30.5 -12.5
q-50 -2 -150.5 -12.5t-116.5 -10.5q-29 0 -29 34z" />
    <glyph glyph-name="uni01D0" unicode="&#x1d0;" 
d="M39 96q0 43 18 107.5t40 105.5q16 30 43 30q15 0 27 -6.5t12 -15.5t-11 -29.5t-31 -83t-20 -97.5q0 -47 35 -47q42 0 101 68q8 10 19.5 10t21 -8.5t9.5 -20t-11 -25.5q-74 -87 -154 -87q-45 0 -72 27.5t-27 71.5zM76 650q20 0 29 -31l37 -139l56 123q4 12 10 23
q1 3 4.5 9t6.5 8t7.5 4t15.5 2t22 -8t11 -18t-6 -20l-57 -106q-4 -7 -10 -18.5t-8.5 -16t-7 -12.5t-7 -10.5t-8.5 -9.5t-26 -7q-29 0 -40 11.5t-25 52.5l-40 118q-3 9 -3 17q0 28 39 28z" />
    <glyph glyph-name="uni01D1" unicode="&#x1d1;" horiz-adv-x="661" 
d="M391 969q20 0 29 -31l37 -139l56 123q4 12 10 23q1 3 4.5 9t6.5 8t7.5 4t15.5 2t22 -8t11 -18t-6 -20l-57 -106q-4 -7 -10 -18.5t-8.5 -16t-7 -12.5t-7 -10.5t-8.5 -9.5t-26 -7q-29 0 -40 11.5t-25 52.5l-40 118q-3 9 -3 17q0 28 39 28zM334 -24q79 0 138.5 58.5t87 142
t27.5 183t-40.5 165.5t-120 66t-143 -60.5t-93.5 -144t-30 -178t44.5 -163.5t129.5 -69zM70 206q0 119 39.5 222.5t122 172t191.5 68.5q124 0 189 -92t65 -248.5t-89 -289.5q-42 -64 -110 -103.5t-151 -39.5q-123 0 -190 90t-67 220z" />
    <glyph glyph-name="uni01D2" unicode="&#x1d2;" horiz-adv-x="315" 
d="M128 -5q-50 0 -82 36t-32 90q0 82 53.5 145.5t125.5 63.5q42 0 70.5 -30t28.5 -76q0 -10 -4 -32q65 12 129 84q4 4 10.5 4t13.5 -9.5t7 -19t-4 -13.5q-67 -83 -166 -110q-33 -133 -150 -133zM143 59q26 0 48.5 29t25.5 58q-37 16 -37 41t26 50q-1 13 -6.5 19t-15.5 6
q-38 0 -65 -44.5t-27 -92.5q0 -66 51 -66zM129 637q20 0 29 -31l37 -139l56 123q4 12 10 23q1 3 4.5 9t6.5 8t7.5 4t15.5 2t22 -8t11 -18t-6 -20l-57 -106q-4 -7 -10 -18.5t-8.5 -16t-7 -12.5t-7 -10.5t-8.5 -9.5t-26 -7q-29 0 -40 11.5t-25 52.5l-40 118q-3 9 -3 17
q0 28 39 28z" />
    <glyph glyph-name="uni01D3" unicode="&#x1d3;" horiz-adv-x="632" 
d="M391 969q20 0 29 -31l37 -139l56 123q4 12 10 23q1 3 4.5 9t6.5 8t7.5 4t15.5 2t22 -8t11 -18t-6 -20l-57 -106q-4 -7 -10 -18.5t-8.5 -16t-7 -12.5t-7 -10.5t-8.5 -9.5t-26 -7q-29 0 -40 11.5t-25 52.5l-40 118q-3 9 -3 17q0 28 39 28zM792 482q-59 -48 -120 -71
q-23 -172 -122 -317q-48 -70 -117.5 -113.5t-147.5 -43.5q-104 0 -153 64.5t-49 172.5q0 145 76 309l-79 -52q-9 -6 -16 -6q-21 0 -21 30q0 15 15 25l168 108q14 7 30 7q31 0 31 -23q0 -8 -6 -19q-48 -79 -80 -183t-32 -184.5t28.5 -125.5t88 -45t111.5 34.5t89 90.5
q76 114 103 255q-77 0 -124.5 53t-47.5 112.5t34 95.5t97.5 36t96 -56.5t32.5 -148.5v-13q43 18 86 50q9 6 17.5 6t15.5 -7.5t7 -20t-11 -20.5zM482 566q0 -41 30.5 -75t84.5 -35q2 28 2 39q0 59 -16.5 94t-45.5 35t-42 -16.5t-13 -41.5z" />
    <glyph glyph-name="uni01D4" unicode="&#x1d4;" horiz-adv-x="347" 
d="M332 297q-35 -105 -45 -199l-1 -12q0 -23 14 -23q32 2 83 58q13 10 21.5 10t20.5 -11.5t12 -21.5q0 -23 -61.5 -62.5t-98.5 -39.5q-59 0 -60 59l3 31q-11 -31 -42 -61t-74 -30t-64.5 29t-21.5 75q0 60 20.5 125t32.5 85.5t31.5 20.5t29.5 -7.5t10 -14t-24 -73.5t-28 -118
v-7q0 -49 34 -49q27 0 55.5 31.5t44.5 86.5l27 100q10 33 19.5 42t25 9t26.5 -9t11 -20zM129 621q20 0 29 -31l37 -139l56 123q4 12 10 23q1 3 4.5 9t6.5 8t7.5 4t15.5 2t22 -8t11 -18t-6 -20l-57 -106q-4 -7 -10 -18.5t-8.5 -16t-7 -12.5t-7 -10.5t-8.5 -9.5t-26 -7
q-29 0 -40 11.5t-25 52.5l-40 118q-3 9 -3 17q0 28 39 28z" />
    <glyph glyph-name="uni01E2" unicode="&#x1e2;" horiz-adv-x="1237" 
d="M799 757q-52 0 -89 -8t-41 -8q-25 0 -25 31q0 46 104 46q62 0 143 -12q27 -8 27 -26q0 -26 -30 -26zM675 662q78 42 169.5 42t154 -38.5t62.5 -105.5q0 -33 -13 -53t-26.5 -24.5t-28.5 -4.5h-4q-14 0 -28 8q-25 14 -25 48q0 43 47 62q-47 43 -127 43t-118 -29.5
t-53 -96.5t-31 -127q-7 -25 -9 -35q1 0 48 -1l47 -1q20 -2 20 -41.5t-36 -42.5h-95q-13 -43 -13 -82q0 -84 54 -129.5t126 -45.5t132.5 32.5t95.5 93.5q8 13 28.5 13t30 -13t9.5 -28.5t-10 -26.5q-33 -73 -115.5 -114.5t-175.5 -41.5h-3q-94 0 -161.5 45t-76.5 131
q-32 -77 -109.5 -118t-152.5 -41q-112 0 -170.5 65t-58.5 182.5t40.5 214t106 160t147.5 99.5t166.5 36t155.5 -35zM392 593q-60 -26 -112 -76t-86 -133t-38 -186v-15q0 -80 37.5 -123t106.5 -43q112 0 176 92q38 55 82 253t59 235q-45 22 -105 22t-120 -26z" />
    <glyph glyph-name="uni01E3" unicode="&#x1e3;" horiz-adv-x="487" 
d="M369 425q-52 0 -89 -8t-41 -8q-25 0 -25 31q0 46 104 46q62 0 143 -12q27 -8 27 -26q0 -26 -30 -26zM236 63q-37 -69 -116 -69q-48 0 -75.5 29.5t-27.5 75.5v7q5 105 71 167t183 62q19 0 29.5 -7.5t11.5 -12t1 -8.5q36 23 75.5 23t66.5 -23t27 -62q0 -55 -45 -89
t-136 -53q15 -43 70 -43h3q80 0 150 68q4 4 13 4t16.5 -7t7.5 -17t-7 -20q-26 -36 -80 -65t-104 -29q-100 0 -134 69zM140 65q42 0 80 53q0 45 15 87t36 61q-70 0 -120.5 -51.5t-50.5 -100.5t40 -49zM326.5 228q-30.5 -37 -30.5 -81q125 42 125 90q0 28 -32 28t-62.5 -37z
" />
    <glyph glyph-name="Gcaron" unicode="&#x1e6;" horiz-adv-x="712" 
d="M471 969q20 0 29 -31l37 -139l56 123q4 12 10 23q1 3 4.5 9t6.5 8t7.5 4t15.5 2t22 -8t11 -18t-6 -20l-57 -106q-4 -7 -10 -18.5t-8.5 -16t-7 -12.5t-7 -10.5t-8.5 -9.5t-26 -7q-29 0 -40 11.5t-25 52.5l-40 118q-3 9 -3 17q0 28 39 28zM59 200q0 88 29 166
q50 141 181 230q116 80 240 80q82 0 134 -42t52 -121q0 -51 -49 -51q-22 0 -34.5 11t-12.5 46t-27.5 55t-72.5 20q-90 0 -177 -63q-45 -33 -81.5 -77.5t-59.5 -110.5t-23 -141q0 -95 51.5 -140t137.5 -45q114 0 256 70l6 29q1 4 1 12t-10 11t-40 3t-44 7.5t-14 28.5
q0 41 61 41q76 0 104 -12.5t28 -48.5q0 -14 -5 -39q-42 -230 -113 -340.5t-180 -110.5q-49 0 -106 21q-37 14 -37 44q0 19 14.5 34.5t32.5 15.5q3 0 11 -2q52 -19 90 -19q61 0 105 59t85 206q-22 -30 -101.5 -57t-163.5 -27q-110 0 -185 55q-83 60 -83 202z" />
    <glyph glyph-name="gcaron" unicode="&#x1e7;" horiz-adv-x="344" 
d="M332 271l-56 -237q103 84 144 84q9 0 19.5 -9.5t10.5 -25.5t-22 -27q-116 -63 -161 -93q-36 -163 -80 -215q-56 -65 -124 -65q-83 0 -83 68q0 18 6 31q3 8 5.5 14.5t8 14.5t8.5 12.5t10 13.5t9.5 12t10.5 11.5t22.5 25.5t59.5 50q16 13 42.5 32.5t39.5 29.5l10 48
q-13 -19 -40 -32.5t-52 -13.5q-42 0 -67.5 27.5t-25.5 68.5q0 92 64 161.5t145 69.5h4q17 0 26 -7.5t9 -16.5q9 4 23 4t24.5 -8.5t10.5 -21.5zM142 65q60 0 87 97l27 102q-60 0 -104.5 -51t-44.5 -99.5t35 -48.5zM58 -263q51 0 89 67.5t51 131.5q-10 -9 -31.5 -27
t-32.5 -27.5t-28.5 -25t-26.5 -26t-23 -29.5t-14 -43q0 -21 16 -21zM175 637q20 0 29 -31l37 -139l56 123q4 12 10 23q1 3 4.5 9t6.5 8t7.5 4t15.5 2t22 -8t11 -18t-6 -20l-57 -106q-4 -7 -10 -18.5t-8.5 -16t-7 -12.5t-7 -10.5t-8.5 -9.5t-26 -7q-29 0 -40 11.5t-25 52.5
l-40 118q-3 9 -3 17q0 28 39 28z" />
    <glyph glyph-name="uni01E8" unicode="&#x1e8;" horiz-adv-x="646" 
d="M451 969q20 0 29 -31l37 -139l56 123q4 12 10 23q1 3 4.5 9t6.5 8t7.5 4t15.5 2t22 -8t11 -18t-6 -20l-57 -106q-4 -7 -10 -18.5t-8.5 -16t-7 -12.5t-7 -10.5t-8.5 -9.5t-26 -7q-29 0 -40 11.5t-25 52.5l-40 118q-3 9 -3 17q0 28 39 28zM3 304q-14 0 -28.5 16t-14.5 72
q0 108 81 187t258 103h7q36 0 36 -33q0 -86 -22 -317q109 59 205.5 142t144.5 152q7 11 10.5 15.5t15 17.5t28.5 13q28 0 28 -27q0 -17 -10 -40q-26 -55 -129 -152t-226 -159q58 -203 109.5 -286t131.5 -83q18 0 44.5 5.5t37.5 5.5t17 -8t6 -30q0 -23 -47 -33.5t-76 -10.5
q-111 0 -180 108t-116 332q-38 -214 -103 -317.5t-173 -103.5t-108 34q0 17 14 35.5t29 18.5l50 -9q114 0 173 167.5t59 492.5q-211 -43 -211 -219l4 -57q0 -24 -45 -32z" />
    <glyph glyph-name="uni01E9" unicode="&#x1e9;" horiz-adv-x="432" 
d="M240 72q0 26 17.5 50t38 39t39 31t19 30t-11.5 14q-33 0 -70 -37.5t-64 -82.5t-61.5 -82.5t-63.5 -37.5q-37 0 -37 83q0 124 33 267q19 83 46.5 150.5t73.5 113.5t103 46q33 0 51.5 -21t18.5 -61t-31 -101.5t-75 -116.5q-89 -108 -137 -149q-15 -87 -15 -130
q137 245 256 245q32 0 49.5 -18t17.5 -49.5t-19 -58.5t-42 -42q-63 -38 -70 -77v-5q0 -19 30 -19t68 30q33 25 58 60q5 8 14.5 8t17.5 -11t8 -21.5t-5 -18.5q-25 -39 -76 -73t-89 -34t-65 19t-27 60zM278 574q-40 0 -81 -94t-55 -184q64 74 101 126q28 39 40.5 71t12.5 56.5
t-18 24.5zM406 910q20 0 29 -31l37 -139l56 123q4 12 10 23q1 3 4.5 9t6.5 8t7.5 4t15.5 2t22 -8t11 -18t-6 -20l-57 -106q-4 -7 -10 -18.5t-8.5 -16t-7 -12.5t-7 -10.5t-8.5 -9.5t-26 -7q-29 0 -40 11.5t-25 52.5l-40 118q-3 9 -3 17q0 28 39 28z" />
    <glyph glyph-name="uni01EA" unicode="&#x1ea;" horiz-adv-x="661" 
d="M265 -186q0 59 77 103h27q-44 -48 -44 -83q0 -22 23 -22.5t55 22.5q2 2 4.5 2t6 -8.5t3.5 -22.5t-7 -20q-33 -29 -85 -29q-60 0 -60 58zM334 -24q79 0 138.5 58.5t87 142t27.5 183t-40.5 165.5t-120 66t-143 -60.5t-93.5 -144t-30 -178t44.5 -163.5t129.5 -69zM70 206
q0 119 39.5 222.5t122 172t191.5 68.5q124 0 189 -92t65 -248.5t-89 -289.5q-42 -64 -110 -103.5t-151 -39.5q-123 0 -190 90t-67 220z" />
    <glyph glyph-name="uni01EB" unicode="&#x1eb;" horiz-adv-x="315" 
d="M59 -81q0 59 77 103h27q-44 -48 -44 -83q0 -22 23 -22.5t55 22.5q2 2 4.5 2t6 -8.5t3.5 -22.5t-7 -20q-33 -29 -85 -29q-60 0 -60 58zM128 -5q-50 0 -82 36t-32 90q0 82 53.5 145.5t125.5 63.5q42 0 70.5 -30t28.5 -76q0 -10 -4 -32q65 12 129 84q4 4 10.5 4t13.5 -9.5
t7 -19t-4 -13.5q-67 -83 -166 -110q-33 -133 -150 -133zM143 59q26 0 48.5 29t25.5 58q-37 16 -37 41t26 50q-1 13 -6.5 19t-15.5 6q-38 0 -65 -44.5t-27 -92.5q0 -66 51 -66z" />
    <glyph glyph-name="uni01F0" unicode="&#x1f0;" horiz-adv-x="221" 
d="M55.9961 -145.59q-51.0967 0 -51.0967 90.9941q0 117.592 55.9961 250.582q8.39941 19.5986 18.5488 26.5977q10.1494 7 33.248 7q13.999 0 13.999 -13.999t-15.3994 -46.8965l-16.7988 -38.4971q55.9961 8.39844 81.8945 15.3984q20.999 6.2998 32.5479 11.1992
t15.0488 4.89941q8.39941 0 8.39941 -13.999q0 -54.5957 -100.093 -55.9961q13.2988 -44.0967 13.2988 -80.4941t-8.39941 -70.6953q-8.39941 -34.2969 -29.748 -60.1953t-51.4463 -25.8984zM56.6963 -59.4961q0 -32.1973 11.8994 -32.1973q15.3984 0 23.4482 32.1973
q8.04883 32.1982 8.04883 67.8955q0 28.6982 -13.999 98.6934q-23.0977 -88.1943 -28.6973 -152.59zM85 632q20 0 29 -31l37 -139l56 123q4 12 10 23q1 3 4.5 9t6.5 8t7.5 4t15.5 2t22 -8t11 -18t-6 -20l-57 -106q-4 -7 -10 -18.5t-8.5 -16t-7 -12.5t-7 -10.5t-8.5 -9.5
t-26 -7q-29 0 -40 11.5t-25 52.5l-40 118q-3 9 -3 17q0 28 39 28z" />
    <glyph glyph-name="uni01F1" unicode="&#x1f1;" horiz-adv-x="1192" 
d="M1322 33q0 -24 -23 -38q-96 -60 -189 -60q-65 0 -133 27q-35 15 -57 25.5t-63.5 33t-56.5 30.5l-86 -51q-4 -1 -11 -1q-21 0 -35 17q-2 2 -2 7q0 26 80 106q3 3 63.5 67t108.5 112.5t126 118t144 116.5q3 3 4 3q-158 5 -205 5q-158 0 -222 -37q-31 -19 -47 -38t-27 -46
q-6 -14 -31 -14t-25 23q0 5 1 8q21 93 83 141q27 21 66 34t79.5 18t98 5t186 -8.5t185 -10t56.5 -36.5q0 -27 -26.5 -36t-72.5 -10q-96 -80 -242 -231q-46 -47 -117 -123t-76 -81l4 -8q33 -18 71 -36q8 -4 29.5 -15t30 -14.5t26 -11t27.5 -10t27.5 -7.5t45.5 -5q69 0 154 58
q12 7 23 7t19.5 -9.5t8.5 -24.5zM159 51q0 -19 6 -26.5t25 -7.5q136 0 233 107t97 244q0 98 -66 163.5t-177.5 65.5t-170.5 -60q-6 -6 -19 -25.5t-25 -32.5t-23 -13t-17.5 10.5t-6.5 27t12 44t20 36.5q78 91 219 91q162 0 250 -80.5t88 -216.5q0 -98 -35 -180t-92.5 -134.5
t-129 -81.5t-137.5 -29t-128 28q-14 6 -13 24q2 136 37 292t86 229q25 17 47 17t39 -28q-44 -57 -81.5 -209.5t-37.5 -254.5z" />
    <glyph glyph-name="uni01F2" unicode="&#x1f2;" horiz-adv-x="842" 
d="M827 317q15 0 25 -8.5t10 -19.5q0 -36 -13.5 -50.5t-169.5 -154.5q0 -12 12.5 -20t36.5 -8q65 0 168 61q1 1 5.5 1t9 -8.5t4.5 -22.5t-11 -22q-94 -70 -188 -70q-48 0 -77.5 20t-29.5 54.5t38 67.5l149 126q-100 -8 -146 -8q-6 0 -12 11.5t-6 24.5q0 25 25 25zM159 51
q0 -19 6 -26.5t25 -7.5q136 0 233 107t97 244q0 98 -66 163.5t-177.5 65.5t-170.5 -60q-6 -6 -19 -25.5t-25 -32.5t-23 -13t-17.5 10.5t-6.5 27t12 44t20 36.5q78 91 219 91q162 0 250 -80.5t88 -216.5q0 -98 -35 -180t-92.5 -134.5t-129 -81.5t-137.5 -29t-128 28
q-14 6 -13 24q2 136 37 292t86 229q25 17 47 17t39 -28q-44 -57 -81.5 -209.5t-37.5 -254.5z" />
    <glyph glyph-name="uni01F3" unicode="&#x1f3;" horiz-adv-x="620" 
d="M605 317q15 0 25 -8.5t10 -19.5q0 -36 -13.5 -50.5t-169.5 -154.5q0 -12 12.5 -20t36.5 -8q65 0 168 61q1 1 5.5 1t9 -8.5t4.5 -22.5t-11 -22q-94 -70 -188 -70q-48 0 -77.5 20t-29.5 54.5t38 67.5l149 126q-100 -8 -146 -8q-6 0 -12 11.5t-6 24.5q0 25 25 25zM22 114
q0 82 52 149.5t119 67.5q17 0 35 -6q46 332 186 332q30 0 50.5 -20t22.5 -47q1 -7 1 -21q0 -88 -51 -181q-28 -52 -44.5 -79t-57.5 -86t-47 -68v-9q0 -86 46 -86q52 0 108 73q5 5 16 5t21 -9t10 -21t-8 -23q-69 -88 -155 -88q-67 0 -98 69q-29 -71 -105 -71q-43 0 -72 33
t-29 86zM139 65q28 0 45.5 26.5t27.5 96.5l12 76q-53 0 -88 -44t-35 -98v-11q3 -46 38 -46zM399 574q-33 0 -53 -54q-11 -27 -22.5 -66.5t-33.5 -201.5q4 6 8 14q2 2 24 36.5t39 64.5t37 81t20 88.5t-19 37.5z" />
    <glyph glyph-name="uni01F4" unicode="&#x1f4;" horiz-adv-x="712" 
d="M703 901q0 -16 -14 -29l-120 -114q-10 -9 -20 -9q-15 0 -15 16q0 7 6 18l87 140q11 19 29.5 19t32.5 -12.5t14 -28.5zM59 200q0 88 29 166q50 141 181 230q116 80 240 80q82 0 134 -42t52 -121q0 -51 -49 -51q-22 0 -34.5 11t-12.5 46t-27.5 55t-72.5 20q-90 0 -177 -63
q-45 -33 -81.5 -77.5t-59.5 -110.5t-23 -141q0 -95 51.5 -140t137.5 -45q114 0 256 70l6 29q1 4 1 12t-10 11t-40 3t-44 7.5t-14 28.5q0 41 61 41q76 0 104 -12.5t28 -48.5q0 -14 -5 -39q-42 -230 -113 -340.5t-180 -110.5q-49 0 -106 21q-37 14 -37 44q0 19 14.5 34.5
t32.5 15.5q3 0 11 -2q52 -19 90 -19q61 0 105 59t85 206q-22 -30 -101.5 -57t-163.5 -27q-110 0 -185 55q-83 60 -83 202z" />
    <glyph glyph-name="uni01F5" unicode="&#x1f5;" horiz-adv-x="344" 
d="M332 271l-56 -237q103 84 144 84q9 0 19.5 -9.5t10.5 -25.5t-22 -27q-116 -63 -161 -93q-36 -163 -80 -215q-56 -65 -124 -65q-83 0 -83 68q0 18 6 31q3 8 5.5 14.5t8 14.5t8.5 12.5t10 13.5t9.5 12t10.5 11.5t22.5 25.5t59.5 50q16 13 42.5 32.5t39.5 29.5l10 48
q-13 -19 -40 -32.5t-52 -13.5q-42 0 -67.5 27.5t-25.5 68.5q0 92 64 161.5t145 69.5h4q17 0 26 -7.5t9 -16.5q9 4 23 4t24.5 -8.5t10.5 -21.5zM142 65q60 0 87 97l27 102q-60 0 -104.5 -51t-44.5 -99.5t35 -48.5zM58 -263q51 0 89 67.5t51 131.5q-10 -9 -31.5 -27
t-32.5 -27.5t-28.5 -25t-26.5 -26t-23 -29.5t-14 -43q0 -21 16 -21zM407 569q0 -16 -14 -29l-120 -114q-10 -9 -20 -9q-15 0 -15 16q0 7 6 18l87 140q11 19 29.5 19t32.5 -12.5t14 -28.5z" />
    <glyph glyph-name="uni01F8" unicode="&#x1f8;" horiz-adv-x="606" 
d="M430 739q-11 0 -20 9l-119 113q-14 13 -14 29t14 29t32 13t30 -19l86 -141q7 -10 7 -18q0 -15 -16 -15zM621 543q0 -56 -66 -239t-66 -226q0 -16 14 -28t37 -12q53 0 93 45q14 15 27.5 15t21.5 -7.5t8 -23.5t-24 -39.5t-62 -41t-69 -17.5q-61 0 -93 26.5t-32 70.5
q0 64 68 260q53 151 53 185q0 44 -39 44q-42 0 -78 -31q-20 -16 -37 -33.5t-36.5 -47.5t-35 -54.5t-34.5 -64.5t-33 -69t-33.5 -76t-32 -77t-23 -56t-16.5 -41.5t-8.5 -19t-10.5 -15.5t-33 -12q-32 0 -56 25q156 387 156 527q0 61 -25 61h-1q-55 0 -104 -133q-2 -2 -11 -2
t-28.5 14.5t-19.5 30t4 24.5q28 62 75 99.5t91.5 37.5t69.5 -24t26 -65q0 -69 -39 -221q41 108 79 170q27 44 55.5 73t68.5 48.5t89.5 19.5t79.5 -27t30 -73z" />
    <glyph glyph-name="uni01F9" unicode="&#x1f9;" horiz-adv-x="344" 
d="M309 67q38 8 92 59q4 4 11.5 4t16 -13.5t8.5 -21t-2 -11.5q-32 -41 -80 -63t-80 -22q-58 0 -58 63q0 33 20 95t20 66.5t-2 4.5h-1q-17 -7 -71.5 -79.5t-66.5 -102.5t-20.5 -38.5t-27.5 -8.5q-37 1 -37 76q2 106 44 219q13 36 44 36q12 0 20 -8t8 -16.5t-1 -11.5
q-23 -66 -37 -148q52 90 102 137.5t89 47.5q20 0 35 -12.5t15 -26.5q0 -22 -25.5 -99.5t-27.5 -91.5t-2 -24.5t6.5 -10t7.5 0.5zM225 407q-11 0 -20 9l-119 113q-14 13 -14 29t14 29t32 13t30 -19l86 -141q7 -10 7 -18q0 -15 -16 -15z" />
    <glyph glyph-name="Aringacute" unicode="&#x1fa;" horiz-adv-x="684" 
d="M539 771q21 0 38.5 15t17.5 33.5t-12 26t-31 7.5t-36 -13t-17 -31.5t11 -28t29 -9.5zM453 801q0 45 30 70t71 25t66 -19t25 -51q0 -11 -3 -23q-10 -37 -36.5 -58t-64 -21t-63 22t-25.5 55zM764 1086q0 -16 -14 -29l-120 -114q-10 -9 -20 -9q-15 0 -15 16q0 7 6 18l87 140
q11 19 29.5 19t32.5 -12.5t14 -28.5zM583 14q31 0 73 37q4 4 13.5 4t19.5 -10.5t10 -23t-7 -20.5q-20 -24 -56.5 -41t-70.5 -17q-83 0 -83 100q0 22 3 43q-21 -55 -78 -100.5t-119 -45.5q-112 0 -170.5 65t-58.5 182.5t40.5 214t106 160t147.5 99.5t167 36q142 0 239 -93
q13 -11 13 -27t-9.5 -26t-23 -10t-23.5 9q-91 66 -195 66q-143 0 -250.5 -116t-114.5 -302v-15q0 -80 37.5 -123t109 -43t124.5 57.5t72 142.5l64 282q4 23 27 23t38 -10.5t15 -21t-1 -12.5l-70 -317q-15 -77 -15 -104t6 -35t20 -8z" />
    <glyph glyph-name="aringacute" unicode="&#x1fb;" horiz-adv-x="350" 
d="M243 439q21 0 38.5 15t17.5 33.5t-12 26t-31 7.5t-36 -13t-17 -31.5t11 -28t29 -9.5zM157 469q0 45 30 70t71 25t66 -19t25 -51q0 -11 -3 -23q-10 -37 -36.5 -58t-64 -21t-63 22t-25.5 55zM468 754q0 -16 -14 -29l-120 -114q-10 -9 -20 -9q-15 0 -15 16q0 7 6 18l87 140
q11 19 29.5 19t32.5 -12.5t14 -28.5zM21 104q0 90 64.5 160.5t137.5 70.5q41 0 41 -21v-6h23q28 0 28 -26v-6l-28 -172q-1 -4 -1 -11q0 -24 17 -24q38 0 90 67q7 9 14 9q10 0 17 -15.5t7 -27t-2 -17.5q-23 -32 -60 -58.5t-70.5 -26.5t-52 17.5t-22.5 47.5v-2
q-17 -32 -45 -50q-29 -18 -69 -18t-64.5 30.5t-24.5 78.5zM134 65q27 0 51.5 30t33.5 66l27 112q-58 0 -104 -55t-46 -104t38 -49z" />
    <glyph glyph-name="AEacute" unicode="&#x1fc;" horiz-adv-x="1237" 
d="M956 901q0 -16 -14 -29l-120 -114q-10 -9 -20 -9q-15 0 -15 16q0 7 6 18l87 140q11 19 29.5 19t32.5 -12.5t14 -28.5zM675 662q78 42 169.5 42t154 -38.5t62.5 -105.5q0 -33 -13 -53t-26.5 -24.5t-28.5 -4.5h-4q-14 0 -28 8q-25 14 -25 48q0 43 47 62q-47 43 -127 43
t-118 -29.5t-53 -96.5t-31 -127q-7 -25 -9 -35q1 0 48 -1l47 -1q20 -2 20 -41.5t-36 -42.5h-95q-13 -43 -13 -82q0 -84 54 -129.5t126 -45.5t132.5 32.5t95.5 93.5q8 13 28.5 13t30 -13t9.5 -28.5t-10 -26.5q-33 -73 -115.5 -114.5t-175.5 -41.5h-3q-94 0 -161.5 45
t-76.5 131q-32 -77 -109.5 -118t-152.5 -41q-112 0 -170.5 65t-58.5 182.5t40.5 214t106 160t147.5 99.5t166.5 36t155.5 -35zM392 593q-60 -26 -112 -76t-86 -133t-38 -186v-15q0 -80 37.5 -123t106.5 -43q112 0 176 92q38 55 82 253t59 235q-45 22 -105 22t-120 -26z" />
    <glyph glyph-name="aeacute" unicode="&#x1fd;" horiz-adv-x="487" 
d="M236 63q-37 -69 -116 -69q-48 0 -75.5 29.5t-27.5 75.5v7q5 105 71 167t183 62q19 0 29.5 -7.5t11.5 -12t1 -8.5q36 23 75.5 23t66.5 -23t27 -62q0 -55 -45 -89t-136 -53q15 -43 70 -43h3q80 0 150 68q4 4 13 4t16.5 -7t7.5 -17t-7 -20q-26 -36 -80 -65t-104 -29
q-100 0 -134 69zM140 65q42 0 80 53q0 45 15 87t36 61q-70 0 -120.5 -51.5t-50.5 -100.5t40 -49zM326.5 228q-30.5 -37 -30.5 -81q125 42 125 90q0 28 -32 28t-62.5 -37zM503 558q0 -16 -14 -29l-120 -114q-10 -9 -20 -9q-15 0 -15 16q0 7 6 18l87 140q11 19 29.5 19
t32.5 -12.5t14 -28.5z" />
    <glyph glyph-name="Oslashacute" unicode="&#x1fe;" horiz-adv-x="661" 
d="M623 901q0 -16 -14 -29l-120 -114q-10 -9 -20 -9q-15 0 -15 16q0 7 6 18l87 140q11 19 29.5 19t32.5 -12.5t14 -28.5zM698 708l-585 -895q-11 -17 -26.5 -17t-23.5 7.5t-8 19t8 25.5l599 883q5 12 17 12t18.5 -5t6.5 -13t-6 -17zM334 -24q-85 0 -129.5 69t-44.5 172
q0 86 30 169.5t93.5 144t144.5 60.5q78 0 118.5 -66t40.5 -175q0 -90 -27.5 -173.5t-87 -142t-138.5 -58.5zM70 206q0 -130 67 -220t190 -90q83 0 151 39.5t110.5 103.5t65.5 141.5t23 158.5q0 146 -65 238t-189 92q-109 0 -191.5 -68.5t-122 -172t-39.5 -222.5z" />
    <glyph glyph-name="oslashacute" unicode="&#x1ff;" horiz-adv-x="322" 
d="M405 359q-117 -79 -209.5 -180.5t-182.5 -227.5q-4 -7 -12 -7q-13 0 -13 14q0 8 7 18q70 97 125 166q49 63 78 94q90 94 176 155q10 7 18.5 7t14.5 -7t6 -17t-8 -15zM128 -5q117 0 150 133q99 27 166 110q4 4 4 12q0 11 -7 20.5t-15 9.5q-5 0 -9 -4q-64 -72 -129 -84
q4 22 4 32q0 46 -28.5 76t-70.5 30q-72 0 -125.5 -63.5t-53.5 -145.5q0 -54 32 -90t82 -36zM143 59q-51 0 -51 66q0 48 27 92.5t65 44.5q10 0 15.5 -6t6.5 -12v-7q-26 -25 -26 -47q0 -28 37 -44q-3 -29 -25.5 -58t-48.5 -29zM368 557q0 -16 -14 -29l-120 -114q-10 -9 -20 -9
q-15 0 -15 16q0 7 6 18l87 140q11 19 29.5 19t32.5 -12.5t14 -28.5z" />
    <glyph glyph-name="uni0200" unicode="&#x200;" horiz-adv-x="684" 
d="M435 739l-147 164q-14 15 -14 32t11.5 28t32.5 11t38 -26l117 -185q4 -5 4 -13t-7 -13.5t-17.5 -5.5t-17.5 8zM585 749l-113 154q-11 15 -11 32t12.5 29t28.5 12q26 0 39 -28l82 -175q3 -6 3 -13.5t-7 -13.5t-17.5 -6t-16.5 9zM583 14q31 0 73 37q4 4 13.5 4t19.5 -10.5
t10 -23t-7 -20.5q-20 -24 -56.5 -41t-70.5 -17q-83 0 -83 100q0 22 3 43q-21 -55 -78 -100.5t-119 -45.5q-112 0 -170.5 65t-58.5 182.5t40.5 214t106 160t147.5 99.5t167 36q142 0 239 -93q13 -11 13 -27t-9.5 -26t-23 -10t-23.5 9q-91 66 -195 66q-143 0 -250.5 -116
t-114.5 -302v-15q0 -80 37.5 -123t109 -43t124.5 57.5t72 142.5l64 282q4 23 27 23t38 -10.5t15 -21t-1 -12.5l-70 -317q-15 -77 -15 -104t6 -35t20 -8z" />
    <glyph glyph-name="uni0201" unicode="&#x201;" horiz-adv-x="350" 
d="M139 407l-147 164q-14 15 -14 32t11.5 28t32.5 11t38 -26l117 -185q4 -5 4 -13t-7 -13.5t-17.5 -5.5t-17.5 8zM289 417l-113 154q-11 15 -11 32t12.5 29t28.5 12q26 0 39 -28l82 -175q3 -6 3 -13.5t-7 -13.5t-17.5 -6t-16.5 9zM21 104q0 90 64.5 160.5t137.5 70.5
q41 0 41 -21v-6h23q28 0 28 -26v-6l-28 -172q-1 -4 -1 -11q0 -24 17 -24q38 0 90 67q7 9 14 9q10 0 17 -15.5t7 -27t-2 -17.5q-23 -32 -60 -58.5t-70.5 -26.5t-52 17.5t-22.5 47.5v-2q-17 -32 -45 -50q-29 -18 -69 -18t-64.5 30.5t-24.5 78.5zM134 65q27 0 51.5 30t33.5 66
l27 112q-58 0 -104 -55t-46 -104t38 -49z" />
    </font>
</defs>
</svg>
